Sansita-Bold Italic.ufo
<glyph name="exclam" format="1">
  <advance width="332"/>
  <unicode hex="0021"/>
  <outline>
    <contour>
      <point x="77" y="264" type="line"/>
      <point x="76" y="255"/>
      <point x="75" y="257"/>
      <point x="75" y="249" type="curve" smooth="yes"/>
      <point x="75" y="208"/>
      <point x="104" y="180"/>
      <point x="155" y="180" type="curve" smooth="yes"/>
      <point x="180" y="180"/>
      <point x="205" y="187"/>
      <point x="221" y="206" type="curve"/>
      <point x="224" y="338"/>
      <point x="326" y="471"/>
      <point x="326" y="581" type="curve" smooth="yes"/>
      <point x="326" y="642"/>
      <point x="294" y="680"/>
      <point x="230" y="680" type="curve" smooth="yes"/>
      <point x="204" y="680"/>
      <point x="176" y="674"/>
      <point x="155" y="666" type="curve"/>
    </contour>
    <component base="period" xOffset="44"/>
  </outline>
</glyph>
<glyph name="quotedbl" format="1">
  <advance width="432"/>
  <unicode hex="0022"/>
  <outline>
    <contour>
      <point x="147" y="461" type="line"/>
      <point x="187" y="495"/>
      <point x="227" y="596"/>
      <point x="227" y="649" type="curve" smooth="yes"/>
      <point x="227" y="700"/>
      <point x="192" y="730"/>
      <point x="137" y="730" type="curve" smooth="yes"/>
      <point x="120" y="730"/>
      <point x="98" y="727"/>
      <point x="80" y="724" type="curve"/>
      <point x="79" y="640"/>
      <point x="63" y="539"/>
      <point x="41" y="461" type="curve"/>
    </contour>
    <contour>
      <point x="356" y="461" type="line"/>
      <point x="396" y="495"/>
      <point x="436" y="596"/>
      <point x="436" y="649" type="curve" smooth="yes"/>
      <point x="436" y="700"/>
      <point x="401" y="730"/>
      <point x="346" y="730" type="curve" smooth="yes"/>
      <point x="329" y="730"/>
      <point x="307" y="727"/>
      <point x="289" y="724" type="curve"/>
      <point x="288" y="640"/>
      <point x="272" y="539"/>
      <point x="250" y="461" type="curve"/>
    </contour>
  </outline>
</glyph>
<glyph name="numbersign" format="1">
  <advance width="572"/>
  <unicode hex="0023"/>
  <outline>
    <contour>
      <point x="451" y="263" type="line"/>
      <point x="472" y="376" type="line"/>
      <point x="510" y="376" type="line" smooth="yes"/>
      <point x="558" y="376"/>
      <point x="584" y="403"/>
      <point x="584" y="454" type="curve" smooth="yes"/>
      <point x="584" y="467"/>
      <point x="582" y="481"/>
      <point x="579" y="495" type="curve"/>
      <point x="497" y="495" type="line"/>
      <point x="525" y="648" type="line"/>
      <point x="507" y="656"/>
      <point x="490" y="660"/>
      <point x="475" y="660" type="curve" smooth="yes"/>
      <point x="428" y="660"/>
      <point x="405" y="636"/>
      <point x="398" y="599" type="curve" smooth="yes"/>
      <point x="377" y="495" type="line"/>
      <point x="276" y="495" type="line"/>
      <point x="306" y="648" type="line"/>
      <point x="287" y="656"/>
      <point x="270" y="660"/>
      <point x="255" y="660" type="curve" smooth="yes"/>
      <point x="206" y="660"/>
      <point x="184" y="636"/>
      <point x="177" y="599" type="curve" smooth="yes"/>
      <point x="157" y="495" type="line"/>
      <point x="100" y="495" type="line" smooth="yes"/>
      <point x="52" y="495"/>
      <point x="25" y="467"/>
      <point x="25" y="416" type="curve" smooth="yes"/>
      <point x="25" y="404"/>
      <point x="27" y="391"/>
      <point x="31" y="376" type="curve"/>
      <point x="133" y="376" type="line"/>
      <point x="112" y="263" type="line"/>
      <point x="69" y="263" type="line" smooth="yes"/>
      <point x="22" y="263"/>
      <point x="-5" y="241"/>
      <point x="-5" y="184" type="curve" smooth="yes"/>
      <point x="-5" y="172"/>
      <point x="-3" y="159"/>
      <point x="1" y="144" type="curve"/>
      <point x="89" y="144" type="line"/>
      <point x="63" y="12" type="line"/>
      <point x="80" y="4"/>
      <point x="98" y="0"/>
      <point x="114" y="0" type="curve" smooth="yes"/>
      <point x="152" y="0"/>
      <point x="183" y="23"/>
      <point x="191" y="61" type="curve" smooth="yes"/>
      <point x="208" y="144" type="line"/>
      <point x="309" y="144" type="line"/>
      <point x="283" y="12" type="line"/>
      <point x="300" y="4"/>
      <point x="318" y="0"/>
      <point x="334" y="0" type="curve" smooth="yes"/>
      <point x="372" y="0"/>
      <point x="403" y="23"/>
      <point x="411" y="61" type="curve" smooth="yes"/>
      <point x="428" y="144" type="line"/>
      <point x="479" y="144" type="line" smooth="yes"/>
      <point x="527" y="144"/>
      <point x="553" y="166"/>
      <point x="553" y="222" type="curve" smooth="yes"/>
      <point x="553" y="234"/>
      <point x="551" y="248"/>
      <point x="547" y="263" type="curve"/>
    </contour>
    <contour>
      <point x="231" y="263" type="line"/>
      <point x="252" y="376" type="line"/>
      <point x="353" y="376" type="line"/>
      <point x="332" y="263" type="line"/>
    </contour>
  </outline>
</glyph>
<glyph name="dollar" format="1">
  <advance width="572"/>
  <unicode hex="0024"/>
  <outline>
    <contour>
      <point x="405" y="656" type="line"/>
      <point x="426" y="760" type="line"/>
      <point x="413" y="763"/>
      <point x="398" y="765"/>
      <point x="383" y="765" type="curve" smooth="yes"/>
      <point x="341" y="765"/>
      <point x="326" y="748"/>
      <point x="315" y="690" type="curve" smooth="yes"/>
      <point x="308" y="652" type="line"/>
    </contour>
    <contour>
      <point x="176" y="-8" type="line"/>
      <point x="157" y="-112" type="line"/>
      <point x="168" y="-115"/>
      <point x="185" y="-117"/>
      <point x="200" y="-117" type="curve" smooth="yes"/>
      <point x="244" y="-117"/>
      <point x="261" y="-100"/>
      <point x="271" y="-42" type="curve" smooth="yes"/>
      <point x="278" y="-3" type="line"/>
    </contour>
    <contour>
      <point x="202" y="668"/>
      <point x="63" y="577"/>
      <point x="63" y="438" type="curve" smooth="yes"/>
      <point x="63" y="350"/>
      <point x="119" y="303"/>
      <point x="180" y="266" type="curve" smooth="yes"/>
      <point x="246" y="226"/>
      <point x="324" y="192"/>
      <point x="324" y="128" type="curve" smooth="yes"/>
      <point x="324" y="78"/>
      <point x="276" y="47"/>
      <point x="226" y="47" type="curve" smooth="yes"/>
      <point x="181" y="47"/>
      <point x="169" y="73"/>
      <point x="169" y="117" type="curve" smooth="yes"/>
      <point x="169" y="145"/>
      <point x="174" y="175"/>
      <point x="185" y="202" type="curve"/>
      <point x="161" y="211"/>
      <point x="135" y="215"/>
      <point x="114" y="215" type="curve" smooth="yes"/>
      <point x="40" y="215"/>
      <point x="-2" y="167"/>
      <point x="-2" y="103" type="curve" smooth="yes"/>
      <point x="-2" y="-1"/>
      <point x="109" y="-20"/>
      <point x="191" y="-20" type="curve" smooth="yes"/>
      <point x="365" y="-20"/>
      <point x="527" y="66"/>
      <point x="527" y="210" type="curve" smooth="yes"/>
      <point x="527" y="295"/>
      <point x="469" y="340"/>
      <point x="408" y="375" type="curve" smooth="yes"/>
      <point x="337" y="416"/>
      <point x="261" y="445"/>
      <point x="261" y="509" type="curve" smooth="yes"/>
      <point x="261" y="559"/>
      <point x="309" y="606"/>
      <point x="361" y="606" type="curve" smooth="yes"/>
      <point x="403" y="606"/>
      <point x="418" y="575"/>
      <point x="418" y="530" type="curve" smooth="yes"/>
      <point x="418" y="508"/>
      <point x="414" y="477"/>
      <point x="403" y="454" type="curve"/>
      <point x="420" y="448"/>
      <point x="441" y="444"/>
      <point x="461" y="444" type="curve" smooth="yes"/>
      <point x="521" y="444"/>
      <point x="582" y="477"/>
      <point x="582" y="550" type="curve" smooth="yes"/>
      <point x="582" y="646"/>
      <point x="475" y="668"/>
      <point x="386" y="668" type="curve" smooth="yes"/>
    </contour>
  </outline>
</glyph>
<glyph name="ampersand" format="1">
  <advance width="735"/>
  <unicode hex="0026"/>
  <outline>
    <contour>
      <point x="394" y="75" type="line"/>
      <point x="375" y="66"/>
      <point x="347" y="63"/>
      <point x="329" y="63" type="curve" smooth="yes"/>
      <point x="237" y="63"/>
      <point x="185" y="134"/>
      <point x="185" y="205" type="curve" smooth="yes"/>
      <point x="185" y="263"/>
      <point x="208" y="297"/>
      <point x="258" y="322" type="curve"/>
      <point x="239" y="366" type="line"/>
      <point x="100" y="342"/>
      <point x="29" y="283"/>
      <point x="29" y="177" type="curve" smooth="yes"/>
      <point x="29" y="41"/>
      <point x="143" y="-20"/>
      <point x="286" y="-20" type="curve" smooth="yes"/>
      <point x="359" y="-20"/>
      <point x="412" y="-4"/>
      <point x="469" y="21" type="curve"/>
    </contour>
    <contour>
      <point x="506" y="103"/>
      <point x="341" y="283"/>
      <point x="341" y="495" type="curve" smooth="yes"/>
      <point x="341" y="563"/>
      <point x="360" y="611"/>
      <point x="401" y="611" type="curve" smooth="yes"/>
      <point x="443" y="611"/>
      <point x="450" y="562"/>
      <point x="450" y="523" type="curve" smooth="yes"/>
      <point x="450" y="502"/>
      <point x="448" y="483"/>
      <point x="444" y="469" type="curve"/>
      <point x="454" y="466"/>
      <point x="477" y="465"/>
      <point x="488" y="465" type="curve" smooth="yes"/>
      <point x="558" y="465"/>
      <point x="608" y="505"/>
      <point x="608" y="569" type="curve" smooth="yes"/>
      <point x="608" y="658"/>
      <point x="511" y="680"/>
      <point x="424" y="680" type="curve" smooth="yes"/>
      <point x="292" y="680"/>
      <point x="168" y="629"/>
      <point x="168" y="462" type="curve" smooth="yes"/>
      <point x="168" y="266"/>
      <point x="384" y="-20"/>
      <point x="594" y="-20" type="curve" smooth="yes"/>
      <point x="662" y="-20"/>
      <point x="710" y="6"/>
      <point x="710" y="73" type="curve" smooth="yes"/>
      <point x="710" y="87"/>
      <point x="708" y="101"/>
      <point x="702" y="116" type="curve"/>
      <point x="694" y="110"/>
      <point x="666" y="103"/>
      <point x="639" y="103" type="curve" smooth="yes"/>
    </contour>
    <contour>
      <point x="580" y="101" type="line"/>
      <point x="629" y="154"/>
      <point x="653" y="218"/>
      <point x="653" y="275" type="curve" smooth="yes"/>
      <point x="653" y="343"/>
      <point x="620" y="391"/>
      <point x="551" y="391" type="curve" smooth="yes"/>
      <point x="517" y="391"/>
      <point x="477" y="379"/>
      <point x="458" y="362" type="curve"/>
      <point x="492" y="334"/>
      <point x="511" y="297"/>
      <point x="512" y="253" type="curve" smooth="yes"/>
      <point x="513" y="220"/>
      <point x="503" y="184"/>
      <point x="481" y="147" type="curve"/>
    </contour>
  </outline>
</glyph>
<glyph name="quotesingle" format="1">
  <advance width="193"/>
  <unicode hex="0027"/>
  <outline>
    <contour>
      <point x="162" y="461" type="line"/>
      <point x="202" y="495"/>
      <point x="242" y="596"/>
      <point x="242" y="649" type="curve" smooth="yes"/>
      <point x="242" y="700"/>
      <point x="207" y="730"/>
      <point x="152" y="730" type="curve" smooth="yes"/>
      <point x="135" y="730"/>
      <point x="113" y="727"/>
      <point x="95" y="724" type="curve"/>
      <point x="94" y="640"/>
      <point x="78" y="539"/>
      <point x="56" y="461" type="curve"/>
    </contour>
  </outline>
</glyph>
<glyph name="parenleft" format="1">
  <advance width="371"/>
  <unicode hex="0028"/>
  <outline>
    <contour>
      <point x="471" y="794"/>
      <point x="455" y="800"/>
      <point x="431" y="800" type="curve" smooth="yes"/>
      <point x="254" y="800"/>
      <point x="66" y="472"/>
      <point x="66" y="172" type="curve" smooth="yes"/>
      <point x="66" y="-32"/>
      <point x="153" y="-200"/>
      <point x="253" y="-200" type="curve" smooth="yes"/>
      <point x="273" y="-200"/>
      <point x="285" y="-193"/>
      <point x="289" y="-180" type="curve"/>
      <point x="216" y="-99"/>
      <point x="217" y="-45"/>
      <point x="217" y="82" type="curve" smooth="yes"/>
      <point x="217" y="371"/>
      <point x="295" y="655"/>
      <point x="481" y="780" type="curve"/>
    </contour>
  </outline>
</glyph>
<glyph name="parenright" format="1">
  <advance width="371"/>
  <unicode hex="0029"/>
  <outline>
    <contour>
      <point x="144" y="710"/>
      <point x="154" y="592"/>
      <point x="154" y="461" type="curve" smooth="yes"/>
      <point x="154" y="223"/>
      <point x="76" y="-58"/>
      <point x="-108" y="-180" type="curve"/>
      <point x="-101" y="-193"/>
      <point x="-87" y="-200"/>
      <point x="-61" y="-200" type="curve" smooth="yes"/>
      <point x="116" y="-200"/>
      <point x="304" y="129"/>
      <point x="304" y="426" type="curve" smooth="yes"/>
      <point x="304" y="628"/>
      <point x="217" y="800"/>
      <point x="121" y="800" type="curve" smooth="yes"/>
      <point x="98" y="800"/>
      <point x="85" y="790"/>
      <point x="82" y="780" type="curve"/>
    </contour>
  </outline>
</glyph>
<glyph name="asterisk" format="1">
  <advance width="402"/>
  <unicode hex="002A"/>
  <outline>
    <contour>
      <point x="297" y="551" type="line"/>
      <point x="313" y="584"/>
      <point x="324" y="618"/>
      <point x="324" y="646" type="curve" smooth="yes"/>
      <point x="324" y="675"/>
      <point x="311" y="697"/>
      <point x="269" y="697" type="curve" smooth="yes"/>
      <point x="251" y="697"/>
      <point x="231" y="692"/>
      <point x="213" y="683" type="curve"/>
      <point x="206" y="569" type="line"/>
      <point x="179" y="595"/>
      <point x="149" y="617"/>
      <point x="123" y="625" type="curve" smooth="yes"/>
      <point x="95" y="634"/>
      <point x="70" y="628"/>
      <point x="57" y="588" type="curve" smooth="yes"/>
      <point x="52" y="571"/>
      <point x="50" y="551"/>
      <point x="53" y="531" type="curve"/>
      <point x="159" y="489" type="line"/>
      <point x="125" y="471"/>
      <point x="94" y="449"/>
      <point x="78" y="427" type="curve" smooth="yes"/>
      <point x="61" y="403"/>
      <point x="59" y="378"/>
      <point x="93" y="353" type="curve" smooth="yes"/>
      <point x="107" y="342"/>
      <point x="126" y="335"/>
      <point x="146" y="331" type="curve"/>
      <point x="222" y="424" type="line"/>
      <point x="229" y="386"/>
      <point x="240" y="349"/>
      <point x="257" y="326" type="curve" smooth="yes"/>
      <point x="274" y="303"/>
      <point x="298" y="293"/>
      <point x="332" y="317" type="curve"/>
      <point x="346" y="328"/>
      <point x="360" y="344"/>
      <point x="369" y="361" type="curve"/>
      <point x="306" y="459" type="line"/>
      <point x="344" y="454"/>
      <point x="380" y="454"/>
      <point x="406" y="462" type="curve" smooth="yes"/>
      <point x="433" y="471"/>
      <point x="450" y="491"/>
      <point x="437" y="531" type="curve" smooth="yes"/>
      <point x="432" y="548"/>
      <point x="421" y="565"/>
      <point x="407" y="579" type="curve"/>
    </contour>
  </outline>
</glyph>
<glyph name="plus" format="1">
  <advance width="572"/>
  <unicode hex="002B"/>
  <outline>
    <contour>
      <point x="129" y="292" type="line" smooth="yes"/>
      <point x="86" y="292"/>
      <point x="56" y="262"/>
      <point x="56" y="217" type="curve" smooth="yes"/>
      <point x="56" y="209"/>
      <point x="57" y="199"/>
      <point x="60" y="190" type="curve"/>
      <point x="203" y="190" type="line"/>
      <point x="167" y="13" type="line"/>
      <point x="182" y="8"/>
      <point x="197" y="6"/>
      <point x="210" y="6" type="curve" smooth="yes"/>
      <point x="254" y="6"/>
      <point x="280" y="29"/>
      <point x="288" y="67" type="curve" smooth="yes"/>
      <point x="312" y="190" type="line"/>
      <point x="402" y="190" type="line" smooth="yes"/>
      <point x="452" y="190"/>
      <point x="486" y="217"/>
      <point x="486" y="260" type="curve" smooth="yes"/>
      <point x="486" y="271"/>
      <point x="484" y="280"/>
      <point x="481" y="292" type="curve"/>
      <point x="332" y="292" type="line"/>
      <point x="364" y="459" type="line"/>
      <point x="351" y="464"/>
      <point x="337" y="466"/>
      <point x="325" y="466" type="curve" smooth="yes"/>
      <point x="278" y="466"/>
      <point x="249" y="436"/>
      <point x="242" y="399" type="curve" smooth="yes"/>
      <point x="222" y="292" type="line"/>
    </contour>
  </outline>
</glyph>
<glyph name="comma" format="1">
  <advance width="222"/>
  <unicode hex="002C"/>
  <outline>
    <contour>
      <point x="161" y="107"/>
      <point x="123" y="139"/>
      <point x="68" y="139" type="curve" smooth="yes"/>
      <point x="40" y="139"/>
      <point x="3" y="131"/>
      <point x="-13" y="120" type="curve"/>
      <point x="-6" y="101"/>
      <point x="-2" y="82"/>
      <point x="-2" y="54" type="curve" smooth="yes"/>
      <point x="-2" y="10"/>
      <point x="-12" y="-57"/>
      <point x="-79" y="-129" type="curve"/>
      <point x="-67" y="-132"/>
      <point x="-54" y="-135"/>
      <point x="-35" y="-135" type="curve" smooth="yes"/>
      <point x="69" y="-135"/>
      <point x="161" y="-50"/>
      <point x="161" y="46" type="curve" smooth="yes"/>
    </contour>
  </outline>
</glyph>
<glyph name="period" format="1">
  <advance width="242"/>
  <unicode hex="002E"/>
  <outline>
    <contour>
      <point x="35" y="132"/>
      <point x="-12" y="105"/>
      <point x="-12" y="54" type="curve" smooth="yes"/>
      <point x="-12" y="6"/>
      <point x="31" y="-20"/>
      <point x="90" y="-20" type="curve" smooth="yes"/>
      <point x="149" y="-20"/>
      <point x="194" y="6"/>
      <point x="194" y="56" type="curve" smooth="yes"/>
      <point x="194" y="105"/>
      <point x="153" y="132"/>
      <point x="94" y="132" type="curve" smooth="yes"/>
    </contour>
  </outline>
</glyph>
<glyph name="slash" format="1">
  <advance width="312"/>
  <unicode hex="002F"/>
  <outline>
    <contour>
      <point x="374" y="682" type="line"/>
      <point x="384" y="712"/>
      <point x="390" y="736"/>
      <point x="390" y="753" type="curve" smooth="yes"/>
      <point x="390" y="790"/>
      <point x="364" y="801"/>
      <point x="301" y="801" type="curve" smooth="yes"/>
      <point x="282" y="801"/>
      <point x="270" y="800"/>
      <point x="258" y="798" type="curve"/>
      <point x="-69" y="-105" type="line" smooth="yes"/>
      <point x="-75" y="-122"/>
      <point x="-78" y="-137"/>
      <point x="-78" y="-149" type="curve" smooth="yes"/>
      <point x="-78" y="-184"/>
      <point x="-54" y="-200"/>
      <point x="3" y="-200" type="curve" smooth="yes"/>
      <point x="23" y="-200"/>
      <point x="51" y="-198"/>
      <point x="56" y="-196" type="curve"/>
    </contour>
  </outline>
</glyph>
<glyph name="zero" format="1">
  <advance width="572"/>
  <unicode hex="0030"/>
  <outline>
    <contour>
      <point x="129" y="680"/>
      <point x="20" y="469"/>
      <point x="20" y="235" type="curve" smooth="yes"/>
      <point x="20" y="82"/>
      <point x="67" y="-21"/>
      <point x="225" y="-21" type="curve" smooth="yes"/>
      <point x="452" y="-21"/>
      <point x="561" y="190"/>
      <point x="561" y="424" type="curve" smooth="yes"/>
      <point x="561" y="577"/>
      <point x="514" y="680"/>
      <point x="356" y="680" type="curve" smooth="yes"/>
    </contour>
    <contour>
      <point x="378" y="600"/>
      <point x="385" y="566"/>
      <point x="385" y="517" type="curve" smooth="yes"/>
      <point x="385" y="468"/>
      <point x="378" y="402"/>
      <point x="371" y="348" type="curve" smooth="yes"/>
      <point x="345" y="152"/>
      <point x="313" y="60"/>
      <point x="246" y="60" type="curve" smooth="yes"/>
      <point x="205" y="60"/>
      <point x="198" y="94"/>
      <point x="198" y="143" type="curve" smooth="yes"/>
      <point x="198" y="192"/>
      <point x="205" y="258"/>
      <point x="212" y="312" type="curve" smooth="yes"/>
      <point x="238" y="508"/>
      <point x="270" y="600"/>
      <point x="337" y="600" type="curve" smooth="yes"/>
    </contour>
  </outline>
</glyph>
<glyph name="one" format="1">
  <advance width="572"/>
  <unicode hex="0031"/>
  <outline>
    <contour>
      <point x="436" y="671" type="line"/>
      <point x="278" y="607"/>
      <point x="167" y="571"/>
      <point x="55" y="554" type="curve"/>
      <point x="61" y="497"/>
      <point x="89" y="456"/>
      <point x="144" y="456" type="curve" smooth="yes"/>
      <point x="202" y="456"/>
      <point x="251" y="479"/>
      <point x="290" y="513" type="curve"/>
      <point x="287" y="579" type="line"/>
      <point x="184" y="119" type="line"/>
      <point x="80" y="119" type="line" smooth="yes"/>
      <point x="27" y="119"/>
      <point x="0" y="84"/>
      <point x="0" y="31" type="curve" smooth="yes"/>
      <point x="0" y="20"/>
      <point x="1" y="8"/>
      <point x="4" y="-4" type="curve"/>
      <point x="25" y="-1"/>
      <point x="47" y="0"/>
      <point x="79" y="0" type="curve" smooth="yes"/>
      <point x="181" y="0"/>
      <point x="354" y="-7"/>
      <point x="417" y="-7" type="curve" smooth="yes"/>
      <point x="500" y="-7"/>
      <point x="540" y="12"/>
      <point x="540" y="73" type="curve" smooth="yes"/>
      <point x="540" y="95"/>
      <point x="535" y="117"/>
      <point x="527" y="130" type="curve"/>
      <point x="509" y="124"/>
      <point x="479" y="119"/>
      <point x="436" y="119" type="curve" smooth="yes"/>
      <point x="391" y="119" type="line"/>
      <point x="486" y="641" type="line"/>
    </contour>
  </outline>
</glyph>
<glyph name="two" format="1">
  <advance width="572"/>
  <unicode hex="0032"/>
  <outline>
    <contour>
      <point x="89" y="205" type="line" smooth="yes"/>
      <point x="45" y="169"/>
      <point x="18" y="139"/>
      <point x="18" y="90" type="curve" smooth="yes"/>
      <point x="18" y="55"/>
      <point x="32" y="16"/>
      <point x="52" y="0" type="curve"/>
      <point x="62" y="9"/>
      <point x="76" y="15"/>
      <point x="104" y="15" type="curve" smooth="yes"/>
      <point x="167" y="15"/>
      <point x="247" y="-12"/>
      <point x="344" y="-12" type="curve" smooth="yes"/>
      <point x="465" y="-12"/>
      <point x="516" y="33"/>
      <point x="516" y="111" type="curve" smooth="yes"/>
      <point x="516" y="138"/>
      <point x="510" y="163"/>
      <point x="490" y="192" type="curve"/>
      <point x="465" y="168"/>
      <point x="431" y="161"/>
      <point x="381" y="161" type="curve" smooth="yes"/>
      <point x="335" y="161"/>
      <point x="264" y="166"/>
      <point x="208" y="178" type="curve"/>
      <point x="294" y="231"/>
      <point x="362" y="275"/>
      <point x="405" y="307" type="curve" smooth="yes"/>
      <point x="495" y="374"/>
      <point x="533" y="435"/>
      <point x="533" y="510" type="curve" smooth="yes"/>
      <point x="533" y="634"/>
      <point x="421" y="680"/>
      <point x="304" y="680" type="curve" smooth="yes"/>
      <point x="188" y="680"/>
      <point x="50" y="622"/>
      <point x="50" y="516" type="curve" smooth="yes"/>
      <point x="50" y="473"/>
      <point x="89" y="442"/>
      <point x="118" y="441" type="curve"/>
      <point x="129" y="495"/>
      <point x="177" y="538"/>
      <point x="248" y="538" type="curve" smooth="yes"/>
      <point x="302" y="538"/>
      <point x="343" y="522"/>
      <point x="343" y="471" type="curve" smooth="yes"/>
      <point x="343" y="425"/>
      <point x="316" y="387"/>
      <point x="274" y="354" type="curve" smooth="yes"/>
    </contour>
  </outline>
</glyph>
<glyph name="three" format="1">
  <advance width="572"/>
  <unicode hex="0033"/>
  <outline>
    <contour>
      <point x="184" y="292" type="line"/>
      <point x="273" y="292"/>
      <point x="311" y="260"/>
      <point x="311" y="202" type="curve" smooth="yes"/>
      <point x="311" y="141"/>
      <point x="257" y="108"/>
      <point x="172" y="108" type="curve" smooth="yes"/>
      <point x="114" y="108"/>
      <point x="58" y="130"/>
      <point x="30" y="179" type="curve"/>
      <point x="7" y="160"/>
      <point x="-9" y="130"/>
      <point x="-9" y="95" type="curve" smooth="yes"/>
      <point x="-9" y="26"/>
      <point x="60" y="-20"/>
      <point x="189" y="-20" type="curve" smooth="yes"/>
      <point x="386" y="-20"/>
      <point x="513" y="77"/>
      <point x="513" y="202" type="curve" smooth="yes"/>
      <point x="513" y="280"/>
      <point x="468" y="340"/>
      <point x="376" y="361" type="curve"/>
      <point x="480" y="397"/>
      <point x="541" y="464"/>
      <point x="541" y="544" type="curve" smooth="yes"/>
      <point x="541" y="637"/>
      <point x="443" y="680"/>
      <point x="327" y="680" type="curve" smooth="yes"/>
      <point x="222" y="680"/>
      <point x="72" y="637"/>
      <point x="72" y="531" type="curve" smooth="yes"/>
      <point x="72" y="502"/>
      <point x="83" y="482"/>
      <point x="107" y="477" type="curve"/>
      <point x="149" y="518"/>
      <point x="196" y="539"/>
      <point x="244" y="539" type="curve" smooth="yes"/>
      <point x="310" y="539"/>
      <point x="352" y="517"/>
      <point x="352" y="479" type="curve" smooth="yes"/>
      <point x="352" y="432"/>
      <point x="306" y="399"/>
      <point x="201" y="382" type="curve"/>
    </contour>
  </outline>
</glyph>
<glyph name="four" format="1">
  <advance width="572"/>
  <unicode hex="0034"/>
  <outline>
    <contour>
      <point x="19" y="276" type="line" smooth="yes"/>
      <point x="-4" y="250"/>
      <point x="-16" y="215"/>
      <point x="-16" y="180" type="curve" smooth="yes"/>
      <point x="-16" y="160"/>
      <point x="-12" y="144"/>
      <point x="-3" y="121" type="curve"/>
      <point x="244" y="121" type="line"/>
      <point x="221" y="0" type="line"/>
      <point x="407" y="0" type="line"/>
      <point x="427" y="121" type="line"/>
      <point x="458" y="121" type="line" smooth="yes"/>
      <point x="520" y="121"/>
      <point x="562" y="153"/>
      <point x="562" y="205" type="curve" smooth="yes"/>
      <point x="562" y="223"/>
      <point x="557" y="248"/>
      <point x="547" y="261" type="curve"/>
      <point x="531" y="256"/>
      <point x="504" y="251"/>
      <point x="469" y="250" type="curve" smooth="yes"/>
      <point x="447" y="250" type="line"/>
      <point x="484" y="454"/>
      <point x="510" y="569"/>
      <point x="532" y="660" type="curve"/>
      <point x="366" y="660" type="line"/>
    </contour>
    <contour>
      <point x="98" y="250" type="line"/>
      <point x="336" y="513" type="line"/>
      <point x="314" y="439"/>
      <point x="291" y="347"/>
      <point x="269" y="250" type="curve"/>
    </contour>
  </outline>
</glyph>
<glyph name="five" format="1">
  <advance width="572"/>
  <unicode hex="0035"/>
  <outline>
    <contour>
      <point x="154" y="660" type="line"/>
      <point x="60" y="298" type="line"/>
      <point x="88" y="300"/>
      <point x="128" y="302"/>
      <point x="167" y="302" type="curve" smooth="yes"/>
      <point x="253" y="302"/>
      <point x="316" y="288"/>
      <point x="316" y="209" type="curve" smooth="yes"/>
      <point x="316" y="140"/>
      <point x="264" y="108"/>
      <point x="181" y="108" type="curve" smooth="yes"/>
      <point x="117" y="108"/>
      <point x="72" y="130"/>
      <point x="41" y="179" type="curve"/>
      <point x="18" y="159"/>
      <point x="6" y="128"/>
      <point x="6" y="96" type="curve" smooth="yes"/>
      <point x="6" y="3"/>
      <point x="109" y="-20"/>
      <point x="195" y="-20" type="curve" smooth="yes"/>
      <point x="396" y="-20"/>
      <point x="516" y="104"/>
      <point x="516" y="243" type="curve" smooth="yes"/>
      <point x="516" y="372"/>
      <point x="415" y="416"/>
      <point x="294" y="416" type="curve" smooth="yes"/>
      <point x="263" y="416"/>
      <point x="228" y="414"/>
      <point x="190" y="411" type="curve"/>
      <point x="218" y="505" type="line"/>
      <point x="395" y="505" type="line" smooth="yes"/>
      <point x="485" y="505"/>
      <point x="549" y="532"/>
      <point x="549" y="622" type="curve" smooth="yes"/>
      <point x="549" y="638"/>
      <point x="547" y="654"/>
      <point x="540" y="672" type="curve"/>
      <point x="515" y="661"/>
      <point x="457" y="660"/>
      <point x="410" y="660" type="curve" smooth="yes"/>
    </contour>
  </outline>
</glyph>
<glyph name="six" format="1">
  <advance width="572"/>
  <unicode hex="0036"/>
  <outline>
    <contour>
      <point x="180" y="680"/>
      <point x="21" y="450"/>
      <point x="21" y="226" type="curve" smooth="yes"/>
      <point x="21" y="77"/>
      <point x="92" y="-20"/>
      <point x="243" y="-20" type="curve" smooth="yes"/>
      <point x="405" y="-20"/>
      <point x="536" y="91"/>
      <point x="536" y="262" type="curve" smooth="yes"/>
      <point x="536" y="371"/>
      <point x="482" y="448"/>
      <point x="369" y="448" type="curve" smooth="yes"/>
      <point x="298" y="448"/>
      <point x="256" y="418"/>
      <point x="219" y="360" type="curve"/>
      <point x="242" y="472"/>
      <point x="300" y="551"/>
      <point x="411" y="551" type="curve" smooth="yes"/>
      <point x="453" y="551"/>
      <point x="489" y="540"/>
      <point x="516" y="512" type="curve"/>
      <point x="540" y="530"/>
      <point x="552" y="559"/>
      <point x="552" y="587" type="curve" smooth="yes"/>
      <point x="552" y="658"/>
      <point x="475" y="680"/>
      <point x="405" y="680" type="curve" smooth="yes"/>
    </contour>
    <contour>
      <point x="337" y="343"/>
      <point x="355" y="317"/>
      <point x="355" y="264" type="curve" smooth="yes"/>
      <point x="355" y="203"/>
      <point x="331" y="91"/>
      <point x="255" y="91" type="curve" smooth="yes"/>
      <point x="218" y="91"/>
      <point x="200" y="117"/>
      <point x="200" y="170" type="curve" smooth="yes"/>
      <point x="200" y="231"/>
      <point x="224" y="343"/>
      <point x="300" y="343" type="curve" smooth="yes"/>
    </contour>
  </outline>
</glyph>
<glyph name="seven" format="1">
  <advance width="572"/>
  <unicode hex="0037"/>
  <outline>
    <contour>
      <point x="196" y="660" type="line" smooth="yes"/>
      <point x="131" y="660"/>
      <point x="88" y="663"/>
      <point x="63" y="672" type="curve"/>
      <point x="50" y="653"/>
      <point x="39" y="633"/>
      <point x="39" y="601" type="curve" smooth="yes"/>
      <point x="39" y="520"/>
      <point x="112" y="510"/>
      <point x="193" y="510" type="curve" smooth="yes"/>
      <point x="393" y="510" type="line"/>
      <point x="136" y="187" type="line" smooth="yes"/>
      <point x="110" y="154"/>
      <point x="98" y="119"/>
      <point x="98" y="82" type="curve" smooth="yes"/>
      <point x="98" y="15"/>
      <point x="138" y="-20"/>
      <point x="202" y="-20" type="curve" smooth="yes"/>
      <point x="232" y="-20"/>
      <point x="275" y="-12"/>
      <point x="307" y="1" type="curve"/>
      <point x="306" y="8"/>
      <point x="306" y="15"/>
      <point x="306" y="22" type="curve" smooth="yes"/>
      <point x="306" y="83"/>
      <point x="318" y="169"/>
      <point x="469" y="409" type="curve" smooth="yes"/>
      <point x="501" y="460"/>
      <point x="545" y="513"/>
      <point x="587" y="561" type="curve"/>
      <point x="568" y="660" type="line"/>
    </contour>
  </outline>
</glyph>
<glyph name="eight" format="1">
  <advance width="572"/>
  <unicode hex="0038"/>
  <outline>
    <contour>
      <point x="233" y="680"/>
      <point x="100" y="591"/>
      <point x="100" y="455" type="curve" smooth="yes"/>
      <point x="100" y="400"/>
      <point x="122" y="364"/>
      <point x="166" y="327" type="curve"/>
      <point x="63" y="277"/>
      <point x="16" y="214"/>
      <point x="16" y="139" type="curve" smooth="yes"/>
      <point x="16" y="27"/>
      <point x="119" y="-20"/>
      <point x="231" y="-20" type="curve" smooth="yes"/>
      <point x="385" y="-20"/>
      <point x="523" y="68"/>
      <point x="523" y="212" type="curve" smooth="yes"/>
      <point x="523" y="275"/>
      <point x="497" y="303"/>
      <point x="415" y="371" type="curve"/>
      <point x="482" y="402"/>
      <point x="555" y="458"/>
      <point x="555" y="546" type="curve" smooth="yes"/>
      <point x="555" y="641"/>
      <point x="470" y="680"/>
      <point x="376" y="680" type="curve" smooth="yes"/>
    </contour>
    <contour>
      <point x="294" y="464" type="line" smooth="yes"/>
      <point x="279" y="475"/>
      <point x="271" y="491"/>
      <point x="271" y="512" type="curve" smooth="yes"/>
      <point x="271" y="556"/>
      <point x="305" y="581"/>
      <point x="345" y="581" type="curve" smooth="yes"/>
      <point x="388" y="581"/>
      <point x="408" y="553"/>
      <point x="408" y="511" type="curve" smooth="yes"/>
      <point x="408" y="470"/>
      <point x="389" y="441"/>
      <point x="353" y="420" type="curve"/>
    </contour>
    <contour>
      <point x="296" y="213" type="line" smooth="yes"/>
      <point x="311" y="200"/>
      <point x="317" y="185"/>
      <point x="317" y="166" type="curve" smooth="yes"/>
      <point x="317" y="123"/>
      <point x="286" y="84"/>
      <point x="239" y="84" type="curve" smooth="yes"/>
      <point x="195" y="84"/>
      <point x="175" y="119"/>
      <point x="175" y="168" type="curve" smooth="yes"/>
      <point x="175" y="212"/>
      <point x="191" y="246"/>
      <point x="226" y="272" type="curve"/>
    </contour>
  </outline>
</glyph>
<glyph name="nine" format="1">
  <advance width="572"/>
  <unicode hex="0039"/>
  <outline>
    <contour>
      <point x="177" y="680"/>
      <point x="46" y="569"/>
      <point x="46" y="398" type="curve" smooth="yes"/>
      <point x="46" y="289"/>
      <point x="100" y="212"/>
      <point x="213" y="212" type="curve" smooth="yes"/>
      <point x="284" y="212"/>
      <point x="326" y="242"/>
      <point x="363" y="300" type="curve"/>
      <point x="340" y="188"/>
      <point x="282" y="109"/>
      <point x="171" y="109" type="curve" smooth="yes"/>
      <point x="129" y="109"/>
      <point x="93" y="120"/>
      <point x="66" y="148" type="curve"/>
      <point x="42" y="130"/>
      <point x="30" y="101"/>
      <point x="30" y="73" type="curve" smooth="yes"/>
      <point x="30" y="2"/>
      <point x="107" y="-20"/>
      <point x="177" y="-20" type="curve" smooth="yes"/>
      <point x="402" y="-20"/>
      <point x="561" y="210"/>
      <point x="561" y="434" type="curve" smooth="yes"/>
      <point x="561" y="583"/>
      <point x="490" y="680"/>
      <point x="339" y="680" type="curve" smooth="yes"/>
    </contour>
    <contour>
      <point x="364" y="569"/>
      <point x="382" y="543"/>
      <point x="382" y="490" type="curve" smooth="yes"/>
      <point x="382" y="429"/>
      <point x="358" y="317"/>
      <point x="282" y="317" type="curve" smooth="yes"/>
      <point x="245" y="317"/>
      <point x="227" y="343"/>
      <point x="227" y="396" type="curve" smooth="yes"/>
      <point x="227" y="457"/>
      <point x="251" y="569"/>
      <point x="327" y="569" type="curve" smooth="yes"/>
    </contour>
  </outline>
</glyph>
<glyph name="less" format="1">
  <advance width="572"/>
  <unicode hex="003C"/>
  <outline>
    <contour>
      <point x="222" y="232" type="line"/>
      <point x="444" y="428" type="line"/>
      <point x="436" y="461"/>
      <point x="412" y="483"/>
      <point x="381" y="483" type="curve" smooth="yes"/>
      <point x="357" y="483"/>
      <point x="334" y="473"/>
      <point x="312" y="455" type="curve" smooth="yes"/>
      <point x="46" y="239" type="line"/>
    </contour>
    <contour>
      <point x="46" y="239" type="line"/>
      <point x="269" y="5" type="line"/>
      <point x="328" y="7"/>
      <point x="353" y="51"/>
      <point x="353" y="83" type="curve" smooth="yes"/>
      <point x="353" y="97"/>
      <point x="349" y="110"/>
      <point x="341" y="118" type="curve" smooth="yes"/>
      <point x="211" y="252" type="line"/>
    </contour>
  </outline>
</glyph>
<glyph name="equal" format="1">
  <advance width="572"/>
  <unicode hex="003D"/>
  <outline>
    <contour>
      <point x="136" y="364" type="line" smooth="yes"/>
      <point x="94" y="364"/>
      <point x="63" y="335"/>
      <point x="63" y="291" type="curve" smooth="yes"/>
      <point x="63" y="283"/>
      <point x="64" y="274"/>
      <point x="67" y="264" type="curve"/>
      <point x="407" y="264" type="line" smooth="yes"/>
      <point x="462" y="264"/>
      <point x="489" y="294"/>
      <point x="489" y="334" type="curve" smooth="yes"/>
      <point x="489" y="344"/>
      <point x="487" y="354"/>
      <point x="484" y="364" type="curve"/>
    </contour>
    <contour>
      <point x="136" y="189" type="line" smooth="yes"/>
      <point x="94" y="189"/>
      <point x="63" y="159"/>
      <point x="63" y="115" type="curve" smooth="yes"/>
      <point x="63" y="107"/>
      <point x="64" y="98"/>
      <point x="67" y="88" type="curve"/>
      <point x="407" y="88" type="line" smooth="yes"/>
      <point x="462" y="88"/>
      <point x="489" y="119"/>
      <point x="489" y="159" type="curve" smooth="yes"/>
      <point x="489" y="169"/>
      <point x="487" y="179"/>
      <point x="484" y="189" type="curve"/>
    </contour>
  </outline>
</glyph>
<glyph name="greater" format="1">
  <advance width="572"/>
  <unicode hex="003E"/>
  <outline>
    <contour>
      <point x="321" y="257" type="line"/>
      <point x="99" y="61" type="line"/>
      <point x="107" y="28"/>
      <point x="131" y="6"/>
      <point x="162" y="6" type="curve" smooth="yes"/>
      <point x="186" y="6"/>
      <point x="209" y="16"/>
      <point x="231" y="34" type="curve" smooth="yes"/>
      <point x="497" y="250" type="line"/>
    </contour>
    <contour>
      <point x="497" y="250" type="line"/>
      <point x="274" y="484" type="line"/>
      <point x="215" y="482"/>
      <point x="190" y="438"/>
      <point x="190" y="406" type="curve" smooth="yes"/>
      <point x="190" y="392"/>
      <point x="194" y="379"/>
      <point x="202" y="371" type="curve" smooth="yes"/>
      <point x="332" y="237" type="line"/>
    </contour>
  </outline>
</glyph>
<glyph name="question" format="1">
  <advance width="498"/>
  <unicode hex="003F"/>
  <outline>
    <contour>
      <point x="528" y="649"/>
      <point x="432" y="680"/>
      <point x="308" y="680" type="curve" smooth="yes"/>
      <point x="200" y="680"/>
      <point x="49" y="650"/>
      <point x="49" y="550" type="curve" smooth="yes"/>
      <point x="49" y="489"/>
      <point x="104" y="473"/>
      <point x="161" y="473" type="curve" smooth="yes"/>
      <point x="181" y="473"/>
      <point x="208" y="475"/>
      <point x="223" y="479" type="curve"/>
      <point x="216" y="494"/>
      <point x="214" y="511"/>
      <point x="214" y="524" type="curve" smooth="yes"/>
      <point x="214" y="579"/>
      <point x="247" y="620"/>
      <point x="299" y="620" type="curve" smooth="yes"/>
      <point x="333" y="620"/>
      <point x="345" y="602"/>
      <point x="345" y="573" type="curve" smooth="yes"/>
      <point x="345" y="435"/>
      <point x="103" y="423"/>
      <point x="103" y="267" type="curve" smooth="yes"/>
      <point x="103" y="216"/>
      <point x="132" y="179"/>
      <point x="170" y="179" type="curve"/>
      <point x="170" y="296"/>
      <point x="528" y="366"/>
      <point x="528" y="555" type="curve" smooth="yes"/>
    </contour>
    <component base="period" xOffset="70"/>
  </outline>
</glyph>
<glyph name="at" format="1">
  <advance width="792"/>
  <unicode hex="0040"/>
  <outline>
    <contour>
      <point x="597" y="448" type="line"/>
      <point x="489" y="435" type="line"/>
      <point x="467" y="444"/>
      <point x="448" y="448"/>
      <point x="425" y="448" type="curve" smooth="yes"/>
      <point x="307" y="448"/>
      <point x="225" y="343"/>
      <point x="225" y="214" type="curve" smooth="yes"/>
      <point x="225" y="115"/>
      <point x="273" y="66"/>
      <point x="349" y="66" type="curve" smooth="yes"/>
      <point x="407" y="66"/>
      <point x="447" y="94"/>
      <point x="466" y="135" type="curve"/>
      <point x="476" y="86"/>
      <point x="516" y="66"/>
      <point x="566" y="66" type="curve" smooth="yes"/>
      <point x="681" y="66"/>
      <point x="780" y="172"/>
      <point x="780" y="329" type="curve" smooth="yes"/>
      <point x="780" y="508"/>
      <point x="650" y="601"/>
      <point x="485" y="601" type="curve" smooth="yes"/>
      <point x="241" y="601"/>
      <point x="32" y="397"/>
      <point x="32" y="167" type="curve" smooth="yes"/>
      <point x="32" y="-14"/>
      <point x="162" y="-98"/>
      <point x="345" y="-98" type="curve" smooth="yes"/>
      <point x="461" y="-98"/>
      <point x="572" y="-64"/>
      <point x="572" y="-1" type="curve" smooth="yes"/>
      <point x="572" y="12"/>
      <point x="567" y="22"/>
      <point x="558" y="29" type="curve"/>
      <point x="513" y="-4"/>
      <point x="456" y="-20"/>
      <point x="379" y="-20" type="curve" smooth="yes"/>
      <point x="241" y="-20"/>
      <point x="143" y="32"/>
      <point x="143" y="187" type="curve" smooth="yes"/>
      <point x="143" y="358"/>
      <point x="261" y="530"/>
      <point x="461" y="530" type="curve" smooth="yes"/>
      <point x="590" y="530"/>
      <point x="676" y="459"/>
      <point x="676" y="313" type="curve" smooth="yes"/>
      <point x="676" y="201"/>
      <point x="626" y="121"/>
      <point x="577" y="121" type="curve" smooth="yes"/>
      <point x="555" y="121"/>
      <point x="550" y="138"/>
      <point x="550" y="156" type="curve" smooth="yes"/>
      <point x="550" y="170"/>
      <point x="553" y="188"/>
      <point x="555" y="198" type="curve" smooth="yes"/>
    </contour>
    <contour>
      <point x="427" y="191" type="line" smooth="yes"/>
      <point x="419" y="148"/>
      <point x="398" y="119"/>
      <point x="371" y="119" type="curve" smooth="yes"/>
      <point x="349" y="119"/>
      <point x="347" y="139"/>
      <point x="347" y="167" type="curve" smooth="yes"/>
      <point x="347" y="291"/>
      <point x="386" y="411"/>
      <point x="437" y="411" type="curve" smooth="yes"/>
      <point x="447" y="411"/>
      <point x="460" y="406"/>
      <point x="466" y="401" type="curve"/>
    </contour>
  </outline>
</glyph>
<glyph name="A" format="1">
  <advance width="589"/>
  <unicode hex="0041"/>
  <outline>
    <contour>
      <point x="255" y="660" type="line"/>
      <point x="-60" y="0" type="line"/>
      <point x="80" y="0" type="line"/>
      <point x="96" y="48"/>
      <point x="115" y="99"/>
      <point x="140" y="160" type="curve"/>
      <point x="313" y="160" type="line"/>
      <point x="317" y="129"/>
      <point x="319" y="114"/>
      <point x="324" y="93" type="curve" smooth="yes"/>
      <point x="341" y="23"/>
      <point x="376" y="-20"/>
      <point x="451" y="-20" type="curve" smooth="yes"/>
      <point x="505" y="-20"/>
      <point x="547" y="3"/>
      <point x="565" y="40" type="curve"/>
      <point x="530" y="61"/>
      <point x="516" y="117"/>
      <point x="512" y="174" type="curve" smooth="yes"/>
      <point x="480" y="660" type="line"/>
    </contour>
    <contour>
      <point x="309" y="239" type="line"/>
      <point x="171" y="239" type="line"/>
      <point x="204" y="316"/>
      <point x="241" y="404"/>
      <point x="294" y="519" type="curve"/>
    </contour>
    <contour>
      <point x="541" y="10" type="move" name="ogonek"/>
    </contour>
    <contour>
      <point x="364" y="660" type="move" name="top"/>
    </contour>
  </outline>
</glyph>
<glyph name="B" format="1">
  <advance width="601"/>
  <unicode hex="0042"/>
  <outline>
    <contour>
      <point x="-6" y="0" type="line"/>
      <point x="85" y="-4"/>
      <point x="162" y="-5"/>
      <point x="191" y="-5" type="curve" smooth="yes"/>
      <point x="420" y="-5"/>
      <point x="575" y="56"/>
      <point x="575" y="222" type="curve" smooth="yes"/>
      <point x="575" y="328"/>
      <point x="511" y="361"/>
      <point x="455" y="373" type="curve"/>
      <point x="528" y="398"/>
      <point x="587" y="453"/>
      <point x="587" y="533" type="curve" smooth="yes"/>
      <point x="587" y="656"/>
      <point x="449" y="665"/>
      <point x="316" y="665" type="curve" smooth="yes"/>
      <point x="254" y="665"/>
      <point x="195" y="663"/>
      <point x="120" y="660" type="curve"/>
    </contour>
    <contour>
      <point x="319" y="599" type="line"/>
      <point x="326" y="600"/>
      <point x="332" y="600"/>
      <point x="338" y="600" type="curve" smooth="yes"/>
      <point x="394" y="600"/>
      <point x="418" y="575"/>
      <point x="418" y="517" type="curve" smooth="yes"/>
      <point x="418" y="449"/>
      <point x="385" y="385"/>
      <point x="287" y="385" type="curve" smooth="yes"/>
      <point x="284" y="385"/>
      <point x="280" y="385"/>
      <point x="277" y="385" type="curve"/>
    </contour>
    <contour>
      <point x="264" y="317" type="line"/>
      <point x="338" y="313"/>
      <point x="379" y="289"/>
      <point x="379" y="213" type="curve" smooth="yes"/>
      <point x="379" y="141"/>
      <point x="343" y="67"/>
      <point x="236" y="67" type="curve" smooth="yes"/>
      <point x="232" y="67"/>
      <point x="225" y="67"/>
      <point x="216" y="68" type="curve"/>
    </contour>
  </outline>
</glyph>
<glyph name="C" format="1">
  <advance width="605"/>
  <unicode hex="0043"/>
  <outline>
    <contour>
      <point x="166" y="680"/>
      <point x="21" y="491"/>
      <point x="21" y="254" type="curve" smooth="yes"/>
      <point x="21" y="68"/>
      <point x="110" y="-20"/>
      <point x="287" y="-20" type="curve" smooth="yes"/>
      <point x="451" y="-20"/>
      <point x="557" y="56"/>
      <point x="557" y="142" type="curve" smooth="yes"/>
      <point x="557" y="159"/>
      <point x="553" y="191"/>
      <point x="531" y="207" type="curve"/>
      <point x="494" y="160"/>
      <point x="435" y="133"/>
      <point x="366" y="133" type="curve" smooth="yes"/>
      <point x="276" y="133"/>
      <point x="237" y="180"/>
      <point x="237" y="272" type="curve" smooth="yes"/>
      <point x="237" y="383"/>
      <point x="294" y="609"/>
      <point x="396" y="609" type="curve" smooth="yes"/>
      <point x="447" y="609"/>
      <point x="451" y="554"/>
      <point x="451" y="518" type="curve" smooth="yes"/>
      <point x="451" y="486"/>
      <point x="448" y="462"/>
      <point x="444" y="441" type="curve"/>
      <point x="458" y="436"/>
      <point x="476" y="434"/>
      <point x="490" y="434" type="curve" smooth="yes"/>
      <point x="562" y="434"/>
      <point x="626" y="484"/>
      <point x="626" y="559" type="curve" smooth="yes"/>
      <point x="626" y="654"/>
      <point x="521" y="680"/>
      <point x="425" y="680" type="curve" smooth="yes"/>
    </contour>
    <contour>
      <point x="411" y="660" type="move" name="top"/>
    </contour>
    <contour>
      <point x="302" y="0" type="move" name="bottom"/>
    </contour>
  </outline>
</glyph>
<glyph name="D" format="1">
  <advance width="676"/>
  <unicode hex="0044"/>
  <outline>
    <contour>
      <point x="-7" y="0" type="line"/>
      <point x="44" y="-3"/>
      <point x="145" y="-5"/>
      <point x="182" y="-5" type="curve" smooth="yes"/>
      <point x="485" y="-5"/>
      <point x="653" y="127"/>
      <point x="653" y="400" type="curve" smooth="yes"/>
      <point x="653" y="617"/>
      <point x="546" y="665"/>
      <point x="301" y="665" type="curve" smooth="yes"/>
      <point x="266" y="665"/>
      <point x="186" y="664"/>
      <point x="120" y="660" type="curve"/>
    </contour>
    <contour>
      <point x="319" y="591" type="line"/>
      <point x="332" y="593"/>
      <point x="347" y="594"/>
      <point x="360" y="594" type="curve" smooth="yes"/>
      <point x="429" y="594"/>
      <point x="457" y="566"/>
      <point x="457" y="495" type="curve" smooth="yes"/>
      <point x="457" y="459"/>
      <point x="450" y="395"/>
      <point x="439" y="333" type="curve" smooth="yes"/>
      <point x="410" y="171"/>
      <point x="361" y="67"/>
      <point x="252" y="67" type="curve" smooth="yes"/>
      <point x="241" y="67"/>
      <point x="231" y="68"/>
      <point x="218" y="70" type="curve"/>
    </contour>
    <contour>
      <point x="338" y="330" type="move" name="center"/>
    </contour>
    <contour>
      <point x="262" y="0" type="move" name="bottom"/>
    </contour>
    <contour>
      <point x="371" y="660" type="move" name="top"/>
    </contour>
  </outline>
</glyph>
<glyph name="E" format="1">
  <advance width="497"/>
  <unicode hex="0045"/>
  <outline>
    <contour>
      <point x="120" y="660" type="line"/>
      <point x="-3" y="0" type="line"/>
      <point x="312" y="0" type="line" smooth="yes"/>
      <point x="373" y="0"/>
      <point x="437" y="13"/>
      <point x="437" y="75" type="curve" smooth="yes"/>
      <point x="437" y="91"/>
      <point x="433" y="117"/>
      <point x="423" y="130" type="curve"/>
      <point x="404" y="124"/>
      <point x="369" y="120"/>
      <point x="324" y="120" type="curve" smooth="yes"/>
      <point x="235" y="120" type="line"/>
      <point x="268" y="298" type="line"/>
      <point x="272" y="294"/>
      <point x="314" y="275"/>
      <point x="361" y="275" type="curve" smooth="yes"/>
      <point x="430" y="275"/>
      <point x="464" y="317"/>
      <point x="464" y="387" type="curve"/>
      <point x="286" y="387" type="line"/>
      <point x="317" y="562" type="line"/>
      <point x="334" y="554"/>
      <point x="380" y="535"/>
      <point x="433" y="535" type="curve" smooth="yes"/>
      <point x="513" y="535"/>
      <point x="551" y="579"/>
      <point x="551" y="660" type="curve"/>
    </contour>
    <contour>
      <point x="386" y="10" type="move" name="ogonek"/>
    </contour>
    <contour>
      <point x="220" y="0" type="move" name="bottom"/>
    </contour>
    <contour>
      <point x="341" y="660" type="move" name="top"/>
    </contour>
  </outline>
</glyph>
<glyph name="F" format="1">
  <advance width="511"/>
  <unicode hex="0046"/>
  <outline>
    <contour>
      <point x="120" y="660" type="line"/>
      <point x="-3" y="0" type="line"/>
      <point x="215" y="0" type="line"/>
      <point x="268" y="299" type="line"/>
      <point x="283" y="292"/>
      <point x="326" y="275"/>
      <point x="371" y="275" type="curve" smooth="yes"/>
      <point x="451" y="275"/>
      <point x="480" y="327"/>
      <point x="480" y="395" type="curve"/>
      <point x="287" y="395" type="line"/>
      <point x="317" y="557" type="line"/>
      <point x="347" y="543"/>
      <point x="404" y="530"/>
      <point x="449" y="530" type="curve" smooth="yes"/>
      <point x="535" y="530"/>
      <point x="564" y="577"/>
      <point x="564" y="660" type="curve"/>
    </contour>
  </outline>
</glyph>
<glyph name="G" format="1">
  <advance width="641"/>
  <unicode hex="0047"/>
  <outline>
    <contour>
      <point x="432" y="322" type="line"/>
      <point x="400" y="121" type="line"/>
      <point x="387" y="105"/>
      <point x="356" y="99"/>
      <point x="335" y="99" type="curve" smooth="yes"/>
      <point x="252" y="99"/>
      <point x="236" y="194"/>
      <point x="236" y="264" type="curve" smooth="yes"/>
      <point x="236" y="405"/>
      <point x="302" y="609"/>
      <point x="401" y="609" type="curve" smooth="yes"/>
      <point x="453" y="609"/>
      <point x="456" y="552"/>
      <point x="456" y="519" type="curve" smooth="yes"/>
      <point x="456" y="485"/>
      <point x="453" y="462"/>
      <point x="449" y="441" type="curve"/>
      <point x="463" y="436"/>
      <point x="481" y="434"/>
      <point x="495" y="434" type="curve" smooth="yes"/>
      <point x="567" y="434"/>
      <point x="631" y="484"/>
      <point x="631" y="559" type="curve" smooth="yes"/>
      <point x="631" y="655"/>
      <point x="524" y="680"/>
      <point x="428" y="680" type="curve" smooth="yes"/>
      <point x="168" y="680"/>
      <point x="21" y="495"/>
      <point x="21" y="251" type="curve" smooth="yes"/>
      <point x="21" y="87"/>
      <point x="88" y="-20"/>
      <point x="237" y="-20" type="curve" smooth="yes"/>
      <point x="293" y="-20"/>
      <point x="358" y="-5"/>
      <point x="401" y="36" type="curve"/>
      <point x="406" y="12"/>
      <point x="443" y="-20"/>
      <point x="500" y="-20" type="curve" smooth="yes"/>
      <point x="525" y="-20"/>
      <point x="543" y="-14"/>
      <point x="562" y="-1" type="curve"/>
      <point x="562" y="118"/>
      <point x="586" y="235"/>
      <point x="634" y="340" type="curve"/>
    </contour>
    <contour>
      <point x="427" y="660" type="move" name="top"/>
    </contour>
    <contour>
      <point x="293" y="0" type="move" name="bottom"/>
    </contour>
  </outline>
</glyph>
<glyph name="H" format="1">
  <advance width="680"/>
  <unicode hex="0048"/>
  <outline>
    <contour>
      <point x="476" y="660" type="line"/>
      <point x="421" y="365" type="line"/>
      <point x="273" y="365" type="line"/>
      <point x="331" y="660" type="line"/>
      <point x="120" y="660" type="line"/>
      <point x="-7" y="0" type="line"/>
      <point x="202" y="0" type="line"/>
      <point x="257" y="285" type="line"/>
      <point x="406" y="285" type="line"/>
      <point x="387" y="169" type="line" smooth="yes"/>
      <point x="381" y="130"/>
      <point x="377" y="99"/>
      <point x="377" y="79" type="curve" smooth="yes"/>
      <point x="377" y="21"/>
      <point x="409" y="-20"/>
      <point x="482" y="-20" type="curve" smooth="yes"/>
      <point x="520" y="-20"/>
      <point x="563" y="-9"/>
      <point x="596" y="14" type="curve"/>
      <point x="589" y="26"/>
      <point x="583" y="51"/>
      <point x="583" y="77" type="curve" smooth="yes"/>
      <point x="583" y="99"/>
      <point x="587" y="132"/>
      <point x="592" y="160" type="curve" smooth="yes"/>
      <point x="687" y="660" type="line"/>
    </contour>
    <contour>
      <point x="340" y="330" type="move" name="center"/>
    </contour>
    <contour>
      <point x="291" y="0" type="move" name="bottom"/>
    </contour>
    <contour>
      <point x="405" y="660" type="move" name="top"/>
    </contour>
  </outline>
</glyph>
<glyph name="I" format="1">
  <advance width="336"/>
  <unicode hex="0049"/>
  <outline>
    <contour>
      <point x="120" y="660" type="line"/>
      <point x="-7" y="0" type="line"/>
      <point x="211" y="0" type="line"/>
      <point x="340" y="660" type="line"/>
    </contour>
    <contour>
      <point x="213" y="10" type="move" name="ogonek"/>
    </contour>
    <contour>
      <point x="98" y="0" type="move" name="bottom"/>
    </contour>
    <contour>
      <point x="234" y="660" type="move" name="top"/>
    </contour>
  </outline>
</glyph>
<glyph name="J" format="1">
  <advance width="336"/>
  <unicode hex="004A"/>
  <outline>
    <contour>
      <point x="122" y="660" type="line"/>
      <point x="25" y="155" type="line" smooth="yes"/>
      <point x="-19" y="-72"/>
      <point x="-46" y="-107"/>
      <point x="-121" y="-138" type="curve"/>
      <point x="-106" y="-173"/>
      <point x="-63" y="-190"/>
      <point x="-7" y="-190" type="curve" smooth="yes"/>
      <point x="123" y="-190"/>
      <point x="194" y="-98"/>
      <point x="242" y="155" type="curve" smooth="yes"/>
      <point x="339" y="660" type="line"/>
    </contour>
    <contour>
      <point x="231" y="660" type="move" name="top"/>
    </contour>
  </outline>
</glyph>
<glyph name="K" format="1">
  <advance width="642"/>
  <unicode hex="004B"/>
  <outline>
    <contour>
      <point x="120" y="660" type="line"/>
      <point x="108" y="604"/>
      <point x="40" y="244"/>
      <point x="-5" y="0" type="curve"/>
      <point x="208" y="0" type="line"/>
      <point x="334" y="660" type="line"/>
    </contour>
    <contour>
      <point x="535" y="660" type="line"/>
      <point x="292" y="328" type="line"/>
      <point x="332" y="126"/>
      <point x="371" y="-20"/>
      <point x="512" y="-20" type="curve" smooth="yes"/>
      <point x="571" y="-20"/>
      <point x="614" y="6"/>
      <point x="631" y="59" type="curve"/>
      <point x="570" y="91"/>
      <point x="517" y="189"/>
      <point x="475" y="336" type="curve"/>
      <point x="500" y="367"/>
      <point x="592" y="486"/>
      <point x="754" y="660" type="curve"/>
    </contour>
    <contour>
      <point x="410" y="660" type="move" name="top"/>
    </contour>
    <contour>
      <point x="295" y="0" type="move" name="bottom"/>
    </contour>
  </outline>
</glyph>
<glyph name="L" format="1">
  <advance width="443"/>
  <unicode hex="004C"/>
  <outline>
    <contour>
      <point x="319" y="0" type="line" smooth="yes"/>
      <point x="382" y="0"/>
      <point x="443" y="12"/>
      <point x="443" y="75" type="curve" smooth="yes"/>
      <point x="443" y="91"/>
      <point x="439" y="117"/>
      <point x="429" y="130" type="curve"/>
      <point x="410" y="124"/>
      <point x="375" y="120"/>
      <point x="330" y="120" type="curve" smooth="yes"/>
      <point x="241" y="120" type="line"/>
      <point x="339" y="660" type="line"/>
      <point x="120" y="660" type="line"/>
      <point x="-1" y="0" type="line"/>
    </contour>
    <contour>
      <point x="389" y="329" type="move" name="center"/>
    </contour>
    <contour>
      <point x="399" y="508" type="move" name="caron"/>
    </contour>
    <contour>
      <point x="225" y="660" type="move" name="top"/>
    </contour>
    <contour>
      <point x="194" y="0" type="move" name="bottom"/>
    </contour>
  </outline>
</glyph>
<glyph name="M" format="1">
  <advance width="812"/>
  <unicode hex="004D"/>
  <outline>
    <contour>
      <point x="418" y="290" type="line"/>
      <point x="349" y="660" type="line"/>
      <point x="140" y="660" type="line"/>
      <point x="-21" y="0" type="line"/>
      <point x="94" y="0" type="line"/>
      <point x="191" y="449" type="line"/>
      <point x="273" y="0" type="line"/>
      <point x="390" y="0" type="line"/>
      <point x="590" y="449" type="line"/>
      <point x="563" y="139" type="line" smooth="yes"/>
      <point x="562" y="126"/>
      <point x="561" y="105"/>
      <point x="561" y="93" type="curve" smooth="yes"/>
      <point x="561" y="21"/>
      <point x="594" y="-20"/>
      <point x="666" y="-20" type="curve" smooth="yes"/>
      <point x="723" y="-20"/>
      <point x="769" y="2"/>
      <point x="787" y="33" type="curve"/>
      <point x="761" y="51"/>
      <point x="755" y="84"/>
      <point x="755" y="124" type="curve" smooth="yes"/>
      <point x="755" y="135"/>
      <point x="756" y="164"/>
      <point x="757" y="176" type="curve" smooth="yes"/>
      <point x="789" y="660" type="line"/>
      <point x="588" y="660" type="line"/>
    </contour>
  </outline>
</glyph>
<glyph name="N" format="1">
  <advance width="687"/>
  <unicode hex="004E"/>
  <outline>
    <contour>
      <point x="190" y="437" type="line"/>
      <point x="334" y="0" type="line"/>
      <point x="563" y="0" type="line"/>
      <point x="685" y="660" type="line"/>
      <point x="567" y="660" type="line"/>
      <point x="491" y="206" type="line"/>
      <point x="335" y="660" type="line"/>
      <point x="120" y="660" type="line"/>
      <point x="0" y="0" type="line"/>
      <point x="117" y="0" type="line"/>
    </contour>
    <contour>
      <point x="412" y="660" type="move" name="top"/>
    </contour>
    <contour>
      <point x="311" y="0" type="move" name="bottom"/>
    </contour>
  </outline>
</glyph>
<glyph name="O" format="1">
  <advance width="690"/>
  <unicode hex="004F"/>
  <outline>
    <contour>
      <point x="157" y="680"/>
      <point x="22" y="487"/>
      <point x="22" y="257" type="curve" smooth="yes"/>
      <point x="22" y="67"/>
      <point x="114" y="-20"/>
      <point x="282" y="-20" type="curve" smooth="yes"/>
      <point x="533" y="-20"/>
      <point x="668" y="173"/>
      <point x="668" y="403" type="curve" smooth="yes"/>
      <point x="668" y="593"/>
      <point x="576" y="680"/>
      <point x="408" y="680" type="curve" smooth="yes"/>
    </contour>
    <contour>
      <point x="442" y="610"/>
      <point x="450" y="572"/>
      <point x="450" y="524" type="curve" smooth="yes"/>
      <point x="450" y="476"/>
      <point x="442" y="401"/>
      <point x="435" y="349" type="curve" smooth="yes"/>
      <point x="407" y="140"/>
      <point x="365" y="51"/>
      <point x="294" y="51" type="curve" smooth="yes"/>
      <point x="248" y="51"/>
      <point x="240" y="89"/>
      <point x="240" y="137" type="curve" smooth="yes"/>
      <point x="240" y="185"/>
      <point x="248" y="260"/>
      <point x="255" y="312" type="curve" smooth="yes"/>
      <point x="283" y="521"/>
      <point x="325" y="610"/>
      <point x="396" y="610" type="curve" smooth="yes"/>
    </contour>
    <contour>
      <point x="437" y="10" type="move" name="ogonek"/>
    </contour>
    <contour>
      <point x="301" y="0" type="move" name="bottom"/>
    </contour>
    <contour>
      <point x="404" y="660" type="move" name="top"/>
    </contour>
  </outline>
</glyph>
<glyph name="P" format="1">
  <advance width="623"/>
  <unicode hex="0050"/>
  <outline>
    <contour>
      <point x="325" y="597" type="line"/>
      <point x="334" y="599"/>
      <point x="352" y="600"/>
      <point x="364" y="600" type="curve" smooth="yes"/>
      <point x="428" y="600"/>
      <point x="461" y="572"/>
      <point x="461" y="500" type="curve" smooth="yes"/>
      <point x="461" y="415"/>
      <point x="414" y="346"/>
      <point x="333" y="333" type="curve"/>
      <point x="322" y="330"/>
      <point x="310" y="329"/>
      <point x="297" y="329" type="curve"/>
      <point x="313" y="285"/>
      <point x="364" y="271"/>
      <point x="419" y="271" type="curve" smooth="yes"/>
      <point x="551" y="271"/>
      <point x="654" y="351"/>
      <point x="654" y="491" type="curve" smooth="yes"/>
      <point x="654" y="647"/>
      <point x="527" y="666"/>
      <point x="304" y="666" type="curve" smooth="yes"/>
      <point x="215" y="666"/>
      <point x="205" y="663"/>
      <point x="120" y="660" type="curve"/>
      <point x="-6" y="0" type="line"/>
      <point x="211" y="0" type="line"/>
    </contour>
  </outline>
</glyph>
<glyph name="Q" format="1">
  <advance width="692"/>
  <unicode hex="0051"/>
  <outline>
    <contour>
      <point x="179" y="680"/>
      <point x="29" y="497"/>
      <point x="29" y="278" type="curve" smooth="yes"/>
      <point x="29" y="153"/>
      <point x="78" y="83"/>
      <point x="186" y="83" type="curve" smooth="yes"/>
      <point x="253" y="83"/>
      <point x="293" y="110"/>
      <point x="293" y="150" type="curve"/>
      <point x="251" y="153"/>
      <point x="246" y="194"/>
      <point x="246" y="228" type="curve" smooth="yes"/>
      <point x="246" y="277"/>
      <point x="256" y="340"/>
      <point x="270" y="397" type="curve" smooth="yes"/>
      <point x="297" y="508"/>
      <point x="343" y="610"/>
      <point x="408" y="610" type="curve" smooth="yes"/>
      <point x="449" y="610"/>
      <point x="457" y="568"/>
      <point x="457" y="517" type="curve" smooth="yes"/>
      <point x="457" y="476"/>
      <point x="452" y="413"/>
      <point x="442" y="349" type="curve" smooth="yes"/>
      <point x="404" y="103"/>
      <point x="324" y="49"/>
      <point x="236" y="38" type="curve" smooth="yes"/>
      <point x="137" y="26"/>
      <point x="75" y="17"/>
      <point x="75" y="-61" type="curve" smooth="yes"/>
      <point x="75" y="-91"/>
      <point x="84" y="-115"/>
      <point x="105" y="-140" type="curve"/>
      <point x="132" y="-122"/>
      <point x="164" y="-115"/>
      <point x="197" y="-115" type="curve" smooth="yes"/>
      <point x="301" y="-115"/>
      <point x="365" y="-184"/>
      <point x="487" y="-184" type="curve" smooth="yes"/>
      <point x="552" y="-184"/>
      <point x="630" y="-156"/>
      <point x="630" y="-66" type="curve" smooth="yes"/>
      <point x="630" y="-45"/>
      <point x="626" y="-21"/>
      <point x="618" y="-6" type="curve"/>
      <point x="582" y="-26"/>
      <point x="530" y="-37"/>
      <point x="476" y="-37" type="curve" smooth="yes"/>
      <point x="410" y="-37"/>
      <point x="365" y="-25"/>
      <point x="330" y="-13" type="curve"/>
      <point x="518" y="6"/>
      <point x="675" y="194"/>
      <point x="675" y="406" type="curve" smooth="yes"/>
      <point x="675" y="591"/>
      <point x="583" y="680"/>
      <point x="417" y="680" type="curve" smooth="yes"/>
    </contour>
  </outline>
</glyph>
<glyph name="R" format="1">
  <advance width="641"/>
  <unicode hex="0052"/>
  <outline>
    <contour>
      <point x="-3" y="0" type="line"/>
      <point x="211" y="0" type="line"/>
      <point x="326" y="599" type="line"/>
      <point x="333" y="600"/>
      <point x="345" y="600"/>
      <point x="362" y="600" type="curve" smooth="yes"/>
      <point x="425" y="600"/>
      <point x="447" y="563"/>
      <point x="447" y="497" type="curve" smooth="yes"/>
      <point x="447" y="394"/>
      <point x="393" y="341"/>
      <point x="299" y="341" type="curve" smooth="yes"/>
      <point x="297" y="341"/>
      <point x="294" y="341"/>
      <point x="292" y="341" type="curve"/>
      <point x="333" y="130"/>
      <point x="365" y="-20"/>
      <point x="507" y="-20" type="curve" smooth="yes"/>
      <point x="566" y="-20"/>
      <point x="607" y="6"/>
      <point x="625" y="59" type="curve"/>
      <point x="568" y="84"/>
      <point x="518" y="168"/>
      <point x="479" y="292" type="curve"/>
      <point x="576" y="313"/>
      <point x="641" y="386"/>
      <point x="641" y="495" type="curve" smooth="yes"/>
      <point x="641" y="647"/>
      <point x="515" y="665"/>
      <point x="350" y="665" type="curve" smooth="yes"/>
      <point x="282" y="665"/>
      <point x="212" y="662"/>
      <point x="120" y="660" type="curve"/>
    </contour>
    <contour>
      <point x="369" y="660" type="move" name="top"/>
    </contour>
    <contour>
      <point x="299" y="0" type="move" name="bottom"/>
    </contour>
  </outline>
</glyph>
<glyph name="S" format="1">
  <advance width="580"/>
  <unicode hex="0053"/>
  <outline>
    <contour>
      <point x="202" y="680"/>
      <point x="63" y="587"/>
      <point x="63" y="446" type="curve" smooth="yes"/>
      <point x="63" y="356"/>
      <point x="119" y="309"/>
      <point x="180" y="271" type="curve" smooth="yes"/>
      <point x="246" y="230"/>
      <point x="324" y="196"/>
      <point x="324" y="131" type="curve" smooth="yes"/>
      <point x="324" y="80"/>
      <point x="276" y="48"/>
      <point x="226" y="48" type="curve" smooth="yes"/>
      <point x="181" y="48"/>
      <point x="169" y="75"/>
      <point x="169" y="119" type="curve" smooth="yes"/>
      <point x="169" y="148"/>
      <point x="174" y="178"/>
      <point x="185" y="206" type="curve"/>
      <point x="161" y="215"/>
      <point x="135" y="219"/>
      <point x="114" y="219" type="curve" smooth="yes"/>
      <point x="40" y="219"/>
      <point x="-2" y="170"/>
      <point x="-2" y="105" type="curve" smooth="yes"/>
      <point x="-2" y="-1"/>
      <point x="109" y="-20"/>
      <point x="191" y="-20" type="curve" smooth="yes"/>
      <point x="365" y="-20"/>
      <point x="527" y="67"/>
      <point x="527" y="214" type="curve" smooth="yes"/>
      <point x="527" y="301"/>
      <point x="469" y="346"/>
      <point x="408" y="382" type="curve" smooth="yes"/>
      <point x="337" y="424"/>
      <point x="261" y="453"/>
      <point x="261" y="518" type="curve" smooth="yes"/>
      <point x="261" y="569"/>
      <point x="309" y="617"/>
      <point x="361" y="617" type="curve" smooth="yes"/>
      <point x="403" y="617"/>
      <point x="418" y="585"/>
      <point x="418" y="540" type="curve" smooth="yes"/>
      <point x="418" y="517"/>
      <point x="414" y="486"/>
      <point x="403" y="462" type="curve"/>
      <point x="420" y="456"/>
      <point x="441" y="452"/>
      <point x="461" y="452" type="curve" smooth="yes"/>
      <point x="521" y="452"/>
      <point x="582" y="486"/>
      <point x="582" y="560" type="curve" smooth="yes"/>
      <point x="582" y="658"/>
      <point x="475" y="680"/>
      <point x="386" y="680" type="curve" smooth="yes"/>
    </contour>
    <contour>
      <point x="387" y="660" type="move" name="top"/>
    </contour>
    <contour>
      <point x="232" y="0" type="move" name="bottom"/>
    </contour>
  </outline>
</glyph>
<glyph name="T" format="1">
  <advance width="456"/>
  <unicode hex="0054"/>
  <outline>
    <contour>
      <point x="122" y="660" type="line" smooth="yes"/>
      <point x="61" y="660"/>
      <point x="22" y="640"/>
      <point x="22" y="578" type="curve" smooth="yes"/>
      <point x="22" y="568"/>
      <point x="23" y="548"/>
      <point x="26" y="536" type="curve"/>
      <point x="47" y="539"/>
      <point x="68" y="540"/>
      <point x="95" y="540" type="curve" smooth="yes"/>
      <point x="160" y="540" type="line"/>
      <point x="107" y="285" type="line" smooth="yes"/>
      <point x="85" y="179"/>
      <point x="78" y="116"/>
      <point x="78" y="82" type="curve" smooth="yes"/>
      <point x="78" y="19"/>
      <point x="110" y="-20"/>
      <point x="183" y="-20" type="curve" smooth="yes"/>
      <point x="222" y="-20"/>
      <point x="264" y="-9"/>
      <point x="297" y="14" type="curve"/>
      <point x="290" y="26"/>
      <point x="284" y="51"/>
      <point x="284" y="77" type="curve" smooth="yes"/>
      <point x="284" y="99"/>
      <point x="288" y="132"/>
      <point x="293" y="160" type="curve" smooth="yes"/>
      <point x="368" y="540" type="line"/>
      <point x="418" y="540" type="line" smooth="yes"/>
      <point x="479" y="540"/>
      <point x="529" y="552"/>
      <point x="529" y="613" type="curve" smooth="yes"/>
      <point x="529" y="632"/>
      <point x="524" y="657"/>
      <point x="514" y="670" type="curve"/>
      <point x="495" y="664"/>
      <point x="461" y="660"/>
      <point x="416" y="660" type="curve" smooth="yes"/>
    </contour>
    <contour>
      <point x="228" y="330" type="move" name="center"/>
    </contour>
    <contour>
      <point x="171" y="0" type="move" name="bottom"/>
    </contour>
    <contour>
      <point x="282" y="660" type="move" name="top"/>
    </contour>
  </outline>
</glyph>
<glyph name="U" format="1">
  <advance width="646"/>
  <unicode hex="0055"/>
  <outline>
    <contour>
      <point x="505" y="660" type="line"/>
      <point x="426" y="244" type="line" smooth="yes"/>
      <point x="407" y="145"/>
      <point x="386" y="72"/>
      <point x="310" y="72" type="curve" smooth="yes"/>
      <point x="268" y="72"/>
      <point x="248" y="95"/>
      <point x="248" y="143" type="curve" smooth="yes"/>
      <point x="248" y="169"/>
      <point x="254" y="213"/>
      <point x="260" y="244" type="curve" smooth="yes"/>
      <point x="338" y="660" type="line"/>
      <point x="117" y="660" type="line"/>
      <point x="39" y="257" type="line" smooth="yes"/>
      <point x="32" y="222"/>
      <point x="26" y="171"/>
      <point x="26" y="142" type="curve" smooth="yes"/>
      <point x="26" y="22"/>
      <point x="132" y="-20"/>
      <point x="262" y="-20" type="curve" smooth="yes"/>
      <point x="451" y="-20"/>
      <point x="544" y="69"/>
      <point x="579" y="255" type="curve" smooth="yes"/>
      <point x="656" y="660" type="line"/>
    </contour>
    <contour>
      <point x="419" y="10" type="move" name="ogonek"/>
    </contour>
    <contour>
      <point x="281" y="0" type="move" name="bottom"/>
    </contour>
    <contour>
      <point x="409" y="660" type="move" name="top"/>
    </contour>
  </outline>
</glyph>
<glyph name="V" format="1">
  <advance width="541"/>
  <unicode hex="0056"/>
  <outline>
    <contour>
      <point x="90" y="0" type="line"/>
      <point x="324" y="0" type="line"/>
      <point x="635" y="660" type="line"/>
      <point x="512" y="660" type="line"/>
      <point x="273" y="123" type="line"/>
      <point x="273" y="470" type="line" smooth="yes"/>
      <point x="273" y="594"/>
      <point x="251" y="680"/>
      <point x="128" y="680" type="curve" smooth="yes"/>
      <point x="68" y="680"/>
      <point x="29" y="660"/>
      <point x="8" y="620" type="curve"/>
      <point x="38" y="596"/>
      <point x="55" y="552"/>
      <point x="60" y="480" type="curve" smooth="yes"/>
    </contour>
  </outline>
</glyph>
<glyph name="W" format="1">
  <advance width="907"/>
  <unicode hex="0057"/>
  <outline>
    <contour>
      <point x="90" y="0" type="line"/>
      <point x="324" y="0" type="line"/>
      <point x="463" y="315" type="line"/>
      <point x="483" y="0" type="line"/>
      <point x="697" y="0" type="line"/>
      <point x="1001" y="660" type="line"/>
      <point x="878" y="660" type="line"/>
      <point x="646" y="123" type="line"/>
      <point x="615" y="660" type="line"/>
      <point x="496" y="660" type="line"/>
      <point x="273" y="123" type="line"/>
      <point x="273" y="470" type="line" smooth="yes"/>
      <point x="273" y="594"/>
      <point x="251" y="680"/>
      <point x="128" y="680" type="curve" smooth="yes"/>
      <point x="68" y="680"/>
      <point x="29" y="660"/>
      <point x="8" y="620" type="curve"/>
      <point x="38" y="596"/>
      <point x="55" y="552"/>
      <point x="60" y="480" type="curve" smooth="yes"/>
    </contour>
    <contour>
      <point x="566" y="660" type="move" name="top"/>
    </contour>
  </outline>
</glyph>
<glyph name="X" format="1">
  <advance width="555"/>
  <unicode hex="0058"/>
  <outline>
    <contour>
      <point x="171" y="321" type="line"/>
      <point x="-68" y="0" type="line"/>
      <point x="64" y="0" type="line"/>
      <point x="213" y="206" type="line"/>
      <point x="244" y="120" type="line" smooth="yes"/>
      <point x="274" y="37"/>
      <point x="311" y="-20"/>
      <point x="399" y="-20" type="curve" smooth="yes"/>
      <point x="453" y="-20"/>
      <point x="511" y="2"/>
      <point x="532" y="52" type="curve"/>
      <point x="503" y="58"/>
      <point x="466" y="103"/>
      <point x="447" y="156" type="curve" smooth="yes"/>
      <point x="384" y="334" type="line"/>
      <point x="626" y="660" type="line"/>
      <point x="494" y="660" type="line"/>
      <point x="343" y="449" type="line"/>
      <point x="301" y="568" type="line" smooth="yes"/>
      <point x="273" y="649"/>
      <point x="240" y="679"/>
      <point x="165" y="679" type="curve" smooth="yes"/>
      <point x="101" y="679"/>
      <point x="57" y="657"/>
      <point x="26" y="623" type="curve"/>
      <point x="59" y="605"/>
      <point x="78" y="578"/>
      <point x="99" y="520" type="curve" smooth="yes"/>
    </contour>
  </outline>
</glyph>
<glyph name="Y" format="1">
  <advance width="550"/>
  <unicode hex="0059"/>
  <outline>
    <contour>
      <point x="315" y="418" type="line" smooth="yes"/>
      <point x="315" y="600"/>
      <point x="269" y="680"/>
      <point x="156" y="680" type="curve" smooth="yes"/>
      <point x="97" y="680"/>
      <point x="52" y="658"/>
      <point x="24" y="623" type="curve"/>
      <point x="92" y="585"/>
      <point x="125" y="520"/>
      <point x="155" y="294" type="curve"/>
      <point x="97" y="0" type="line"/>
      <point x="315" y="0" type="line"/>
      <point x="365" y="255" type="line"/>
      <point x="430" y="438"/>
      <point x="547" y="580"/>
      <point x="652" y="626" type="curve"/>
      <point x="643" y="662"/>
      <point x="616" y="680"/>
      <point x="572" y="680" type="curve" smooth="yes"/>
      <point x="469" y="680"/>
      <point x="395" y="581"/>
      <point x="315" y="346" type="curve"/>
    </contour>
    <contour>
      <point x="365" y="660" type="move" name="top"/>
    </contour>
  </outline>
</glyph>
<glyph name="Z" format="1">
  <advance width="539"/>
  <unicode hex="005A"/>
  <outline>
    <contour>
      <point x="55" y="218" type="line" smooth="yes"/>
      <point x="10" y="181"/>
      <point x="-7" y="144"/>
      <point x="-7" y="104" type="curve" smooth="yes"/>
      <point x="-7" y="62"/>
      <point x="11" y="18"/>
      <point x="32" y="0" type="curve"/>
      <point x="42" y="9"/>
      <point x="56" y="15"/>
      <point x="84" y="15" type="curve" smooth="yes"/>
      <point x="144" y="15"/>
      <point x="233" y="-12"/>
      <point x="327" y="-12" type="curve" smooth="yes"/>
      <point x="453" y="-12"/>
      <point x="490" y="37"/>
      <point x="490" y="112" type="curve" smooth="yes"/>
      <point x="490" y="140"/>
      <point x="485" y="165"/>
      <point x="464" y="192" type="curve"/>
      <point x="436" y="165"/>
      <point x="396" y="161"/>
      <point x="352" y="161" type="curve" smooth="yes"/>
      <point x="299" y="161"/>
      <point x="229" y="167"/>
      <point x="172" y="182" type="curve"/>
      <point x="494" y="443" type="line" smooth="yes"/>
      <point x="539" y="479"/>
      <point x="562" y="513"/>
      <point x="562" y="566" type="curve" smooth="yes"/>
      <point x="562" y="599"/>
      <point x="553" y="634"/>
      <point x="522" y="660" type="curve"/>
      <point x="494" y="653"/>
      <point x="461" y="650"/>
      <point x="435" y="650" type="curve" smooth="yes"/>
      <point x="359" y="650"/>
      <point x="274" y="675"/>
      <point x="200" y="675" type="curve" smooth="yes"/>
      <point x="116" y="675"/>
      <point x="61" y="643"/>
      <point x="61" y="567" type="curve" smooth="yes"/>
      <point x="61" y="533"/>
      <point x="72" y="502"/>
      <point x="88" y="477" type="curve"/>
      <point x="116" y="490"/>
      <point x="158" y="500"/>
      <point x="193" y="500" type="curve" smooth="yes"/>
      <point x="215" y="500"/>
      <point x="255" y="496"/>
      <point x="369" y="479" type="curve"/>
    </contour>
    <contour>
      <point x="311" y="660" type="move" name="top"/>
    </contour>
    <contour>
      <point x="241" y="0" type="move" name="bottom"/>
    </contour>
  </outline>
</glyph>
<glyph name="bracketleft" format="1">
  <advance width="371"/>
  <unicode hex="005B"/>
  <outline>
    <contour>
      <point x="208" y="800" type="line"/>
      <point x="20" y="-200" type="line"/>
      <point x="296" y="-200" type="line"/>
      <point x="297" y="-196"/>
      <point x="297" y="-191"/>
      <point x="297" y="-185" type="curve" smooth="yes"/>
      <point x="297" y="-148"/>
      <point x="273" y="-133"/>
      <point x="213" y="-133" type="curve" smooth="yes"/>
      <point x="183" y="-133" type="line"/>
      <point x="345" y="734" type="line"/>
      <point x="395" y="734" type="line" smooth="yes"/>
      <point x="451" y="734"/>
      <point x="483" y="755"/>
      <point x="491" y="800" type="curve"/>
    </contour>
  </outline>
</glyph>
<glyph name="backslash" format="1">
  <advance width="319"/>
  <unicode hex="005C"/>
  <outline>
    <contour>
      <point x="61" y="-196" type="line"/>
      <point x="63" y="-198"/>
      <point x="90" y="-200"/>
      <point x="110" y="-200" type="curve" smooth="yes"/>
      <point x="184" y="-200"/>
      <point x="208" y="-174"/>
      <point x="212" y="-105" type="curve" smooth="yes"/>
      <point x="258" y="800" type="line"/>
      <point x="255" y="801"/>
      <point x="245" y="803"/>
      <point x="219" y="803" type="curve" smooth="yes"/>
      <point x="127" y="803"/>
      <point x="112" y="777"/>
      <point x="107" y="684" type="curve" smooth="yes"/>
    </contour>
  </outline>
</glyph>
<glyph name="bracketright" format="1">
  <advance width="371"/>
  <unicode hex="005D"/>
  <outline>
    <contour>
      <point x="-21" y="-134" type="line" smooth="yes"/>
      <point x="-77" y="-134"/>
      <point x="-105" y="-155"/>
      <point x="-113" y="-200" type="curve"/>
      <point x="166" y="-200" type="line"/>
      <point x="354" y="800" type="line"/>
      <point x="76" y="800" type="line"/>
      <point x="75" y="796"/>
      <point x="75" y="793"/>
      <point x="75" y="787" type="curve" smooth="yes"/>
      <point x="75" y="747"/>
      <point x="94" y="733"/>
      <point x="151" y="733" type="curve" smooth="yes"/>
      <point x="191" y="733" type="line"/>
      <point x="29" y="-134" type="line"/>
    </contour>
  </outline>
</glyph>
<glyph name="asciicircum" format="1">
  <advance width="482"/>
  <unicode hex="005E"/>
  <outline>
    <contour>
      <point x="214" y="660" type="line"/>
      <point x="154" y="478"/>
      <point x="73" y="357"/>
      <point x="-14" y="320" type="curve"/>
      <point x="-8" y="293"/>
      <point x="15" y="277"/>
      <point x="52" y="277" type="curve" smooth="yes"/>
      <point x="136" y="277"/>
      <point x="193" y="359"/>
      <point x="254" y="536" type="curve"/>
      <point x="278" y="329"/>
      <point x="310" y="278"/>
      <point x="389" y="278" type="curve" smooth="yes"/>
      <point x="434" y="278"/>
      <point x="486" y="294"/>
      <point x="502" y="313" type="curve"/>
      <point x="427" y="362"/>
      <point x="381" y="492"/>
      <point x="379" y="660" type="curve"/>
    </contour>
  </outline>
</glyph>
<glyph name="underscore" format="1">
  <advance width="502"/>
  <unicode hex="005F"/>
  <outline>
    <contour>
      <point x="35" y="-39" type="line" smooth="yes"/>
      <point x="-8" y="-39"/>
      <point x="-39" y="-69"/>
      <point x="-39" y="-114" type="curve" smooth="yes"/>
      <point x="-39" y="-122"/>
      <point x="-38" y="-131"/>
      <point x="-35" y="-141" type="curve"/>
      <point x="378" y="-141" type="line" smooth="yes"/>
      <point x="434" y="-141"/>
      <point x="461" y="-109"/>
      <point x="461" y="-69" type="curve" smooth="yes"/>
      <point x="461" y="-59"/>
      <point x="459" y="-49"/>
      <point x="456" y="-39" type="curve"/>
    </contour>
  </outline>
</glyph>
<glyph name="grave" format="1">
  <advance width="282"/>
  <unicode hex="0060"/>
  <outline>
    <contour>
      <point x="353" y="630" type="line"/>
      <point x="117" y="776" type="line"/>
      <point x="91" y="766"/>
      <point x="81" y="739"/>
      <point x="81" y="710" type="curve" smooth="yes"/>
      <point x="81" y="641"/>
      <point x="141" y="618"/>
      <point x="209" y="605" type="curve" smooth="yes"/>
      <point x="332" y="582" type="line"/>
    </contour>
    <contour>
      <point x="240" y="510" type="move" name="_top"/>
    </contour>
  </outline>
</glyph>
<glyph name="a" format="1">
  <advance width="600"/>
  <unicode hex="0061"/>
  <outline>
    <contour>
      <point x="427" y="511" type="line"/>
      <point x="398" y="525"/>
      <point x="362" y="530"/>
      <point x="326" y="530" type="curve" smooth="yes"/>
      <point x="126" y="530"/>
      <point x="13" y="378"/>
      <point x="13" y="177" type="curve" smooth="yes"/>
      <point x="13" y="53"/>
      <point x="56" y="-20"/>
      <point x="173" y="-20" type="curve" smooth="yes"/>
      <point x="238" y="-20"/>
      <point x="294" y="2"/>
      <point x="327" y="37" type="curve"/>
      <point x="341" y="-2"/>
      <point x="384" y="-20"/>
      <point x="428" y="-20" type="curve" smooth="yes"/>
      <point x="478" y="-20"/>
      <point x="539" y="3"/>
      <point x="555" y="54" type="curve"/>
      <point x="522" y="57"/>
      <point x="508" y="81"/>
      <point x="508" y="108" type="curve" smooth="yes"/>
      <point x="508" y="121"/>
      <point x="511" y="139"/>
      <point x="513" y="150" type="curve" smooth="yes"/>
      <point x="585" y="530" type="line"/>
    </contour>
    <contour>
      <point x="324" y="169" type="line" smooth="yes"/>
      <point x="315" y="116"/>
      <point x="291" y="44"/>
      <point x="238" y="44" type="curve" smooth="yes"/>
      <point x="205" y="44"/>
      <point x="201" y="73"/>
      <point x="201" y="107" type="curve" smooth="yes"/>
      <point x="201" y="145"/>
      <point x="206" y="193"/>
      <point x="213" y="241" type="curve" smooth="yes"/>
      <point x="239" y="417"/>
      <point x="269" y="470"/>
      <point x="321" y="470" type="curve" smooth="yes"/>
      <point x="337" y="470"/>
      <point x="359" y="465"/>
      <point x="374" y="452" type="curve"/>
    </contour>
    <contour>
      <point x="525" y="10" type="move" name="ogonek"/>
    </contour>
    <contour>
      <point x="365" y="510" type="move" name="top"/>
    </contour>
  </outline>
</glyph>
<glyph name="b" format="1">
  <advance width="578"/>
  <unicode hex="0062"/>
  <outline>
    <contour>
      <point x="126" y="700" type="line"/>
      <point x="2" y="48" type="line"/>
      <point x="57" y="-3"/>
      <point x="173" y="-20"/>
      <point x="243" y="-20" type="curve" smooth="yes"/>
      <point x="455" y="-20"/>
      <point x="565" y="137"/>
      <point x="565" y="341" type="curve" smooth="yes"/>
      <point x="565" y="459"/>
      <point x="528" y="530"/>
      <point x="417" y="530" type="curve" smooth="yes"/>
      <point x="358" y="530"/>
      <point x="303" y="510"/>
      <point x="267" y="474" type="curve"/>
      <point x="285" y="514"/>
      <point x="298" y="571"/>
      <point x="304" y="603" type="curve" smooth="yes"/>
      <point x="327" y="720" type="line"/>
    </contour>
    <contour>
      <point x="246" y="310" type="line" smooth="yes"/>
      <point x="256" y="364"/>
      <point x="277" y="460"/>
      <point x="338" y="460" type="curve" smooth="yes"/>
      <point x="371" y="460"/>
      <point x="375" y="431"/>
      <point x="375" y="397" type="curve" smooth="yes"/>
      <point x="375" y="355"/>
      <point x="369" y="305"/>
      <point x="363" y="264" type="curve" smooth="yes"/>
      <point x="336" y="83"/>
      <point x="301" y="40"/>
      <point x="253" y="40" type="curve" smooth="yes"/>
      <point x="236" y="40"/>
      <point x="214" y="45"/>
      <point x="199" y="58" type="curve"/>
    </contour>
  </outline>
</glyph>
<glyph name="c" format="1">
  <advance width="480"/>
  <unicode hex="0063"/>
  <outline>
    <contour>
      <point x="143" y="530"/>
      <point x="16" y="394"/>
      <point x="16" y="201" type="curve" smooth="yes"/>
      <point x="16" y="50"/>
      <point x="94" y="-20"/>
      <point x="224" y="-20" type="curve" smooth="yes"/>
      <point x="336" y="-20"/>
      <point x="448" y="32"/>
      <point x="448" y="125" type="curve" smooth="yes"/>
      <point x="448" y="155"/>
      <point x="437" y="172"/>
      <point x="410" y="186" type="curve"/>
      <point x="389" y="136"/>
      <point x="335" y="106"/>
      <point x="283" y="106" type="curve" smooth="yes"/>
      <point x="225" y="106"/>
      <point x="206" y="142"/>
      <point x="206" y="197" type="curve" smooth="yes"/>
      <point x="206" y="282"/>
      <point x="252" y="471"/>
      <point x="332" y="471" type="curve" smooth="yes"/>
      <point x="356" y="471"/>
      <point x="361" y="453"/>
      <point x="361" y="430" type="curve" smooth="yes"/>
      <point x="361" y="401"/>
      <point x="353" y="357"/>
      <point x="343" y="330" type="curve"/>
      <point x="355" y="323"/>
      <point x="376" y="322"/>
      <point x="388" y="322" type="curve" smooth="yes"/>
      <point x="452" y="322"/>
      <point x="508" y="351"/>
      <point x="508" y="422" type="curve" smooth="yes"/>
      <point x="508" y="502"/>
      <point x="436" y="530"/>
      <point x="345" y="530" type="curve" smooth="yes"/>
    </contour>
    <contour>
      <point x="338" y="510" type="move" name="top"/>
    </contour>
    <contour>
      <point x="240" y="0" type="move" name="bottom"/>
    </contour>
  </outline>
</glyph>
<glyph name="e" format="1">
  <advance width="504"/>
  <unicode hex="0065"/>
  <outline>
    <contour>
      <point x="121" y="530"/>
      <point x="16" y="372"/>
      <point x="16" y="199" type="curve" smooth="yes"/>
      <point x="16" y="48"/>
      <point x="96" y="-20"/>
      <point x="225" y="-20" type="curve" smooth="yes"/>
      <point x="338" y="-20"/>
      <point x="448" y="33"/>
      <point x="448" y="121" type="curve" smooth="yes"/>
      <point x="448" y="143"/>
      <point x="441" y="158"/>
      <point x="423" y="169" type="curve"/>
      <point x="397" y="128"/>
      <point x="337" y="106"/>
      <point x="287" y="106" type="curve" smooth="yes"/>
      <point x="227" y="106"/>
      <point x="205" y="137"/>
      <point x="205" y="193" type="curve" smooth="yes"/>
      <point x="205" y="205"/>
      <point x="206" y="221"/>
      <point x="208" y="235" type="curve"/>
      <point x="226" y="235"/>
      <point x="243" y="235"/>
      <point x="259" y="236" type="curve" smooth="yes"/>
      <point x="433" y="245"/>
      <point x="516" y="308"/>
      <point x="516" y="408" type="curve" smooth="yes"/>
      <point x="516" y="507"/>
      <point x="434" y="530"/>
      <point x="348" y="530" type="curve" smooth="yes"/>
    </contour>
    <contour>
      <point x="354" y="479"/>
      <point x="362" y="457"/>
      <point x="362" y="425" type="curve" smooth="yes"/>
      <point x="362" y="341"/>
      <point x="308" y="278"/>
      <point x="215" y="278" type="curve"/>
      <point x="239" y="421"/>
      <point x="281" y="479"/>
      <point x="326" y="479" type="curve" smooth="yes"/>
    </contour>
    <contour>
      <point x="365" y="10" type="move" name="ogonek"/>
    </contour>
    <contour>
      <point x="245" y="0" type="move" name="bottom"/>
    </contour>
    <contour>
      <point x="339" y="510" type="move" name="top"/>
    </contour>
  </outline>
</glyph>
<glyph name="f" format="1">
  <advance width="320"/>
  <unicode hex="0066"/>
  <outline>
    <contour>
      <point x="104" y="510" type="line"/>
      <point x="34" y="510" type="line"/>
      <point x="25" y="465" type="line"/>
      <point x="96" y="465" type="line"/>
      <point x="2" y="-20" type="line"/>
      <point x="209" y="0" type="line"/>
      <point x="292" y="465" type="line"/>
      <point x="386" y="465" type="line"/>
      <point x="392" y="510" type="line"/>
      <point x="301" y="510" type="line"/>
      <point x="313" y="578" type="line" smooth="yes"/>
      <point x="323" y="636"/>
      <point x="340" y="676"/>
      <point x="377" y="676" type="curve" smooth="yes"/>
      <point x="398" y="676"/>
      <point x="405" y="662"/>
      <point x="405" y="641" type="curve" smooth="yes"/>
      <point x="405" y="623"/>
      <point x="400" y="596"/>
      <point x="391" y="580" type="curve"/>
      <point x="409" y="571"/>
      <point x="431" y="568"/>
      <point x="450" y="568" type="curve" smooth="yes"/>
      <point x="499" y="568"/>
      <point x="548" y="589"/>
      <point x="548" y="637" type="curve" smooth="yes"/>
      <point x="548" y="707"/>
      <point x="445" y="720"/>
      <point x="369" y="720" type="curve" smooth="yes"/>
      <point x="258" y="720"/>
      <point x="149" y="692"/>
      <point x="119" y="569" type="curve" smooth="yes"/>
    </contour>
  </outline>
</glyph>
<glyph name="g" format="1">
  <advance width="578"/>
  <unicode hex="0067"/>
  <outline>
    <contour>
      <point x="422" y="513" type="line"/>
      <point x="395" y="525"/>
      <point x="364" y="530"/>
      <point x="330" y="530" type="curve" smooth="yes"/>
      <point x="141" y="530"/>
      <point x="23" y="378"/>
      <point x="23" y="213" type="curve" smooth="yes"/>
      <point x="23" y="100"/>
      <point x="78" y="58"/>
      <point x="164" y="58" type="curve" smooth="yes"/>
      <point x="224" y="58"/>
      <point x="285" y="79"/>
      <point x="322" y="120" type="curve"/>
      <point x="291" y="-59"/>
      <point x="253" y="-131"/>
      <point x="195" y="-131" type="curve" smooth="yes"/>
      <point x="167" y="-131"/>
      <point x="157" y="-106"/>
      <point x="157" y="-87" type="curve" smooth="yes"/>
      <point x="157" y="-66"/>
      <point x="169" y="-47"/>
      <point x="180" y="-35" type="curve"/>
      <point x="156" y="-4"/>
      <point x="115" y="8"/>
      <point x="76" y="8" type="curve" smooth="yes"/>
      <point x="18" y="8"/>
      <point x="-32" y="-26"/>
      <point x="-32" y="-85" type="curve" smooth="yes"/>
      <point x="-32" y="-176"/>
      <point x="90" y="-200"/>
      <point x="187" y="-200" type="curve" smooth="yes"/>
      <point x="404" y="-200"/>
      <point x="468" y="-81"/>
      <point x="510" y="137" type="curve" smooth="yes"/>
      <point x="585" y="529" type="line"/>
    </contour>
    <contour>
      <point x="338" y="257" type="line" smooth="yes"/>
      <point x="328" y="204"/>
      <point x="306" y="135"/>
      <point x="253" y="135" type="curve" smooth="yes"/>
      <point x="220" y="135"/>
      <point x="217" y="163"/>
      <point x="217" y="195" type="curve" smooth="yes"/>
      <point x="217" y="283"/>
      <point x="240" y="470"/>
      <point x="333" y="470" type="curve" smooth="yes"/>
      <point x="345" y="470"/>
      <point x="363" y="467"/>
      <point x="376" y="456" type="curve"/>
    </contour>
    <contour>
      <point x="338" y="510" type="move" name="top"/>
    </contour>
  </outline>
</glyph>
<glyph name="h" format="1">
  <advance width="602"/>
  <unicode hex="0068"/>
  <outline>
    <contour>
      <point x="137" y="700" type="line"/>
      <point x="-4" y="-20" type="line"/>
      <point x="197" y="0" type="line"/>
      <point x="256" y="304" type="line" smooth="yes"/>
      <point x="269" y="368"/>
      <point x="292" y="453"/>
      <point x="346" y="453" type="curve" smooth="yes"/>
      <point x="375" y="453"/>
      <point x="381" y="429"/>
      <point x="381" y="404" type="curve" smooth="yes"/>
      <point x="381" y="325"/>
      <point x="323" y="158"/>
      <point x="323" y="83" type="curve" smooth="yes"/>
      <point x="323" y="14"/>
      <point x="371" y="-20"/>
      <point x="438" y="-20" type="curve" smooth="yes"/>
      <point x="493" y="-20"/>
      <point x="552" y="3"/>
      <point x="568" y="54" type="curve"/>
      <point x="534" y="58"/>
      <point x="521" y="79"/>
      <point x="521" y="112" type="curve" smooth="yes"/>
      <point x="521" y="179"/>
      <point x="576" y="328"/>
      <point x="576" y="412" type="curve" smooth="yes"/>
      <point x="576" y="498"/>
      <point x="519" y="530"/>
      <point x="435" y="530" type="curve" smooth="yes"/>
      <point x="375" y="530"/>
      <point x="318" y="514"/>
      <point x="278" y="474" type="curve"/>
      <point x="296" y="514"/>
      <point x="309" y="571"/>
      <point x="315" y="603" type="curve" smooth="yes"/>
      <point x="338" y="720" type="line"/>
    </contour>
    <contour>
      <point x="301" y="255" type="move" name="center"/>
    </contour>
    <contour>
      <point x="281" y="0" type="move" name="bottom"/>
    </contour>
    <contour>
      <point x="252" y="677" type="move" name="top"/>
    </contour>
  </outline>
</glyph>
<glyph name="j" format="1">
  <advance width="303"/>
  <unicode hex="006A"/>
  <outline>
    <contour>
      <point x="101" y="510" type="line"/>
      <point x="24" y="112" type="line" smooth="yes"/>
      <point x="-9" y="-57"/>
      <point x="-39" y="-123"/>
      <point x="-118" y="-126" type="curve"/>
      <point x="-104" y="-179"/>
      <point x="-55" y="-200"/>
      <point x="1" y="-200" type="curve" smooth="yes"/>
      <point x="122" y="-200"/>
      <point x="179" y="-104"/>
      <point x="217" y="92" type="curve" smooth="yes"/>
      <point x="302" y="530" type="line"/>
    </contour>
    <component base="dotaccent" xOffset="38"/>
  </outline>
</glyph>
<glyph name="k" format="1">
  <advance width="547"/>
  <unicode hex="006B"/>
  <outline>
    <contour>
      <point x="127" y="700" type="line"/>
      <point x="-14" y="-20" type="line"/>
      <point x="187" y="0" type="line"/>
      <point x="246" y="304" type="line" smooth="yes"/>
      <point x="258" y="365"/>
      <point x="282" y="453"/>
      <point x="336" y="453" type="curve" smooth="yes"/>
      <point x="361" y="453"/>
      <point x="374" y="434"/>
      <point x="374" y="397" type="curve" smooth="yes"/>
      <point x="374" y="320"/>
      <point x="318" y="253"/>
      <point x="254" y="235" type="curve"/>
      <point x="260" y="118"/>
      <point x="290" y="-20"/>
      <point x="413" y="-20" type="curve" smooth="yes"/>
      <point x="468" y="-20"/>
      <point x="521" y="7"/>
      <point x="537" y="61" type="curve"/>
      <point x="504" y="64"/>
      <point x="484" y="94"/>
      <point x="470" y="131" type="curve" smooth="yes"/>
      <point x="430" y="235" type="line"/>
      <point x="515" y="259"/>
      <point x="568" y="319"/>
      <point x="568" y="404" type="curve" smooth="yes"/>
      <point x="568" y="489"/>
      <point x="516" y="530"/>
      <point x="424" y="530" type="curve" smooth="yes"/>
      <point x="370" y="530"/>
      <point x="311" y="516"/>
      <point x="268" y="474" type="curve"/>
      <point x="286" y="514"/>
      <point x="299" y="571"/>
      <point x="305" y="603" type="curve" smooth="yes"/>
      <point x="328" y="720" type="line"/>
    </contour>
    <contour>
      <point x="269" y="0" type="move" name="bottom"/>
    </contour>
  </outline>
</glyph>
<glyph name="l" format="1">
  <advance width="306"/>
  <unicode hex="006C"/>
  <outline>
    <contour>
      <point x="126" y="700" type="line"/>
      <point x="53" y="316" type="line" smooth="yes"/>
      <point x="43" y="264"/>
      <point x="16" y="135"/>
      <point x="16" y="83" type="curve" smooth="yes"/>
      <point x="16" y="14"/>
      <point x="64" y="-20"/>
      <point x="131" y="-20" type="curve" smooth="yes"/>
      <point x="186" y="-20"/>
      <point x="245" y="3"/>
      <point x="261" y="54" type="curve"/>
      <point x="228" y="57"/>
      <point x="214" y="81"/>
      <point x="214" y="108" type="curve" smooth="yes"/>
      <point x="214" y="121"/>
      <point x="217" y="139"/>
      <point x="219" y="150" type="curve" smooth="yes"/>
      <point x="329" y="720" type="line"/>
    </contour>
    <contour>
      <point x="374" y="329" type="move" name="center"/>
    </contour>
    <contour>
      <point x="342" y="510" type="move" name="caron"/>
    </contour>
    <contour>
      <point x="197" y="680" type="move" name="top"/>
    </contour>
    <contour>
      <point x="286" y="510" type="move" name="topright"/>
    </contour>
    <contour>
      <point x="149" y="0" type="move" name="bottom"/>
    </contour>
  </outline>
</glyph>
<glyph name="m" format="1">
  <advance width="900"/>
  <unicode hex="006D"/>
  <outline>
    <contour>
      <point x="264" y="530" type="line"/>
      <point x="100" y="510" type="line"/>
      <point x="-4" y="-20" type="line"/>
      <point x="197" y="0" type="line"/>
      <point x="256" y="304" type="line" smooth="yes"/>
      <point x="266" y="357"/>
      <point x="289" y="453"/>
      <point x="346" y="453" type="curve" smooth="yes"/>
      <point x="375" y="453"/>
      <point x="381" y="428"/>
      <point x="381" y="406" type="curve" smooth="yes"/>
      <point x="381" y="367"/>
      <point x="361" y="275"/>
      <point x="354" y="244" type="curve" smooth="yes"/>
      <point x="298" y="-20" type="line"/>
      <point x="499" y="0" type="line"/>
      <point x="558" y="304" type="line" smooth="yes"/>
      <point x="567" y="349"/>
      <point x="589" y="453"/>
      <point x="645" y="453" type="curve" smooth="yes"/>
      <point x="673" y="453"/>
      <point x="679" y="428"/>
      <point x="679" y="403" type="curve" smooth="yes"/>
      <point x="679" y="325"/>
      <point x="621" y="158"/>
      <point x="621" y="83" type="curve" smooth="yes"/>
      <point x="621" y="14"/>
      <point x="669" y="-20"/>
      <point x="736" y="-20" type="curve" smooth="yes"/>
      <point x="791" y="-20"/>
      <point x="850" y="3"/>
      <point x="866" y="54" type="curve"/>
      <point x="832" y="58"/>
      <point x="819" y="79"/>
      <point x="819" y="112" type="curve" smooth="yes"/>
      <point x="819" y="179"/>
      <point x="874" y="328"/>
      <point x="874" y="412" type="curve" smooth="yes"/>
      <point x="874" y="498"/>
      <point x="817" y="530"/>
      <point x="731" y="530" type="curve" smooth="yes"/>
      <point x="660" y="530"/>
      <point x="599" y="508"/>
      <point x="561" y="450" type="curve"/>
      <point x="542" y="510"/>
      <point x="491" y="530"/>
      <point x="426" y="530" type="curve" smooth="yes"/>
      <point x="349" y="530"/>
      <point x="284" y="503"/>
      <point x="248" y="432" type="curve"/>
    </contour>
  </outline>
</glyph>
<glyph name="n" format="1">
  <advance width="602"/>
  <unicode hex="006E"/>
  <outline>
    <contour>
      <point x="264" y="530" type="line"/>
      <point x="100" y="510" type="line"/>
      <point x="-4" y="-20" type="line"/>
      <point x="197" y="0" type="line"/>
      <point x="256" y="304" type="line" smooth="yes"/>
      <point x="269" y="368"/>
      <point x="292" y="453"/>
      <point x="346" y="453" type="curve" smooth="yes"/>
      <point x="375" y="453"/>
      <point x="381" y="429"/>
      <point x="381" y="404" type="curve" smooth="yes"/>
      <point x="381" y="325"/>
      <point x="323" y="158"/>
      <point x="323" y="83" type="curve" smooth="yes"/>
      <point x="323" y="14"/>
      <point x="371" y="-20"/>
      <point x="438" y="-20" type="curve" smooth="yes"/>
      <point x="493" y="-20"/>
      <point x="552" y="3"/>
      <point x="568" y="54" type="curve"/>
      <point x="534" y="58"/>
      <point x="521" y="79"/>
      <point x="521" y="112" type="curve" smooth="yes"/>
      <point x="521" y="179"/>
      <point x="576" y="328"/>
      <point x="576" y="413" type="curve" smooth="yes"/>
      <point x="576" y="498"/>
      <point x="520" y="530"/>
      <point x="432" y="530" type="curve" smooth="yes"/>
      <point x="352" y="530"/>
      <point x="285" y="503"/>
      <point x="248" y="432" type="curve"/>
    </contour>
    <contour>
      <point x="345" y="510" type="move" name="top"/>
    </contour>
    <contour>
      <point x="271" y="0" type="move" name="bottom"/>
    </contour>
  </outline>
</glyph>
<glyph name="o" format="1">
  <advance width="566"/>
  <unicode hex="006F"/>
  <outline>
    <contour>
      <point x="134" y="530"/>
      <point x="16" y="385"/>
      <point x="16" y="198" type="curve" smooth="yes"/>
      <point x="16" y="46"/>
      <point x="94" y="-20"/>
      <point x="229" y="-20" type="curve" smooth="yes"/>
      <point x="432" y="-20"/>
      <point x="550" y="129"/>
      <point x="550" y="315" type="curve" smooth="yes"/>
      <point x="550" y="465"/>
      <point x="474" y="530"/>
      <point x="338" y="530" type="curve" smooth="yes"/>
    </contour>
    <contour>
      <point x="356" y="470"/>
      <point x="362" y="443"/>
      <point x="362" y="404" type="curve" smooth="yes"/>
      <point x="362" y="365"/>
      <point x="356" y="312"/>
      <point x="350" y="269" type="curve" smooth="yes"/>
      <point x="327" y="105"/>
      <point x="298" y="40"/>
      <point x="244" y="40" type="curve" smooth="yes"/>
      <point x="210" y="40"/>
      <point x="204" y="67"/>
      <point x="204" y="106" type="curve" smooth="yes"/>
      <point x="204" y="145"/>
      <point x="210" y="198"/>
      <point x="216" y="241" type="curve" smooth="yes"/>
      <point x="239" y="405"/>
      <point x="268" y="470"/>
      <point x="322" y="470" type="curve" smooth="yes"/>
    </contour>
    <contour>
      <point x="369" y="10" type="move" name="ogonek"/>
    </contour>
    <contour>
      <point x="261" y="0" type="move" name="bottom"/>
    </contour>
    <contour>
      <point x="344" y="510" type="move" name="top"/>
    </contour>
  </outline>
</glyph>
<glyph name="p" format="1">
  <advance width="582"/>
  <unicode hex="0070"/>
  <outline>
    <contour>
      <point x="263" y="530" type="line"/>
      <point x="99" y="510" type="line"/>
      <point x="-37" y="-200" type="line"/>
      <point x="162" y="-180" type="line"/>
      <point x="191" y="-12" type="line"/>
      <point x="210" y="-17"/>
      <point x="232" y="-19"/>
      <point x="255" y="-19" type="curve" smooth="yes"/>
      <point x="456" y="-19"/>
      <point x="568" y="134"/>
      <point x="568" y="334" type="curve" smooth="yes"/>
      <point x="568" y="458"/>
      <point x="525" y="531"/>
      <point x="407" y="531" type="curve" smooth="yes"/>
      <point x="336" y="531"/>
      <point x="283" y="504"/>
      <point x="250" y="453" type="curve"/>
    </contour>
    <contour>
      <point x="256" y="335" type="line" smooth="yes"/>
      <point x="265" y="388"/>
      <point x="289" y="460"/>
      <point x="342" y="460" type="curve" smooth="yes"/>
      <point x="375" y="460"/>
      <point x="379" y="431"/>
      <point x="379" y="396" type="curve" smooth="yes"/>
      <point x="379" y="354"/>
      <point x="373" y="305"/>
      <point x="367" y="263" type="curve" smooth="yes"/>
      <point x="343" y="96"/>
      <point x="314" y="41"/>
      <point x="260" y="41" type="curve" smooth="yes"/>
      <point x="244" y="41"/>
      <point x="222" y="46"/>
      <point x="207" y="59" type="curve"/>
    </contour>
  </outline>
</glyph>
<glyph name="q" format="1">
  <advance width="588"/>
  <unicode hex="0071"/>
  <outline>
    <contour>
      <point x="430" y="511" type="line"/>
      <point x="399" y="526"/>
      <point x="364" y="530"/>
      <point x="331" y="530" type="curve" smooth="yes"/>
      <point x="122" y="530"/>
      <point x="12" y="372"/>
      <point x="12" y="169" type="curve" smooth="yes"/>
      <point x="12" y="51"/>
      <point x="49" y="-20"/>
      <point x="160" y="-20" type="curve" smooth="yes"/>
      <point x="219" y="-20"/>
      <point x="274" y="0"/>
      <point x="310" y="36" type="curve"/>
      <point x="292" y="-4"/>
      <point x="280" y="-61"/>
      <point x="274" y="-93" type="curve" smooth="yes"/>
      <point x="253" y="-200" type="line"/>
      <point x="458" y="-180" type="line"/>
      <point x="588" y="530" type="line"/>
    </contour>
    <contour>
      <point x="331" y="200" type="line" smooth="yes"/>
      <point x="321" y="146"/>
      <point x="300" y="50"/>
      <point x="239" y="50" type="curve" smooth="yes"/>
      <point x="206" y="50"/>
      <point x="202" y="79"/>
      <point x="202" y="113" type="curve" smooth="yes"/>
      <point x="202" y="155"/>
      <point x="208" y="205"/>
      <point x="214" y="246" type="curve" smooth="yes"/>
      <point x="241" y="427"/>
      <point x="276" y="470"/>
      <point x="324" y="470" type="curve" smooth="yes"/>
      <point x="341" y="470"/>
      <point x="363" y="465"/>
      <point x="378" y="452" type="curve"/>
    </contour>
  </outline>
</glyph>
<glyph name="r" format="1">
  <advance width="490"/>
  <unicode hex="0072"/>
  <outline>
    <contour>
      <point x="263" y="530" type="line"/>
      <point x="98" y="510" type="line"/>
      <point x="-4" y="-20" type="line"/>
      <point x="203" y="0" type="line"/>
      <point x="251" y="294" type="line" smooth="yes"/>
      <point x="269" y="401"/>
      <point x="301" y="453"/>
      <point x="339" y="453" type="curve" smooth="yes"/>
      <point x="363" y="453"/>
      <point x="369" y="433"/>
      <point x="369" y="411" type="curve" smooth="yes"/>
      <point x="369" y="372"/>
      <point x="351" y="318"/>
      <point x="328" y="288" type="curve"/>
      <point x="340" y="274"/>
      <point x="366" y="269"/>
      <point x="389" y="269" type="curve" smooth="yes"/>
      <point x="468" y="269"/>
      <point x="525" y="329"/>
      <point x="525" y="414" type="curve" smooth="yes"/>
      <point x="525" y="489"/>
      <point x="481" y="530"/>
      <point x="401" y="530" type="curve" smooth="yes"/>
      <point x="329" y="530"/>
      <point x="278" y="497"/>
      <point x="247" y="432" type="curve"/>
    </contour>
    <contour>
      <point x="184" y="510" type="move" name="top"/>
    </contour>
    <contour>
      <point x="111" y="0" type="move" name="bottom"/>
    </contour>
  </outline>
</glyph>
<glyph name="s" format="1">
  <advance width="447"/>
  <unicode hex="0073"/>
  <outline>
    <contour>
      <point x="252" y="65"/>
      <point x="223" y="33"/>
      <point x="184" y="33" type="curve" smooth="yes"/>
      <point x="150" y="33"/>
      <point x="133" y="57"/>
      <point x="133" y="92" type="curve" smooth="yes"/>
      <point x="133" y="109"/>
      <point x="137" y="125"/>
      <point x="146" y="148" type="curve"/>
      <point x="128" y="159"/>
      <point x="104" y="164"/>
      <point x="81" y="164" type="curve" smooth="yes"/>
      <point x="23" y="164"/>
      <point x="-21" y="132"/>
      <point x="-21" y="80" type="curve" smooth="yes"/>
      <point x="-21" y="4"/>
      <point x="75" y="-20"/>
      <point x="161" y="-20" type="curve" smooth="yes"/>
      <point x="322" y="-20"/>
      <point x="417" y="64"/>
      <point x="417" y="171" type="curve" smooth="yes"/>
      <point x="417" y="237"/>
      <point x="381" y="268"/>
      <point x="316" y="311" type="curve" smooth="yes"/>
      <point x="260" y="348"/>
      <point x="215" y="372"/>
      <point x="215" y="408" type="curve" smooth="yes"/>
      <point x="215" y="435"/>
      <point x="242" y="479"/>
      <point x="284" y="479" type="curve" smooth="yes"/>
      <point x="312" y="479"/>
      <point x="329" y="460"/>
      <point x="329" y="422" type="curve" smooth="yes"/>
      <point x="329" y="403"/>
      <point x="325" y="379"/>
      <point x="315" y="351" type="curve"/>
      <point x="327" y="343"/>
      <point x="341" y="340"/>
      <point x="360" y="340" type="curve" smooth="yes"/>
      <point x="427" y="340"/>
      <point x="465" y="375"/>
      <point x="465" y="432" type="curve" smooth="yes"/>
      <point x="465" y="506"/>
      <point x="400" y="530"/>
      <point x="315" y="530" type="curve" smooth="yes"/>
      <point x="153" y="530"/>
      <point x="50" y="442"/>
      <point x="50" y="332" type="curve" smooth="yes"/>
      <point x="50" y="273"/>
      <point x="79" y="241"/>
      <point x="153" y="192" type="curve" smooth="yes"/>
      <point x="205" y="157"/>
      <point x="252" y="134"/>
      <point x="252" y="95" type="curve" smooth="yes"/>
    </contour>
    <contour>
      <point x="300" y="510" type="move" name="top"/>
    </contour>
    <contour>
      <point x="188" y="0" type="move" name="bottom"/>
    </contour>
  </outline>
</glyph>
<glyph name="t" format="1">
  <advance width="329"/>
  <unicode hex="0074"/>
  <outline>
    <contour>
      <point x="280" y="619" type="line"/>
      <point x="203" y="561"/>
      <point x="123" y="519"/>
      <point x="44" y="495" type="curve"/>
      <point x="40" y="465" type="line"/>
      <point x="99" y="465" type="line"/>
      <point x="70" y="316" type="line" smooth="yes"/>
      <point x="60" y="264"/>
      <point x="33" y="135"/>
      <point x="33" y="83" type="curve" smooth="yes"/>
      <point x="33" y="14"/>
      <point x="81" y="-20"/>
      <point x="148" y="-20" type="curve" smooth="yes"/>
      <point x="203" y="-20"/>
      <point x="262" y="3"/>
      <point x="278" y="54" type="curve"/>
      <point x="245" y="57"/>
      <point x="231" y="81"/>
      <point x="231" y="108" type="curve" smooth="yes"/>
      <point x="231" y="121"/>
      <point x="234" y="139"/>
      <point x="236" y="150" type="curve" smooth="yes"/>
      <point x="296" y="465" type="line"/>
      <point x="373" y="465" type="line"/>
      <point x="382" y="510" type="line"/>
      <point x="304" y="510" type="line"/>
      <point x="328" y="619" type="line"/>
    </contour>
    <contour>
      <point x="165" y="255" type="move" name="center"/>
    </contour>
    <contour>
      <point x="149" y="0" type="move" name="bottom"/>
    </contour>
  </outline>
</glyph>
<glyph name="u" format="1">
  <advance width="610"/>
  <unicode hex="0075"/>
  <outline>
    <contour>
      <point x="394" y="510" type="line"/>
      <point x="334" y="169" type="line" smooth="yes"/>
      <point x="325" y="116"/>
      <point x="301" y="44"/>
      <point x="248" y="44" type="curve" smooth="yes"/>
      <point x="217" y="44"/>
      <point x="213" y="70"/>
      <point x="213" y="96" type="curve" smooth="yes"/>
      <point x="213" y="138"/>
      <point x="223" y="190"/>
      <point x="236" y="253" type="curve" smooth="yes"/>
      <point x="293" y="530" type="line"/>
      <point x="91" y="510" type="line"/>
      <point x="49" y="280" type="line" smooth="yes"/>
      <point x="40" y="229"/>
      <point x="25" y="152"/>
      <point x="25" y="105" type="curve" smooth="yes"/>
      <point x="25" y="9"/>
      <point x="88" y="-20"/>
      <point x="176" y="-20" type="curve" smooth="yes"/>
      <point x="240" y="-20"/>
      <point x="296" y="-5"/>
      <point x="337" y="37" type="curve"/>
      <point x="351" y="-2"/>
      <point x="394" y="-20"/>
      <point x="438" y="-20" type="curve" smooth="yes"/>
      <point x="488" y="-20"/>
      <point x="549" y="3"/>
      <point x="565" y="54" type="curve"/>
      <point x="532" y="57"/>
      <point x="518" y="81"/>
      <point x="518" y="108" type="curve" smooth="yes"/>
      <point x="518" y="121"/>
      <point x="521" y="139"/>
      <point x="523" y="150" type="curve" smooth="yes"/>
      <point x="595" y="530" type="line"/>
    </contour>
    <contour>
      <point x="534" y="10" type="move" name="ogonek"/>
    </contour>
    <contour>
      <point x="261" y="0" type="move" name="bottom"/>
    </contour>
    <contour>
      <point x="344" y="510" type="move" name="top"/>
    </contour>
  </outline>
</glyph>
<glyph name="v" format="1">
  <advance width="542"/>
  <unicode hex="0076"/>
  <outline>
    <contour>
      <point x="263" y="0" type="line"/>
      <point x="329" y="45"/>
      <point x="391" y="119"/>
      <point x="426" y="167" type="curve" smooth="yes"/>
      <point x="488" y="252"/>
      <point x="546" y="372"/>
      <point x="546" y="446" type="curve" smooth="yes"/>
      <point x="546" y="509"/>
      <point x="503" y="530"/>
      <point x="457" y="530" type="curve" smooth="yes"/>
      <point x="417" y="530"/>
      <point x="386" y="515"/>
      <point x="366" y="493" type="curve"/>
      <point x="372" y="473"/>
      <point x="373" y="453"/>
      <point x="373" y="436" type="curve" smooth="yes"/>
      <point x="373" y="322"/>
      <point x="325" y="157"/>
      <point x="247" y="78" type="curve"/>
      <point x="248" y="156"/>
      <point x="248" y="213"/>
      <point x="248" y="255" type="curve" smooth="yes"/>
      <point x="248" y="334"/>
      <point x="247" y="363"/>
      <point x="245" y="390" type="curve" smooth="yes"/>
      <point x="238" y="482"/>
      <point x="212" y="530"/>
      <point x="118" y="530" type="curve" smooth="yes"/>
      <point x="78" y="530"/>
      <point x="42" y="521"/>
      <point x="7" y="493" type="curve"/>
      <point x="30" y="478"/>
      <point x="39" y="451"/>
      <point x="48" y="390" type="curve" smooth="yes"/>
      <point x="63" y="291"/>
      <point x="70" y="143"/>
      <point x="74" y="-20" type="curve"/>
    </contour>
  </outline>
</glyph>
<glyph name="w" format="1">
  <advance width="831"/>
  <unicode hex="0077"/>
  <outline>
    <contour>
      <point x="241" y="0" type="line"/>
      <point x="307" y="35"/>
      <point x="377" y="112"/>
      <point x="403" y="182" type="curve"/>
      <point x="405" y="107"/>
      <point x="405" y="38"/>
      <point x="405" y="-19" type="curve"/>
      <point x="552" y="0" type="line"/>
      <point x="618" y="45"/>
      <point x="680" y="119"/>
      <point x="715" y="167" type="curve" smooth="yes"/>
      <point x="777" y="252"/>
      <point x="835" y="372"/>
      <point x="835" y="446" type="curve" smooth="yes"/>
      <point x="835" y="509"/>
      <point x="792" y="530"/>
      <point x="746" y="530" type="curve" smooth="yes"/>
      <point x="706" y="530"/>
      <point x="675" y="515"/>
      <point x="655" y="493" type="curve"/>
      <point x="661" y="473"/>
      <point x="662" y="454"/>
      <point x="662" y="435" type="curve" smooth="yes"/>
      <point x="662" y="323"/>
      <point x="628" y="157"/>
      <point x="550" y="78" type="curve"/>
      <point x="551" y="144"/>
      <point x="551" y="194"/>
      <point x="551" y="234" type="curve" smooth="yes"/>
      <point x="551" y="330"/>
      <point x="550" y="361"/>
      <point x="548" y="390" type="curve" smooth="yes"/>
      <point x="542" y="475"/>
      <point x="527" y="530"/>
      <point x="445" y="530" type="curve" smooth="yes"/>
      <point x="402" y="530"/>
      <point x="372" y="515"/>
      <point x="352" y="493" type="curve"/>
      <point x="358" y="473"/>
      <point x="359" y="454"/>
      <point x="359" y="435" type="curve" smooth="yes"/>
      <point x="359" y="323"/>
      <point x="325" y="157"/>
      <point x="247" y="78" type="curve"/>
      <point x="248" y="146"/>
      <point x="248" y="198"/>
      <point x="248" y="238" type="curve" smooth="yes"/>
      <point x="248" y="280"/>
      <point x="247" y="359"/>
      <point x="245" y="390" type="curve" smooth="yes"/>
      <point x="240" y="478"/>
      <point x="217" y="530"/>
      <point x="119" y="530" type="curve" smooth="yes"/>
      <point x="78" y="530"/>
      <point x="42" y="521"/>
      <point x="7" y="493" type="curve"/>
      <point x="30" y="478"/>
      <point x="39" y="451"/>
      <point x="48" y="390" type="curve" smooth="yes"/>
      <point x="63" y="291"/>
      <point x="70" y="143"/>
      <point x="74" y="-20" type="curve"/>
    </contour>
    <contour>
      <point x="447" y="510" type="move" name="top"/>
    </contour>
  </outline>
</glyph>
<glyph name="x" format="1">
  <advance width="514"/>
  <unicode hex="0078"/>
  <outline>
    <contour>
      <point x="158" y="259" type="line"/>
      <point x="98" y="231" type="line" smooth="yes"/>
      <point x="27" y="198"/>
      <point x="-30" y="145"/>
      <point x="-30" y="67" type="curve" smooth="yes"/>
      <point x="-30" y="9"/>
      <point x="2" y="-20"/>
      <point x="61" y="-20" type="curve" smooth="yes"/>
      <point x="92" y="-20"/>
      <point x="123" y="-12"/>
      <point x="148" y="4" type="curve"/>
      <point x="131" y="27"/>
      <point x="124" y="54"/>
      <point x="124" y="83" type="curve" smooth="yes"/>
      <point x="124" y="128"/>
      <point x="141" y="174"/>
      <point x="184" y="192" type="curve"/>
      <point x="233" y="66" type="line" smooth="yes"/>
      <point x="256" y="8"/>
      <point x="286" y="-20"/>
      <point x="348" y="-20" type="curve" smooth="yes"/>
      <point x="406" y="-20"/>
      <point x="460" y="7"/>
      <point x="476" y="61" type="curve"/>
      <point x="443" y="64"/>
      <point x="423" y="94"/>
      <point x="409" y="131" type="curve" smooth="yes"/>
      <point x="357" y="265" type="line"/>
      <point x="417" y="293" type="line" smooth="yes"/>
      <point x="487" y="326"/>
      <point x="536" y="373"/>
      <point x="536" y="444" type="curve" smooth="yes"/>
      <point x="536" y="501"/>
      <point x="504" y="530"/>
      <point x="445" y="530" type="curve" smooth="yes"/>
      <point x="414" y="530"/>
      <point x="383" y="522"/>
      <point x="358" y="506" type="curve"/>
      <point x="375" y="483"/>
      <point x="382" y="457"/>
      <point x="382" y="427" type="curve" smooth="yes"/>
      <point x="382" y="387"/>
      <point x="370" y="348"/>
      <point x="332" y="332" type="curve"/>
      <point x="284" y="444" type="line" smooth="yes"/>
      <point x="261" y="499"/>
      <point x="231" y="530"/>
      <point x="169" y="530" type="curve" smooth="yes"/>
      <point x="111" y="530"/>
      <point x="57" y="503"/>
      <point x="41" y="449" type="curve"/>
      <point x="77" y="445"/>
      <point x="94" y="413"/>
      <point x="108" y="379" type="curve" smooth="yes"/>
    </contour>
  </outline>
</glyph>
<glyph name="y" format="1">
  <advance width="509"/>
  <unicode hex="0079"/>
  <outline>
    <contour>
      <point x="56" y="-170"/>
      <point x="94" y="-200"/>
      <point x="152" y="-200" type="curve" smooth="yes"/>
      <point x="198" y="-200"/>
      <point x="246" y="-186"/>
      <point x="279" y="-154" type="curve"/>
      <point x="251" y="-133"/>
      <point x="231" y="-98"/>
      <point x="231" y="-64" type="curve" smooth="yes"/>
      <point x="231" y="-2"/>
      <point x="268" y="33"/>
      <point x="312" y="76" type="curve" smooth="yes"/>
      <point x="394" y="156"/>
      <point x="541" y="332"/>
      <point x="541" y="446" type="curve" smooth="yes"/>
      <point x="541" y="509"/>
      <point x="498" y="530"/>
      <point x="452" y="530" type="curve" smooth="yes"/>
      <point x="412" y="530"/>
      <point x="381" y="515"/>
      <point x="361" y="493" type="curve"/>
      <point x="367" y="473"/>
      <point x="368" y="453"/>
      <point x="368" y="436" type="curve" smooth="yes"/>
      <point x="368" y="324"/>
      <point x="317" y="205"/>
      <point x="249" y="116" type="curve"/>
      <point x="250" y="255" type="line" smooth="yes"/>
      <point x="251" y="334"/>
      <point x="250" y="363"/>
      <point x="248" y="390" type="curve" smooth="yes"/>
      <point x="241" y="482"/>
      <point x="219" y="530"/>
      <point x="125" y="530" type="curve" smooth="yes"/>
      <point x="85" y="530"/>
      <point x="49" y="521"/>
      <point x="14" y="493" type="curve"/>
      <point x="37" y="478"/>
      <point x="48" y="451"/>
      <point x="55" y="390" type="curve" smooth="yes"/>
      <point x="67" y="291"/>
      <point x="71" y="191"/>
      <point x="76" y="28" type="curve"/>
      <point x="159" y="32" type="line"/>
      <point x="104" y="-4"/>
      <point x="56" y="-51"/>
      <point x="56" y="-112" type="curve" smooth="yes"/>
    </contour>
    <contour>
      <point x="304" y="510" type="move" name="top"/>
    </contour>
  </outline>
</glyph>
<glyph name="z" format="1">
  <advance width="453"/>
  <unicode hex="007A"/>
  <outline>
    <contour>
      <point x="50" y="176" type="line"/>
      <point x="15" y="148"/>
      <point x="-10" y="114"/>
      <point x="-10" y="68" type="curve" smooth="yes"/>
      <point x="-10" y="34"/>
      <point x="4" y="12"/>
      <point x="24" y="-1" type="curve"/>
      <point x="43" y="5"/>
      <point x="62" y="9"/>
      <point x="87" y="9" type="curve" smooth="yes"/>
      <point x="154" y="9"/>
      <point x="224" y="-20"/>
      <point x="293" y="-20" type="curve" smooth="yes"/>
      <point x="374" y="-20"/>
      <point x="430" y="19"/>
      <point x="430" y="103" type="curve" smooth="yes"/>
      <point x="430" y="136"/>
      <point x="421" y="164"/>
      <point x="402" y="186" type="curve"/>
      <point x="376" y="157"/>
      <point x="332" y="146"/>
      <point x="295" y="146" type="curve" smooth="yes"/>
      <point x="260" y="146"/>
      <point x="209" y="156"/>
      <point x="164" y="169" type="curve"/>
      <point x="410" y="353" type="line" smooth="yes"/>
      <point x="446" y="380"/>
      <point x="474" y="411"/>
      <point x="474" y="456" type="curve" smooth="yes"/>
      <point x="474" y="476"/>
      <point x="469" y="496"/>
      <point x="448" y="516" type="curve"/>
      <point x="434" y="508"/>
      <point x="414" y="505"/>
      <point x="392" y="505" type="curve" smooth="yes"/>
      <point x="330" y="505"/>
      <point x="233" y="530"/>
      <point x="165" y="530" type="curve" smooth="yes"/>
      <point x="95" y="530"/>
      <point x="40" y="504"/>
      <point x="40" y="431" type="curve" smooth="yes"/>
      <point x="40" y="395"/>
      <point x="53" y="355"/>
      <point x="74" y="330" type="curve"/>
      <point x="89" y="359"/>
      <point x="118" y="374"/>
      <point x="166" y="374" type="curve" smooth="yes"/>
      <point x="201" y="374"/>
      <point x="254" y="366"/>
      <point x="297" y="354" type="curve"/>
    </contour>
    <contour>
      <point x="276" y="510" type="move" name="top"/>
    </contour>
    <contour>
      <point x="205" y="0" type="move" name="bottom"/>
    </contour>
  </outline>
</glyph>
<glyph name="braceleft" format="1">
  <advance width="371"/>
  <unicode hex="007B"/>
  <outline>
    <contour>
      <point x="271" y="800"/>
      <point x="217" y="768"/>
      <point x="201" y="682" type="curve" smooth="yes"/>
      <point x="158" y="445" type="line" smooth="yes"/>
      <point x="146" y="378"/>
      <point x="110" y="347"/>
      <point x="45" y="347" type="curve"/>
      <point x="31" y="275" type="line"/>
      <point x="85" y="275"/>
      <point x="111" y="252"/>
      <point x="111" y="212" type="curve" smooth="yes"/>
      <point x="111" y="201"/>
      <point x="109" y="182"/>
      <point x="106" y="168" type="curve" smooth="yes"/>
      <point x="60" y="-67" type="line" smooth="yes"/>
      <point x="57" y="-82"/>
      <point x="54" y="-101"/>
      <point x="54" y="-116" type="curve" smooth="yes"/>
      <point x="54" y="-170"/>
      <point x="96" y="-200"/>
      <point x="192" y="-200" type="curve" smooth="yes"/>
      <point x="217" y="-200"/>
      <point x="251" y="-198"/>
      <point x="296" y="-192" type="curve"/>
      <point x="308" y="-133" type="line"/>
      <point x="278" y="-133" type="line" smooth="yes"/>
      <point x="235" y="-133"/>
      <point x="214" y="-108"/>
      <point x="214" y="-65" type="curve" smooth="yes"/>
      <point x="214" y="-49"/>
      <point x="217" y="-28"/>
      <point x="221" y="-9" type="curve" smooth="yes"/>
      <point x="262" y="199" type="line" smooth="yes"/>
      <point x="265" y="214"/>
      <point x="267" y="232"/>
      <point x="267" y="245" type="curve" smooth="yes"/>
      <point x="267" y="291"/>
      <point x="243" y="308"/>
      <point x="181" y="316" type="curve"/>
      <point x="256" y="325"/>
      <point x="291" y="354"/>
      <point x="303" y="419" type="curve" smooth="yes"/>
      <point x="343" y="642" type="line" smooth="yes"/>
      <point x="354" y="705"/>
      <point x="383" y="734"/>
      <point x="440" y="734" type="curve" smooth="yes"/>
      <point x="470" y="734" type="line"/>
      <point x="481" y="792" type="line"/>
      <point x="445" y="798"/>
      <point x="407" y="800"/>
      <point x="380" y="800" type="curve" smooth="yes"/>
    </contour>
  </outline>
</glyph>
<glyph name="bar" format="1">
  <advance width="272"/>
  <unicode hex="007C"/>
  <outline>
    <contour>
      <point x="171" y="800" type="line"/>
      <point x="-24" y="-200" type="line"/>
      <point x="122" y="-200" type="line"/>
      <point x="313" y="800" type="line"/>
    </contour>
  </outline>
</glyph>
<glyph name="braceright" format="1">
  <advance width="371"/>
  <unicode hex="007D"/>
  <outline>
    <contour>
      <point x="-88" y="-134" type="line"/>
      <point x="-99" y="-192" type="line"/>
      <point x="-63" y="-198"/>
      <point x="-25" y="-200"/>
      <point x="2" y="-200" type="curve" smooth="yes"/>
      <point x="111" y="-200"/>
      <point x="165" y="-168"/>
      <point x="181" y="-82" type="curve" smooth="yes"/>
      <point x="230" y="178" type="line" smooth="yes"/>
      <point x="242" y="245"/>
      <point x="278" y="276"/>
      <point x="343" y="276" type="curve"/>
      <point x="357" y="348" type="line"/>
      <point x="304" y="348"/>
      <point x="278" y="369"/>
      <point x="277" y="411" type="curve" smooth="yes"/>
      <point x="277" y="424"/>
      <point x="279" y="441"/>
      <point x="282" y="455" type="curve" smooth="yes"/>
      <point x="326" y="697"/>
      <point x="324" y="683"/>
      <point x="324" y="707" type="curve" smooth="yes"/>
      <point x="324" y="778"/>
      <point x="267" y="800"/>
      <point x="189" y="800" type="curve" smooth="yes"/>
      <point x="165" y="800"/>
      <point x="131" y="798"/>
      <point x="86" y="792" type="curve"/>
      <point x="74" y="733" type="line"/>
      <point x="104" y="733" type="line" smooth="yes"/>
      <point x="147" y="733"/>
      <point x="168" y="710"/>
      <point x="168" y="662" type="curve" smooth="yes"/>
      <point x="168" y="651"/>
      <point x="167" y="638"/>
      <point x="163" y="619" type="curve" smooth="yes"/>
      <point x="126" y="424" type="line" smooth="yes"/>
      <point x="123" y="410"/>
      <point x="121" y="390"/>
      <point x="121" y="377" type="curve" smooth="yes"/>
      <point x="121" y="334"/>
      <point x="143" y="315"/>
      <point x="207" y="307" type="curve"/>
      <point x="132" y="298"/>
      <point x="97" y="269"/>
      <point x="85" y="204" type="curve" smooth="yes"/>
      <point x="39" y="-42" type="line" smooth="yes"/>
      <point x="27" y="-105"/>
      <point x="-1" y="-134"/>
      <point x="-58" y="-134" type="curve" smooth="yes"/>
    </contour>
  </outline>
</glyph>
<glyph name="asciitilde" format="1">
  <advance width="572"/>
  <unicode hex="007E"/>
  <outline>
    <contour>
      <point x="455" y="272"/>
      <point x="424" y="261"/>
      <point x="391" y="261" type="curve" smooth="yes"/>
      <point x="331" y="261"/>
      <point x="249" y="296"/>
      <point x="173" y="296" type="curve" smooth="yes"/>
      <point x="104" y="296"/>
      <point x="63" y="267"/>
      <point x="63" y="226" type="curve" smooth="yes"/>
      <point x="63" y="209"/>
      <point x="70" y="191"/>
      <point x="85" y="172" type="curve"/>
      <point x="98" y="189"/>
      <point x="129" y="200"/>
      <point x="162" y="200" type="curve" smooth="yes"/>
      <point x="222" y="200"/>
      <point x="304" y="165"/>
      <point x="380" y="165" type="curve" smooth="yes"/>
      <point x="449" y="165"/>
      <point x="490" y="194"/>
      <point x="490" y="235" type="curve" smooth="yes"/>
      <point x="490" y="252"/>
      <point x="483" y="270"/>
      <point x="468" y="289" type="curve"/>
    </contour>
  </outline>
</glyph>
<glyph name="exclamdown" format="1">
  <advance width="312"/>
  <unicode hex="00A1"/>
  <outline>
    <contour>
      <point x="230" y="245" type="line"/>
      <point x="231" y="254"/>
      <point x="232" y="252"/>
      <point x="232" y="260" type="curve" smooth="yes"/>
      <point x="232" y="301"/>
      <point x="203" y="329"/>
      <point x="152" y="329" type="curve" smooth="yes"/>
      <point x="127" y="329"/>
      <point x="102" y="322"/>
      <point x="86" y="303" type="curve"/>
      <point x="83" y="171"/>
      <point x="-19" y="38"/>
      <point x="-19" y="-72" type="curve" smooth="yes"/>
      <point x="-19" y="-133"/>
      <point x="13" y="-171"/>
      <point x="77" y="-171" type="curve" smooth="yes"/>
      <point x="103" y="-171"/>
      <point x="131" y="-165"/>
      <point x="152" y="-157" type="curve"/>
    </contour>
    <component base="period" xOffset="117" yOffset="398"/>
  </outline>
</glyph>
<glyph name="cent" format="1">
  <advance width="572"/>
  <unicode hex="00A2"/>
  <outline>
    <contour>
      <point x="448" y="682" type="line"/>
      <point x="436" y="685"/>
      <point x="421" y="687"/>
      <point x="406" y="687" type="curve" smooth="yes"/>
      <point x="363" y="687"/>
      <point x="348" y="670"/>
      <point x="337" y="612" type="curve" smooth="yes"/>
      <point x="333" y="590" type="line"/>
      <point x="160" y="568"/>
      <point x="58" y="439"/>
      <point x="58" y="262" type="curve" smooth="yes"/>
      <point x="58" y="133"/>
      <point x="112" y="64"/>
      <point x="226" y="47" type="curve"/>
      <point x="208" y="-44" type="line"/>
      <point x="219" y="-47"/>
      <point x="236" y="-49"/>
      <point x="251" y="-49" type="curve" smooth="yes"/>
      <point x="295" y="-49"/>
      <point x="311" y="-32"/>
      <point x="322" y="26" type="curve" smooth="yes"/>
      <point x="326" y="48" type="line"/>
      <point x="402" y="61"/>
      <point x="490" y="108"/>
      <point x="490" y="190" type="curve" smooth="yes"/>
      <point x="490" y="219"/>
      <point x="479" y="236"/>
      <point x="452" y="250" type="curve"/>
      <point x="431" y="200"/>
      <point x="377" y="170"/>
      <point x="325" y="170" type="curve" smooth="yes"/>
      <point x="267" y="170"/>
      <point x="248" y="206"/>
      <point x="248" y="261" type="curve" smooth="yes"/>
      <point x="248" y="346"/>
      <point x="294" y="535"/>
      <point x="374" y="535" type="curve" smooth="yes"/>
      <point x="398" y="535"/>
      <point x="403" y="517"/>
      <point x="403" y="494" type="curve" smooth="yes"/>
      <point x="403" y="465"/>
      <point x="395" y="421"/>
      <point x="385" y="394" type="curve"/>
      <point x="397" y="387"/>
      <point x="418" y="386"/>
      <point x="430" y="386" type="curve" smooth="yes"/>
      <point x="493" y="386"/>
      <point x="550" y="415"/>
      <point x="550" y="485" type="curve" smooth="yes"/>
      <point x="550" y="551"/>
      <point x="498" y="585"/>
      <point x="430" y="592" type="curve"/>
    </contour>
  </outline>
</glyph>
<glyph name="sterling" format="1">
  <advance width="572"/>
  <unicode hex="00A3"/>
  <outline>
    <contour>
      <point x="421" y="596"/>
      <point x="430" y="567"/>
      <point x="430" y="533" type="curve" smooth="yes"/>
      <point x="430" y="499"/>
      <point x="421" y="471"/>
      <point x="412" y="452" type="curve"/>
      <point x="429" y="446"/>
      <point x="450" y="442"/>
      <point x="470" y="442" type="curve" smooth="yes"/>
      <point x="530" y="442"/>
      <point x="591" y="466"/>
      <point x="591" y="540" type="curve" smooth="yes"/>
      <point x="591" y="638"/>
      <point x="484" y="660"/>
      <point x="395" y="660" type="curve" smooth="yes"/>
      <point x="251" y="660"/>
      <point x="140" y="591"/>
      <point x="124" y="481" type="curve" smooth="yes"/>
      <point x="112" y="400" type="line"/>
      <point x="84" y="400" type="line" smooth="yes"/>
      <point x="44" y="400"/>
      <point x="17" y="383"/>
      <point x="17" y="352" type="curve" smooth="yes"/>
      <point x="17" y="346"/>
      <point x="18" y="335"/>
      <point x="22" y="325" type="curve"/>
      <point x="98" y="325" type="line"/>
      <point x="70" y="188" type="line" smooth="yes"/>
      <point x="63" y="154"/>
      <point x="17" y="127"/>
      <point x="10" y="121" type="curve" smooth="yes"/>
      <point x="-8" y="107"/>
      <point x="-22" y="86"/>
      <point x="-22" y="58" type="curve" smooth="yes"/>
      <point x="-22" y="35"/>
      <point x="-14" y="14"/>
      <point x="5" y="0" type="curve"/>
      <point x="20" y="8"/>
      <point x="58" y="11"/>
      <point x="78" y="11" type="curve" smooth="yes"/>
      <point x="161" y="11"/>
      <point x="280" y="-11"/>
      <point x="357" y="-11" type="curve" smooth="yes"/>
      <point x="445" y="-11"/>
      <point x="506" y="45"/>
      <point x="506" y="114" type="curve" smooth="yes"/>
      <point x="506" y="135"/>
      <point x="500" y="154"/>
      <point x="487" y="167" type="curve"/>
      <point x="460" y="148"/>
      <point x="433" y="141"/>
      <point x="382" y="141" type="curve" smooth="yes"/>
      <point x="338" y="141"/>
      <point x="236" y="146"/>
      <point x="145" y="155" type="curve"/>
      <point x="217" y="171"/>
      <point x="276" y="207"/>
      <point x="290" y="299" type="curve" smooth="yes"/>
      <point x="294" y="325" type="line"/>
      <point x="379" y="325" type="line" smooth="yes"/>
      <point x="431" y="325"/>
      <point x="455" y="344"/>
      <point x="455" y="372" type="curve" smooth="yes"/>
      <point x="455" y="380"/>
      <point x="453" y="390"/>
      <point x="449" y="400" type="curve"/>
      <point x="307" y="400" type="line"/>
      <point x="318" y="481" type="line" smooth="yes"/>
      <point x="330" y="566"/>
      <point x="362" y="596"/>
      <point x="393" y="596" type="curve" smooth="yes"/>
    </contour>
  </outline>
</glyph>
<glyph name="currency" format="1">
  <advance width="572"/>
  <unicode hex="00A4"/>
  <outline>
    <contour>
      <point x="198" y="515"/>
      <point x="104" y="450"/>
      <point x="104" y="310" type="curve" smooth="yes"/>
      <point x="104" y="196"/>
      <point x="157" y="156"/>
      <point x="275" y="156" type="curve" smooth="yes"/>
      <point x="400" y="156"/>
      <point x="485" y="219"/>
      <point x="485" y="356" type="curve" smooth="yes"/>
      <point x="485" y="469"/>
      <point x="426" y="515"/>
      <point x="310" y="515" type="curve" smooth="yes"/>
    </contour>
    <contour>
      <point x="46" y="161" type="line"/>
      <point x="110" y="96" type="line"/>
      <point x="200" y="185" type="line"/>
      <point x="140" y="245" type="line"/>
    </contour>
    <contour>
      <point x="335" y="417"/>
      <point x="360" y="390"/>
      <point x="360" y="340" type="curve" smooth="yes"/>
      <point x="360" y="292"/>
      <point x="337" y="253"/>
      <point x="287" y="253" type="curve" smooth="yes"/>
      <point x="248" y="253"/>
      <point x="229" y="278"/>
      <point x="229" y="324" type="curve" smooth="yes"/>
      <point x="229" y="379"/>
      <point x="256" y="417"/>
      <point x="299" y="417" type="curve" smooth="yes"/>
    </contour>
    <contour>
      <point x="63" y="505" type="line"/>
      <point x="160" y="418" type="line"/>
      <point x="221" y="476" type="line"/>
      <point x="117" y="579" type="line"/>
    </contour>
    <contour>
      <point x="380" y="200" type="line"/>
      <point x="480" y="102" type="line"/>
      <point x="539" y="172" type="line"/>
      <point x="437" y="262" type="line"/>
    </contour>
    <contour>
      <point x="380" y="487" type="line"/>
      <point x="444" y="430" type="line"/>
      <point x="540" y="516" type="line"/>
      <point x="476" y="581" type="line"/>
    </contour>
  </outline>
</glyph>
<glyph name="brokenbar" format="1">
  <advance width="272"/>
  <unicode hex="00A6"/>
  <outline>
    <contour>
      <point x="234" y="388" type="line"/>
      <point x="286" y="660" type="line"/>
      <point x="143" y="660" type="line"/>
      <point x="90" y="388" type="line"/>
    </contour>
    <contour>
      <point x="160" y="0" type="line"/>
      <point x="212" y="272" type="line"/>
      <point x="69" y="272" type="line"/>
      <point x="16" y="0" type="line"/>
    </contour>
  </outline>
</glyph>
<glyph name="section" format="1">
  <advance width="486"/>
  <unicode hex="00A7"/>
  <outline>
    <contour>
      <point x="211" y="680"/>
      <point x="110" y="609"/>
      <point x="110" y="484" type="curve" smooth="yes"/>
      <point x="110" y="429"/>
      <point x="130" y="406"/>
      <point x="172" y="369" type="curve"/>
      <point x="84" y="331"/>
      <point x="25" y="264"/>
      <point x="25" y="184" type="curve" smooth="yes"/>
      <point x="25" y="44"/>
      <point x="209" y="31"/>
      <point x="209" y="-57" type="curve" smooth="yes"/>
      <point x="209" y="-88"/>
      <point x="187" y="-128"/>
      <point x="148" y="-128" type="curve" smooth="yes"/>
      <point x="119" y="-128"/>
      <point x="104" y="-106"/>
      <point x="104" y="-68" type="curve" smooth="yes"/>
      <point x="104" y="-46"/>
      <point x="109" y="-19"/>
      <point x="118" y="2" type="curve"/>
      <point x="106" y="10"/>
      <point x="92" y="13"/>
      <point x="75" y="13" type="curve" smooth="yes"/>
      <point x="16" y="13"/>
      <point x="-18" y="-23"/>
      <point x="-18" y="-77" type="curve" smooth="yes"/>
      <point x="-18" y="-156"/>
      <point x="55" y="-180"/>
      <point x="128" y="-180" type="curve" smooth="yes"/>
      <point x="259" y="-180"/>
      <point x="356" y="-102"/>
      <point x="356" y="25" type="curve" smooth="yes"/>
      <point x="356" y="79"/>
      <point x="338" y="93"/>
      <point x="292" y="132" type="curve"/>
      <point x="379" y="170"/>
      <point x="441" y="252"/>
      <point x="441" y="325" type="curve" smooth="yes"/>
      <point x="441" y="451"/>
      <point x="258" y="472"/>
      <point x="258" y="555" type="curve" smooth="yes"/>
      <point x="258" y="585"/>
      <point x="283" y="628"/>
      <point x="321" y="628" type="curve" smooth="yes"/>
      <point x="352" y="628"/>
      <point x="363" y="600"/>
      <point x="363" y="568" type="curve" smooth="yes"/>
      <point x="363" y="544"/>
      <point x="357" y="520"/>
      <point x="348" y="498" type="curve"/>
      <point x="361" y="489"/>
      <point x="377" y="487"/>
      <point x="391" y="487" type="curve" smooth="yes"/>
      <point x="449" y="487"/>
      <point x="484" y="523"/>
      <point x="484" y="578" type="curve" smooth="yes"/>
      <point x="484" y="656"/>
      <point x="412" y="680"/>
      <point x="338" y="680" type="curve" smooth="yes"/>
    </contour>
    <contour>
      <point x="295" y="277"/>
      <point x="305" y="266"/>
      <point x="305" y="244" type="curve" smooth="yes"/>
      <point x="305" y="205"/>
      <point x="274" y="172"/>
      <point x="248" y="165" type="curve"/>
      <point x="172" y="219"/>
      <point x="160" y="232"/>
      <point x="160" y="256" type="curve" smooth="yes"/>
      <point x="160" y="293"/>
      <point x="189" y="326"/>
      <point x="218" y="334" type="curve"/>
    </contour>
  </outline>
</glyph>
<glyph name="dieresis" format="1">
  <advance width="426"/>
  <unicode hex="00A8"/>
  <outline>
    <component base="dotaccent" xOffset="241"/>
    <component base="dotaccent"/>
    <contour>
      <point x="273" y="510" type="move" name="_top"/>
    </contour>
  </outline>
</glyph>
<glyph name="copyright" format="1">
  <advance width="784"/>
  <unicode hex="00A9"/>
  <outline>
    <contour>
      <point x="31" y="12"/>
      <point x="131" y="-76"/>
      <point x="308" y="-76" type="curve" smooth="yes"/>
      <point x="569" y="-76"/>
      <point x="753" y="114"/>
      <point x="753" y="345" type="curve" smooth="yes"/>
      <point x="753" y="521"/>
      <point x="646" y="614"/>
      <point x="473" y="614" type="curve" smooth="yes"/>
      <point x="222" y="614"/>
      <point x="31" y="418"/>
      <point x="31" y="182" type="curve" smooth="yes"/>
    </contour>
    <contour>
      <point x="134" y="395"/>
      <point x="260" y="543"/>
      <point x="441" y="543" type="curve" smooth="yes"/>
      <point x="572" y="543"/>
      <point x="650" y="466"/>
      <point x="650" y="321" type="curve" smooth="yes"/>
      <point x="650" y="152"/>
      <point x="545" y="-7"/>
      <point x="337" y="-7" type="curve" smooth="yes"/>
      <point x="201" y="-7"/>
      <point x="134" y="61"/>
      <point x="134" y="202" type="curve" smooth="yes"/>
    </contour>
    <contour>
      <point x="452" y="427"/>
      <point x="459" y="418"/>
      <point x="459" y="396" type="curve" smooth="yes"/>
      <point x="459" y="376"/>
      <point x="453" y="343"/>
      <point x="446" y="327" type="curve"/>
      <point x="452" y="323"/>
      <point x="460" y="322"/>
      <point x="470" y="322" type="curve" smooth="yes"/>
      <point x="522" y="322"/>
      <point x="557" y="347"/>
      <point x="557" y="394" type="curve" smooth="yes"/>
      <point x="557" y="441"/>
      <point x="521" y="469"/>
      <point x="448" y="469" type="curve" smooth="yes"/>
      <point x="312" y="469"/>
      <point x="227" y="373"/>
      <point x="227" y="231" type="curve" smooth="yes"/>
      <point x="227" y="126"/>
      <point x="273" y="75"/>
      <point x="366" y="75" type="curve" smooth="yes"/>
      <point x="445" y="75"/>
      <point x="507" y="112"/>
      <point x="507" y="170" type="curve" smooth="yes"/>
      <point x="507" y="190"/>
      <point x="500" y="212"/>
      <point x="482" y="221" type="curve"/>
      <point x="467" y="186"/>
      <point x="440" y="165"/>
      <point x="405" y="165" type="curve" smooth="yes"/>
      <point x="370" y="165"/>
      <point x="355" y="187"/>
      <point x="355" y="234" type="curve" smooth="yes"/>
      <point x="355" y="318"/>
      <point x="402" y="427"/>
      <point x="441" y="427" type="curve" smooth="yes"/>
    </contour>
  </outline>
</glyph>
<glyph name="ordfeminine" format="1">
  <advance width="457"/>
  <unicode hex="00AA"/>
  <outline>
    <contour>
      <point x="352" y="660" type="line"/>
      <point x="332" y="669"/>
      <point x="310" y="674"/>
      <point x="281" y="674" type="curve" smooth="yes"/>
      <point x="153" y="674"/>
      <point x="65" y="575"/>
      <point x="65" y="440" type="curve" smooth="yes"/>
      <point x="65" y="343"/>
      <point x="110" y="280"/>
      <point x="193" y="280" type="curve" smooth="yes"/>
      <point x="238" y="280"/>
      <point x="273" y="298"/>
      <point x="291" y="321" type="curve"/>
      <point x="299" y="297"/>
      <point x="328" y="280"/>
      <point x="361" y="280" type="curve" smooth="yes"/>
      <point x="401" y="280"/>
      <point x="442" y="305"/>
      <point x="451" y="333" type="curve"/>
      <point x="433" y="333"/>
      <point x="421" y="354"/>
      <point x="421" y="376" type="curve" smooth="yes"/>
      <point x="421" y="385"/>
      <point x="423" y="396"/>
      <point x="425" y="404" type="curve" smooth="yes"/>
      <point x="476" y="674" type="line"/>
    </contour>
    <contour>
      <point x="104" y="236" type="line" smooth="yes"/>
      <point x="74" y="236"/>
      <point x="51" y="214"/>
      <point x="51" y="181" type="curve" smooth="yes"/>
      <point x="51" y="174"/>
      <point x="52" y="166"/>
      <point x="54" y="158" type="curve"/>
      <point x="345" y="158" type="line" smooth="yes"/>
      <point x="385" y="158"/>
      <point x="404" y="181"/>
      <point x="404" y="212" type="curve" smooth="yes"/>
      <point x="404" y="219"/>
      <point x="403" y="228"/>
      <point x="401" y="236" type="curve"/>
    </contour>
    <contour>
      <point x="309" y="636"/>
      <point x="319" y="632"/>
      <point x="328" y="625" type="curve"/>
      <point x="287" y="409" type="line" smooth="yes"/>
      <point x="277" y="355"/>
      <point x="254" y="322"/>
      <point x="228" y="322" type="curve" smooth="yes"/>
      <point x="205" y="322"/>
      <point x="202" y="346"/>
      <point x="202" y="377" type="curve" smooth="yes"/>
      <point x="202" y="421"/>
      <point x="208" y="475"/>
      <point x="219" y="518" type="curve" smooth="yes"/>
      <point x="237" y="588"/>
      <point x="267" y="636"/>
      <point x="299" y="636" type="curve" smooth="yes"/>
    </contour>
  </outline>
</glyph>
<glyph name="guillemotleft" format="1">
  <advance width="538"/>
  <unicode hex="00AB"/>
  <outline>
    <contour>
      <point x="21" y="317" type="line"/>
      <point x="116" y="126" type="line"/>
      <point x="233" y="126" type="line"/>
      <point x="185" y="317" type="line"/>
      <point x="308" y="510" type="line"/>
      <point x="188" y="510" type="line"/>
    </contour>
    <contour>
      <point x="250" y="317" type="line"/>
      <point x="345" y="126" type="line"/>
      <point x="462" y="126" type="line"/>
      <point x="414" y="317" type="line"/>
      <point x="537" y="510" type="line"/>
      <point x="417" y="510" type="line"/>
    </contour>
  </outline>
</glyph>
<glyph name="logicalnot" format="1">
  <advance width="572"/>
  <unicode hex="00AC"/>
  <outline>
    <contour>
      <point x="509" y="292" type="line"/>
      <point x="115" y="292" type="line" smooth="yes"/>
      <point x="72" y="292"/>
      <point x="41" y="262"/>
      <point x="41" y="217" type="curve" smooth="yes"/>
      <point x="41" y="209"/>
      <point x="42" y="200"/>
      <point x="45" y="190" type="curve"/>
      <point x="370" y="190" type="line"/>
      <point x="352" y="92" type="line" smooth="yes"/>
      <point x="349" y="75"/>
      <point x="347" y="61"/>
      <point x="347" y="49" type="curve" smooth="yes"/>
      <point x="347" y="11"/>
      <point x="364" y="-3"/>
      <point x="408" y="-3" type="curve" smooth="yes"/>
      <point x="424" y="-3"/>
      <point x="449" y="-1"/>
      <point x="454" y="1" type="curve"/>
    </contour>
  </outline>
</glyph>
<glyph name="uni00AD" format="1">
  <advance width="340"/>
  <unicode hex="00AD"/>
  <outline>
    <contour>
      <point x="69" y="295" type="line" smooth="yes"/>
      <point x="30" y="295"/>
      <point x="11" y="267"/>
      <point x="11" y="232" type="curve" smooth="yes"/>
      <point x="11" y="206"/>
      <point x="21" y="178"/>
      <point x="43" y="162" type="curve"/>
      <point x="53" y="178"/>
      <point x="64" y="187"/>
      <point x="92" y="187" type="curve" smooth="yes"/>
      <point x="265" y="187" type="line" smooth="yes"/>
      <point x="304" y="187"/>
      <point x="329" y="213"/>
      <point x="329" y="251" type="curve" smooth="yes"/>
      <point x="329" y="273"/>
      <point x="320" y="303"/>
      <point x="299" y="315" type="curve"/>
      <point x="292" y="301"/>
      <point x="277" y="295"/>
      <point x="256" y="295" type="curve" smooth="yes"/>
    </contour>
  </outline>
</glyph>
<glyph name="registered" format="1">
  <advance width="764"/>
  <unicode hex="00AE"/>
  <outline>
    <contour>
      <point x="222" y="679"/>
      <point x="31" y="483"/>
      <point x="31" y="247" type="curve" smooth="yes"/>
      <point x="31" y="77"/>
      <point x="131" y="-11"/>
      <point x="308" y="-11" type="curve" smooth="yes"/>
      <point x="569" y="-11"/>
      <point x="753" y="179"/>
      <point x="753" y="410" type="curve" smooth="yes"/>
      <point x="753" y="586"/>
      <point x="646" y="679"/>
      <point x="473" y="679" type="curve" smooth="yes"/>
    </contour>
    <contour>
      <point x="573" y="608"/>
      <point x="652" y="530"/>
      <point x="652" y="385" type="curve" smooth="yes"/>
      <point x="652" y="217"/>
      <point x="546" y="58"/>
      <point x="337" y="58" type="curve" smooth="yes"/>
      <point x="200" y="58"/>
      <point x="132" y="127"/>
      <point x="132" y="267" type="curve" smooth="yes"/>
      <point x="132" y="459"/>
      <point x="260" y="608"/>
      <point x="442" y="608" type="curve" smooth="yes"/>
    </contour>
    <contour>
      <point x="390" y="530"/>
      <point x="320" y="527"/>
      <point x="288" y="524" type="curve"/>
      <point x="218" y="151" type="line"/>
      <point x="327" y="151" type="line"/>
      <point x="387" y="486" type="line"/>
      <point x="401" y="487"/>
      <point x="405" y="488"/>
      <point x="413" y="488" type="curve" smooth="yes"/>
      <point x="447" y="488"/>
      <point x="463" y="470"/>
      <point x="463" y="431" type="curve" smooth="yes"/>
      <point x="463" y="379"/>
      <point x="435" y="344"/>
      <point x="381" y="344" type="curve" smooth="yes"/>
      <point x="371" y="344" type="line"/>
      <point x="385" y="182"/>
      <point x="417" y="142"/>
      <point x="468" y="142" type="curve" smooth="yes"/>
      <point x="508" y="142"/>
      <point x="536" y="167"/>
      <point x="543" y="208" type="curve"/>
      <point x="504" y="218"/>
      <point x="482" y="251"/>
      <point x="470" y="318" type="curve"/>
      <point x="529" y="331"/>
      <point x="568" y="377"/>
      <point x="568" y="438" type="curve" smooth="yes"/>
      <point x="568" y="503"/>
      <point x="525" y="530"/>
      <point x="424" y="530" type="curve" smooth="yes"/>
    </contour>
  </outline>
</glyph>
<glyph name="macron" format="1">
  <advance width="327"/>
  <unicode hex="00AF"/>
  <outline>
    <contour>
      <point x="158" y="714" type="line" smooth="yes"/>
      <point x="119" y="714"/>
      <point x="91" y="688"/>
      <point x="90" y="649" type="curve" smooth="yes"/>
      <point x="90" y="642"/>
      <point x="90" y="631"/>
      <point x="93" y="622" type="curve"/>
      <point x="327" y="622" type="line" smooth="yes"/>
      <point x="378" y="622"/>
      <point x="403" y="650"/>
      <point x="403" y="686" type="curve" smooth="yes"/>
      <point x="403" y="696"/>
      <point x="401" y="706"/>
      <point x="399" y="714" type="curve"/>
    </contour>
    <contour>
      <point x="209" y="510" type="move" name="_top"/>
    </contour>
  </outline>
</glyph>
<glyph name="degree" format="1">
  <advance width="350"/>
  <unicode hex="00B0"/>
  <outline>
    <contour>
      <point x="279" y="370"/>
      <point x="374" y="441"/>
      <point x="374" y="556" type="curve" smooth="yes"/>
      <point x="374" y="641"/>
      <point x="323" y="684"/>
      <point x="240" y="684" type="curve" smooth="yes"/>
      <point x="135" y="684"/>
      <point x="36" y="614"/>
      <point x="36" y="498" type="curve" smooth="yes"/>
      <point x="36" y="413"/>
      <point x="89" y="370"/>
      <point x="172" y="370" type="curve" smooth="yes"/>
    </contour>
    <contour>
      <point x="148" y="430"/>
      <point x="140" y="463"/>
      <point x="140" y="493" type="curve" smooth="yes"/>
      <point x="140" y="554"/>
      <point x="172" y="619"/>
      <point x="226" y="619" type="curve" smooth="yes"/>
      <point x="261" y="619"/>
      <point x="274" y="591"/>
      <point x="274" y="553" type="curve" smooth="yes"/>
      <point x="274" y="488"/>
      <point x="235" y="430"/>
      <point x="185" y="430" type="curve" smooth="yes"/>
    </contour>
  </outline>
</glyph>
<glyph name="plusminus" format="1">
  <advance width="572"/>
  <unicode hex="00B1"/>
  <outline>
    <contour>
      <point x="246" y="344" type="line"/>
      <point x="169" y="344" type="line" smooth="yes"/>
      <point x="126" y="344"/>
      <point x="96" y="313"/>
      <point x="96" y="270" type="curve" smooth="yes"/>
      <point x="96" y="262"/>
      <point x="97" y="257"/>
      <point x="100" y="247" type="curve"/>
      <point x="228" y="247" type="line"/>
      <point x="205" y="125" type="line"/>
      <point x="220" y="120"/>
      <point x="236" y="118"/>
      <point x="249" y="118" type="curve" smooth="yes"/>
      <point x="292" y="118"/>
      <point x="317" y="140"/>
      <point x="325" y="179" type="curve" smooth="yes"/>
      <point x="338" y="247" type="line"/>
      <point x="407" y="247" type="line" smooth="yes"/>
      <point x="459" y="247"/>
      <point x="486" y="271"/>
      <point x="486" y="313" type="curve" smooth="yes"/>
      <point x="486" y="324"/>
      <point x="484" y="332"/>
      <point x="481" y="344" type="curve"/>
      <point x="358" y="344" type="line"/>
      <point x="379" y="459" type="line"/>
      <point x="366" y="464"/>
      <point x="352" y="466"/>
      <point x="340" y="466" type="curve" smooth="yes"/>
      <point x="293" y="466"/>
      <point x="264" y="436"/>
      <point x="257" y="399" type="curve" smooth="yes"/>
    </contour>
    <contour>
      <point x="125" y="92" type="line" smooth="yes"/>
      <point x="81" y="92"/>
      <point x="56" y="68"/>
      <point x="56" y="28" type="curve" smooth="yes"/>
      <point x="56" y="20"/>
      <point x="57" y="11"/>
      <point x="60" y="0" type="curve"/>
      <point x="363" y="0" type="line" smooth="yes"/>
      <point x="414" y="0"/>
      <point x="441" y="22"/>
      <point x="441" y="61" type="curve" smooth="yes"/>
      <point x="441" y="71"/>
      <point x="439" y="81"/>
      <point x="436" y="92" type="curve"/>
    </contour>
  </outline>
</glyph>
<glyph name="uni00B2" format="1">
  <advance width="342"/>
  <unicode hex="00B2"/>
  <outline>
    <contour>
      <point x="172" y="680"/>
      <point x="94" y="650"/>
      <point x="94" y="593" type="curve" smooth="yes"/>
      <point x="94" y="569"/>
      <point x="108" y="550"/>
      <point x="127" y="550" type="curve"/>
      <point x="141" y="580"/>
      <point x="171" y="599"/>
      <point x="207" y="599" type="curve" smooth="yes"/>
      <point x="231" y="599"/>
      <point x="249" y="590"/>
      <point x="249" y="561" type="curve" smooth="yes"/>
      <point x="249" y="535"/>
      <point x="234" y="514"/>
      <point x="210" y="495" type="curve" smooth="yes"/>
      <point x="151" y="447"/>
      <point x="64" y="397"/>
      <point x="64" y="342" type="curve" smooth="yes"/>
      <point x="64" y="325"/>
      <point x="72" y="302"/>
      <point x="83" y="293" type="curve"/>
      <point x="88" y="298"/>
      <point x="98" y="301"/>
      <point x="113" y="301" type="curve" smooth="yes"/>
      <point x="148" y="301"/>
      <point x="189" y="286"/>
      <point x="245" y="286" type="curve" smooth="yes"/>
      <point x="291" y="286"/>
      <point x="342" y="298"/>
      <point x="342" y="357" type="curve" smooth="yes"/>
      <point x="342" y="372"/>
      <point x="339" y="385"/>
      <point x="327" y="402" type="curve"/>
      <point x="313" y="388"/>
      <point x="291" y="385"/>
      <point x="266" y="385" type="curve" smooth="yes"/>
      <point x="240" y="385"/>
      <point x="202" y="388"/>
      <point x="172" y="394" type="curve"/>
      <point x="211" y="419"/>
      <point x="238" y="436"/>
      <point x="284" y="468" type="curve" smooth="yes"/>
      <point x="339" y="507"/>
      <point x="357" y="545"/>
      <point x="357" y="584" type="curve" smooth="yes"/>
      <point x="357" y="654"/>
      <point x="299" y="680"/>
      <point x="238" y="680" type="curve" smooth="yes"/>
    </contour>
  </outline>
</glyph>
<glyph name="uni00B3" format="1">
  <advance width="322"/>
  <unicode hex="00B3"/>
  <outline>
    <contour>
      <point x="136" y="459" type="line"/>
      <point x="183" y="459"/>
      <point x="206" y="441"/>
      <point x="206" y="408" type="curve" smooth="yes"/>
      <point x="206" y="373"/>
      <point x="182" y="354"/>
      <point x="144" y="354" type="curve" smooth="yes"/>
      <point x="112" y="354"/>
      <point x="84" y="366"/>
      <point x="68" y="394" type="curve"/>
      <point x="57" y="385"/>
      <point x="46" y="368"/>
      <point x="46" y="347" type="curve" smooth="yes"/>
      <point x="46" y="306"/>
      <point x="84" y="281"/>
      <point x="154" y="281" type="curve" smooth="yes"/>
      <point x="257" y="281"/>
      <point x="321" y="336"/>
      <point x="321" y="407" type="curve" smooth="yes"/>
      <point x="321" y="456"/>
      <point x="292" y="487"/>
      <point x="246" y="498" type="curve"/>
      <point x="302" y="519"/>
      <point x="337" y="556"/>
      <point x="337" y="603" type="curve" smooth="yes"/>
      <point x="337" y="656"/>
      <point x="291" y="681"/>
      <point x="232" y="681" type="curve" smooth="yes"/>
      <point x="175" y="681"/>
      <point x="92" y="656"/>
      <point x="92" y="596" type="curve" smooth="yes"/>
      <point x="92" y="579"/>
      <point x="99" y="567"/>
      <point x="112" y="565" type="curve"/>
      <point x="134" y="587"/>
      <point x="158" y="600"/>
      <point x="186" y="600" type="curve" smooth="yes"/>
      <point x="213" y="600"/>
      <point x="229" y="587"/>
      <point x="229" y="566" type="curve" smooth="yes"/>
      <point x="229" y="536"/>
      <point x="197" y="519"/>
      <point x="146" y="510" type="curve"/>
    </contour>
  </outline>
</glyph>
<glyph name="acute" format="1">
  <advance width="282"/>
  <unicode hex="00B4"/>
  <outline>
    <contour>
      <point x="102" y="582" type="line"/>
      <point x="225" y="605" type="line" smooth="yes"/>
      <point x="293" y="618"/>
      <point x="353" y="641"/>
      <point x="353" y="710" type="curve" smooth="yes"/>
      <point x="353" y="739"/>
      <point x="343" y="766"/>
      <point x="317" y="776" type="curve"/>
      <point x="81" y="630" type="line"/>
    </contour>
    <contour>
      <point x="173" y="510" type="move" name="_top"/>
    </contour>
  </outline>
</glyph>
<glyph name="paragraph" format="1">
  <advance width="772"/>
  <unicode hex="00B6"/>
  <outline>
    <contour>
      <point x="505" y="660" type="line"/>
      <point x="474" y="670"/>
      <point x="443" y="675"/>
      <point x="404" y="675" type="curve" smooth="yes"/>
      <point x="224" y="675"/>
      <point x="91" y="573"/>
      <point x="91" y="406" type="curve" smooth="yes"/>
      <point x="91" y="303"/>
      <point x="141" y="253"/>
      <point x="234" y="253" type="curve" smooth="yes"/>
      <point x="260" y="253"/>
      <point x="302" y="257"/>
      <point x="331" y="268" type="curve"/>
      <point x="276" y="-10" type="line" smooth="yes"/>
      <point x="262" y="-79"/>
      <point x="235" y="-124"/>
      <point x="163" y="-124" type="curve" smooth="yes"/>
      <point x="132" y="-124"/>
      <point x="96" y="-116"/>
      <point x="74" y="-105" type="curve"/>
      <point x="71" y="-110"/>
      <point x="70" y="-117"/>
      <point x="70" y="-124" type="curve" smooth="yes"/>
      <point x="70" y="-172"/>
      <point x="115" y="-200"/>
      <point x="189" y="-200" type="curve" smooth="yes"/>
      <point x="298" y="-200"/>
      <point x="355" y="-139"/>
      <point x="375" y="-34" type="curve" smooth="yes"/>
    </contour>
    <contour>
      <point x="589" y="660" type="line"/>
      <point x="455" y="-20" type="line"/>
      <point x="565" y="0" type="line"/>
      <point x="673" y="588" type="line"/>
      <point x="682" y="585"/>
      <point x="700" y="583"/>
      <point x="716" y="583" type="curve" smooth="yes"/>
      <point x="771" y="583"/>
      <point x="795" y="606"/>
      <point x="801" y="664" type="curve"/>
      <point x="779" y="661"/>
      <point x="751" y="660"/>
      <point x="702" y="660" type="curve" smooth="yes"/>
    </contour>
  </outline>
</glyph>
<glyph name="periodcentered" format="1">
  <advance width="256"/>
  <unicode hex="00B7"/>
  <outline>
    <component base="period" xOffset="48" yOffset="180"/>
    <contour>
      <point x="116" y="239" type="move" name="_center"/>
    </contour>
  </outline>
</glyph>
<glyph name="cedilla" format="1">
  <advance width="452"/>
  <unicode hex="00B8"/>
  <outline>
    <contour>
      <point x="193" y="11" type="line"/>
      <point x="156" y="-112" type="line"/>
      <point x="170" y="-111"/>
      <point x="182" y="-110"/>
      <point x="198" y="-110" type="curve" smooth="yes"/>
      <point x="225" y="-110"/>
      <point x="256" y="-116"/>
      <point x="256" y="-147" type="curve" smooth="yes"/>
      <point x="256" y="-178"/>
      <point x="236" y="-190"/>
      <point x="205" y="-190" type="curve" smooth="yes"/>
      <point x="166" y="-190"/>
      <point x="146" y="-178"/>
      <point x="133" y="-158" type="curve"/>
      <point x="121" y="-169"/>
      <point x="115" y="-188"/>
      <point x="115" y="-205" type="curve" smooth="yes"/>
      <point x="115" y="-238"/>
      <point x="152" y="-258"/>
      <point x="210" y="-258" type="curve" smooth="yes"/>
      <point x="302" y="-258"/>
      <point x="377" y="-209"/>
      <point x="377" y="-138" type="curve" smooth="yes"/>
      <point x="377" y="-80"/>
      <point x="327" y="-57"/>
      <point x="267" y="-57" type="curve" smooth="yes"/>
      <point x="252" y="-57"/>
      <point x="224" y="-58"/>
      <point x="219" y="-60" type="curve"/>
      <point x="230" y="-73" type="line"/>
      <point x="255" y="11" type="line"/>
    </contour>
    <contour>
      <point x="226" y="0" type="move" name="_bottom"/>
    </contour>
  </outline>
</glyph>
<glyph name="uni00B9" format="1">
  <advance width="319"/>
  <unicode hex="00B9"/>
  <outline>
    <contour>
      <point x="263" y="676" type="line"/>
      <point x="180" y="639"/>
      <point x="121" y="618"/>
      <point x="62" y="609" type="curve"/>
      <point x="65" y="577"/>
      <point x="82" y="552"/>
      <point x="113" y="552" type="curve" smooth="yes"/>
      <point x="130" y="552"/>
      <point x="154" y="560"/>
      <point x="166" y="570" type="curve"/>
      <point x="119" y="359" type="line"/>
      <point x="82" y="359" type="line" smooth="yes"/>
      <point x="52" y="359"/>
      <point x="36" y="340"/>
      <point x="36" y="309" type="curve" smooth="yes"/>
      <point x="36" y="306"/>
      <point x="37" y="294"/>
      <point x="39" y="289" type="curve"/>
      <point x="55" y="291"/>
      <point x="72" y="291"/>
      <point x="74" y="291" type="curve" smooth="yes"/>
      <point x="130" y="291"/>
      <point x="212" y="287"/>
      <point x="241" y="287" type="curve" smooth="yes"/>
      <point x="289" y="287"/>
      <point x="311" y="298"/>
      <point x="311" y="333" type="curve" smooth="yes"/>
      <point x="311" y="350"/>
      <point x="307" y="360"/>
      <point x="304" y="366" type="curve"/>
      <point x="294" y="362"/>
      <point x="276" y="359"/>
      <point x="252" y="359" type="curve" smooth="yes"/>
      <point x="237" y="359" type="line"/>
      <point x="292" y="658" type="line"/>
    </contour>
  </outline>
</glyph>
<glyph name="ordmasculine" format="1">
  <advance width="449"/>
  <unicode hex="00BA"/>
  <outline>
    <contour>
      <point x="448" y="631"/>
      <point x="384" y="674"/>
      <point x="290" y="674" type="curve" smooth="yes"/>
      <point x="136" y="674"/>
      <point x="64" y="558"/>
      <point x="64" y="432" type="curve" smooth="yes"/>
      <point x="64" y="332"/>
      <point x="110" y="280"/>
      <point x="215" y="280" type="curve" smooth="yes"/>
      <point x="352" y="280"/>
      <point x="448" y="369"/>
      <point x="448" y="513" type="curve" smooth="yes"/>
    </contour>
    <contour>
      <point x="209" y="322"/>
      <point x="200" y="338"/>
      <point x="200" y="385" type="curve" smooth="yes"/>
      <point x="200" y="483"/>
      <point x="239" y="632"/>
      <point x="290" y="632" type="curve" smooth="yes"/>
      <point x="308" y="632"/>
      <point x="313" y="614"/>
      <point x="313" y="576" type="curve" smooth="yes"/>
      <point x="313" y="464"/>
      <point x="271" y="322"/>
      <point x="225" y="322" type="curve" smooth="yes"/>
    </contour>
    <contour>
      <point x="312" y="158" type="line" smooth="yes"/>
      <point x="353" y="158"/>
      <point x="372" y="183"/>
      <point x="372" y="213" type="curve" smooth="yes"/>
      <point x="372" y="222"/>
      <point x="370" y="229"/>
      <point x="368" y="236" type="curve"/>
      <point x="90" y="236" type="line" smooth="yes"/>
      <point x="60" y="236"/>
      <point x="37" y="213"/>
      <point x="37" y="182" type="curve" smooth="yes"/>
      <point x="37" y="171"/>
      <point x="40" y="166"/>
      <point x="41" y="158" type="curve"/>
    </contour>
  </outline>
</glyph>
<glyph name="guillemotright" format="1">
  <advance width="540"/>
  <unicode hex="00BB"/>
  <outline>
    <contour>
      <point x="179" y="510" type="line"/>
      <point x="59" y="510" type="line"/>
      <point x="110" y="317" type="line"/>
      <point x="-9" y="126" type="line"/>
      <point x="108" y="126" type="line"/>
      <point x="274" y="317" type="line"/>
    </contour>
    <contour>
      <point x="408" y="510" type="line"/>
      <point x="288" y="510" type="line"/>
      <point x="339" y="317" type="line"/>
      <point x="220" y="126" type="line"/>
      <point x="337" y="126" type="line"/>
      <point x="503" y="317" type="line"/>
    </contour>
  </outline>
</glyph>
<glyph name="onequarter" format="1">
  <advance width="805"/>
  <unicode hex="00BC"/>
  <outline>
    <contour>
      <point x="197" y="-37" type="line" smooth="yes"/>
      <point x="193" y="-47"/>
      <point x="191" y="-55"/>
      <point x="191" y="-62" type="curve" smooth="yes"/>
      <point x="191" y="-81"/>
      <point x="206" y="-91"/>
      <point x="237" y="-91" type="curve" smooth="yes"/>
      <point x="250" y="-91"/>
      <point x="265" y="-89"/>
      <point x="268" y="-88" type="curve"/>
      <point x="591" y="652" type="line" smooth="yes"/>
      <point x="598" y="669"/>
      <point x="600" y="682"/>
      <point x="600" y="690" type="curve" smooth="yes"/>
      <point x="600" y="714"/>
      <point x="584" y="720"/>
      <point x="551" y="720" type="curve" smooth="yes"/>
      <point x="538" y="720"/>
      <point x="531" y="719"/>
      <point x="524" y="718" type="curve"/>
    </contour>
    <contour>
      <point x="277" y="679" type="line"/>
      <point x="192" y="639"/>
      <point x="130" y="617"/>
      <point x="71" y="608" type="curve"/>
      <point x="74" y="583"/>
      <point x="89" y="552"/>
      <point x="125" y="552" type="curve" smooth="yes"/>
      <point x="138" y="552"/>
      <point x="159" y="556"/>
      <point x="172" y="569" type="curve"/>
      <point x="125" y="353" type="line"/>
      <point x="95" y="353" type="line" smooth="yes"/>
      <point x="66" y="353"/>
      <point x="51" y="331"/>
      <point x="51" y="303" type="curve" smooth="yes"/>
      <point x="51" y="296"/>
      <point x="52" y="289"/>
      <point x="54" y="282" type="curve"/>
      <point x="66" y="285"/>
      <point x="83" y="285"/>
      <point x="95" y="285" type="curve" smooth="yes"/>
      <point x="142" y="285"/>
      <point x="213" y="281"/>
      <point x="240" y="281" type="curve" smooth="yes"/>
      <point x="287" y="281"/>
      <point x="308" y="293"/>
      <point x="308" y="326" type="curve" smooth="yes"/>
      <point x="308" y="339"/>
      <point x="305" y="351"/>
      <point x="300" y="359" type="curve"/>
      <point x="291" y="356"/>
      <point x="275" y="353"/>
      <point x="252" y="353" type="curve" smooth="yes"/>
      <point x="237" y="353" type="line"/>
      <point x="294" y="657" type="line"/>
    </contour>
    <contour>
      <point x="446" y="153" type="line"/>
      <point x="449" y="88" type="line"/>
      <point x="493" y="77"/>
      <point x="539" y="71"/>
      <point x="580" y="69" type="curve"/>
      <point x="577" y="49" type="line" smooth="yes"/>
      <point x="576" y="43"/>
      <point x="575" y="35"/>
      <point x="575" y="29" type="curve" smooth="yes"/>
      <point x="575" y="3"/>
      <point x="591" y="-12"/>
      <point x="627" y="-12" type="curve" smooth="yes"/>
      <point x="645" y="-12"/>
      <point x="658" y="-8"/>
      <point x="668" y="0" type="curve"/>
      <point x="678" y="67" type="line"/>
      <point x="731" y="71"/>
      <point x="754" y="90"/>
      <point x="754" y="121" type="curve" smooth="yes"/>
      <point x="754" y="135"/>
      <point x="749" y="151"/>
      <point x="743" y="161" type="curve"/>
      <point x="732" y="154"/>
      <point x="720" y="150"/>
      <point x="692" y="147" type="curve"/>
      <point x="706" y="226"/>
      <point x="724" y="309"/>
      <point x="741" y="380" type="curve"/>
      <point x="658" y="388" type="line"/>
    </contour>
    <contour>
      <point x="633" y="293" type="line"/>
      <point x="619" y="251"/>
      <point x="606" y="202"/>
      <point x="594" y="146" type="curve"/>
      <point x="564" y="146"/>
      <point x="536" y="148"/>
      <point x="509" y="151" type="curve"/>
    </contour>
  </outline>
</glyph>
<glyph name="onehalf" format="1">
  <advance width="807"/>
  <unicode hex="00BD"/>
  <outline>
    <contour>
      <point x="197" y="-37" type="line" smooth="yes"/>
      <point x="193" y="-47"/>
      <point x="191" y="-55"/>
      <point x="191" y="-62" type="curve" smooth="yes"/>
      <point x="191" y="-81"/>
      <point x="206" y="-91"/>
      <point x="237" y="-91" type="curve" smooth="yes"/>
      <point x="250" y="-91"/>
      <point x="265" y="-89"/>
      <point x="268" y="-88" type="curve"/>
      <point x="591" y="652" type="line" smooth="yes"/>
      <point x="598" y="669"/>
      <point x="600" y="682"/>
      <point x="600" y="690" type="curve" smooth="yes"/>
      <point x="600" y="714"/>
      <point x="584" y="720"/>
      <point x="551" y="720" type="curve" smooth="yes"/>
      <point x="538" y="720"/>
      <point x="531" y="719"/>
      <point x="524" y="718" type="curve"/>
    </contour>
    <contour>
      <point x="277" y="679" type="line"/>
      <point x="192" y="639"/>
      <point x="130" y="617"/>
      <point x="71" y="608" type="curve"/>
      <point x="74" y="583"/>
      <point x="89" y="552"/>
      <point x="125" y="552" type="curve" smooth="yes"/>
      <point x="138" y="552"/>
      <point x="159" y="556"/>
      <point x="172" y="569" type="curve"/>
      <point x="125" y="353" type="line"/>
      <point x="95" y="353" type="line" smooth="yes"/>
      <point x="66" y="353"/>
      <point x="51" y="331"/>
      <point x="51" y="303" type="curve" smooth="yes"/>
      <point x="51" y="296"/>
      <point x="52" y="289"/>
      <point x="54" y="282" type="curve"/>
      <point x="66" y="285"/>
      <point x="83" y="285"/>
      <point x="95" y="285" type="curve" smooth="yes"/>
      <point x="142" y="285"/>
      <point x="213" y="281"/>
      <point x="240" y="281" type="curve" smooth="yes"/>
      <point x="287" y="281"/>
      <point x="308" y="293"/>
      <point x="308" y="326" type="curve" smooth="yes"/>
      <point x="308" y="339"/>
      <point x="305" y="351"/>
      <point x="300" y="359" type="curve"/>
      <point x="291" y="356"/>
      <point x="275" y="353"/>
      <point x="252" y="353" type="curve" smooth="yes"/>
      <point x="237" y="353" type="line"/>
      <point x="294" y="657" type="line"/>
    </contour>
    <contour>
      <point x="503" y="117" type="line" smooth="yes"/>
      <point x="478" y="97"/>
      <point x="463" y="79"/>
      <point x="463" y="52" type="curve" smooth="yes"/>
      <point x="463" y="31"/>
      <point x="471" y="9"/>
      <point x="482" y="0" type="curve"/>
      <point x="487" y="5"/>
      <point x="496" y="9"/>
      <point x="513" y="9" type="curve" smooth="yes"/>
      <point x="546" y="9"/>
      <point x="590" y="-7"/>
      <point x="644" y="-7" type="curve" smooth="yes"/>
      <point x="711" y="-7"/>
      <point x="741" y="18"/>
      <point x="741" y="64" type="curve" smooth="yes"/>
      <point x="741" y="79"/>
      <point x="738" y="92"/>
      <point x="726" y="109" type="curve"/>
      <point x="712" y="95"/>
      <point x="690" y="92"/>
      <point x="665" y="92" type="curve" smooth="yes"/>
      <point x="639" y="92"/>
      <point x="601" y="95"/>
      <point x="571" y="101" type="curve"/>
      <point x="603" y="121"/>
      <point x="656" y="155"/>
      <point x="683" y="175" type="curve" smooth="yes"/>
      <point x="729" y="209"/>
      <point x="756" y="243"/>
      <point x="756" y="291" type="curve" smooth="yes"/>
      <point x="756" y="361"/>
      <point x="699" y="387"/>
      <point x="637" y="387" type="curve" smooth="yes"/>
      <point x="571" y="387"/>
      <point x="493" y="357"/>
      <point x="493" y="300" type="curve" smooth="yes"/>
      <point x="493" y="276"/>
      <point x="507" y="258"/>
      <point x="526" y="257" type="curve"/>
      <point x="539" y="286"/>
      <point x="570" y="307"/>
      <point x="606" y="307" type="curve" smooth="yes"/>
      <point x="629" y="307"/>
      <point x="648" y="298"/>
      <point x="648" y="268" type="curve" smooth="yes"/>
      <point x="648" y="241"/>
      <point x="632" y="220"/>
      <point x="609" y="202" type="curve" smooth="yes"/>
    </contour>
  </outline>
</glyph>
<glyph name="threequarters" format="1">
  <advance width="808"/>
  <unicode hex="00BE"/>
  <outline>
    <contour>
      <point x="200" y="-37" type="line" smooth="yes"/>
      <point x="196" y="-47"/>
      <point x="194" y="-55"/>
      <point x="194" y="-62" type="curve" smooth="yes"/>
      <point x="194" y="-81"/>
      <point x="209" y="-91"/>
      <point x="240" y="-91" type="curve" smooth="yes"/>
      <point x="253" y="-91"/>
      <point x="268" y="-89"/>
      <point x="271" y="-88" type="curve"/>
      <point x="594" y="652" type="line" smooth="yes"/>
      <point x="601" y="669"/>
      <point x="603" y="682"/>
      <point x="603" y="690" type="curve" smooth="yes"/>
      <point x="603" y="714"/>
      <point x="587" y="720"/>
      <point x="554" y="720" type="curve" smooth="yes"/>
      <point x="541" y="720"/>
      <point x="534" y="719"/>
      <point x="527" y="718" type="curve"/>
    </contour>
    <contour>
      <point x="122" y="453" type="line"/>
      <point x="171" y="453"/>
      <point x="192" y="434"/>
      <point x="192" y="401" type="curve" smooth="yes"/>
      <point x="192" y="366"/>
      <point x="168" y="346"/>
      <point x="130" y="346" type="curve" smooth="yes"/>
      <point x="99" y="346"/>
      <point x="69" y="359"/>
      <point x="54" y="388" type="curve"/>
      <point x="40" y="377"/>
      <point x="31" y="359"/>
      <point x="31" y="339" type="curve" smooth="yes"/>
      <point x="31" y="299"/>
      <point x="69" y="272"/>
      <point x="140" y="272" type="curve" smooth="yes"/>
      <point x="245" y="272"/>
      <point x="309" y="330"/>
      <point x="309" y="401" type="curve" smooth="yes"/>
      <point x="309" y="446"/>
      <point x="284" y="480"/>
      <point x="233" y="493" type="curve"/>
      <point x="289" y="513"/>
      <point x="325" y="552"/>
      <point x="325" y="599" type="curve" smooth="yes"/>
      <point x="325" y="652"/>
      <point x="278" y="677"/>
      <point x="219" y="677" type="curve" smooth="yes"/>
      <point x="162" y="677"/>
      <point x="78" y="653"/>
      <point x="78" y="591" type="curve" smooth="yes"/>
      <point x="78" y="578"/>
      <point x="82" y="563"/>
      <point x="98" y="560" type="curve"/>
      <point x="121" y="584"/>
      <point x="146" y="596"/>
      <point x="172" y="596" type="curve" smooth="yes"/>
      <point x="199" y="596"/>
      <point x="216" y="583"/>
      <point x="216" y="561" type="curve" smooth="yes"/>
      <point x="216" y="533"/>
      <point x="187" y="514"/>
      <point x="132" y="505" type="curve"/>
    </contour>
    <contour>
      <point x="449" y="153" type="line"/>
      <point x="452" y="88" type="line"/>
      <point x="496" y="77"/>
      <point x="542" y="71"/>
      <point x="583" y="69" type="curve"/>
      <point x="580" y="49" type="line" smooth="yes"/>
      <point x="579" y="43"/>
      <point x="578" y="35"/>
      <point x="578" y="29" type="curve" smooth="yes"/>
      <point x="578" y="3"/>
      <point x="594" y="-12"/>
      <point x="630" y="-12" type="curve" smooth="yes"/>
      <point x="648" y="-12"/>
      <point x="661" y="-8"/>
      <point x="671" y="0" type="curve"/>
      <point x="681" y="67" type="line"/>
      <point x="734" y="71"/>
      <point x="757" y="90"/>
      <point x="757" y="121" type="curve" smooth="yes"/>
      <point x="757" y="135"/>
      <point x="752" y="151"/>
      <point x="746" y="161" type="curve"/>
      <point x="735" y="154"/>
      <point x="723" y="150"/>
      <point x="695" y="147" type="curve"/>
      <point x="709" y="226"/>
      <point x="727" y="309"/>
      <point x="744" y="380" type="curve"/>
      <point x="661" y="388" type="line"/>
    </contour>
    <contour>
      <point x="636" y="293" type="line"/>
      <point x="622" y="251"/>
      <point x="609" y="202"/>
      <point x="597" y="146" type="curve"/>
      <point x="567" y="146"/>
      <point x="539" y="148"/>
      <point x="512" y="151" type="curve"/>
    </contour>
  </outline>
</glyph>
<glyph name="questiondown" format="1">
  <advance width="498"/>
  <unicode hex="00BF"/>
  <outline>
    <contour>
      <point x="-30" y="-139"/>
      <point x="66" y="-170"/>
      <point x="190" y="-170" type="curve" smooth="yes"/>
      <point x="298" y="-170"/>
      <point x="449" y="-140"/>
      <point x="449" y="-40" type="curve" smooth="yes"/>
      <point x="449" y="21"/>
      <point x="394" y="37"/>
      <point x="337" y="37" type="curve" smooth="yes"/>
      <point x="317" y="37"/>
      <point x="290" y="35"/>
      <point x="275" y="31" type="curve"/>
      <point x="282" y="16"/>
      <point x="284" y="-1"/>
      <point x="284" y="-14" type="curve" smooth="yes"/>
      <point x="284" y="-69"/>
      <point x="251" y="-110"/>
      <point x="199" y="-110" type="curve" smooth="yes"/>
      <point x="165" y="-110"/>
      <point x="153" y="-92"/>
      <point x="153" y="-63" type="curve" smooth="yes"/>
      <point x="153" y="75"/>
      <point x="395" y="87"/>
      <point x="395" y="243" type="curve" smooth="yes"/>
      <point x="395" y="294"/>
      <point x="366" y="331"/>
      <point x="328" y="331" type="curve"/>
      <point x="328" y="214"/>
      <point x="-30" y="144"/>
      <point x="-30" y="-45" type="curve" smooth="yes"/>
    </contour>
    <component base="period" xOffset="284" yOffset="398"/>
  </outline>
</glyph>
<glyph name="AE" format="1">
  <advance width="759"/>
  <unicode hex="00C6"/>
  <outline>
    <contour>
      <point x="332" y="177" type="line"/>
      <point x="332" y="172"/>
      <point x="331" y="160"/>
      <point x="331" y="147" type="curve" smooth="yes"/>
      <point x="331" y="28"/>
      <point x="421" y="-20"/>
      <point x="544" y="-20" type="curve" smooth="yes"/>
      <point x="624" y="-20"/>
      <point x="717" y="0"/>
      <point x="717" y="90" type="curve" smooth="yes"/>
      <point x="717" y="103"/>
      <point x="715" y="122"/>
      <point x="708" y="139" type="curve"/>
      <point x="676" y="127"/>
      <point x="637" y="123"/>
      <point x="605" y="123" type="curve" smooth="yes"/>
      <point x="542" y="123"/>
      <point x="514" y="139"/>
      <point x="514" y="202" type="curve" smooth="yes"/>
      <point x="514" y="229"/>
      <point x="519" y="262"/>
      <point x="526" y="298" type="curve"/>
      <point x="555" y="283"/>
      <point x="595" y="275"/>
      <point x="624" y="275" type="curve" smooth="yes"/>
      <point x="689" y="275"/>
      <point x="727" y="314"/>
      <point x="727" y="387" type="curve"/>
      <point x="538" y="387" type="line"/>
      <point x="562" y="562" type="line"/>
      <point x="600" y="544"/>
      <point x="646" y="535"/>
      <point x="680" y="535" type="curve" smooth="yes"/>
      <point x="751" y="535"/>
      <point x="801" y="575"/>
      <point x="801" y="660" type="curve"/>
      <point x="323" y="660" type="line"/>
      <point x="-64" y="0" type="line"/>
      <point x="92" y="0" type="line"/>
      <point x="118" y="59"/>
      <point x="146" y="118"/>
      <point x="175" y="177" type="curve"/>
    </contour>
    <contour>
      <point x="213" y="254" type="line"/>
      <point x="266" y="357"/>
      <point x="323" y="459"/>
      <point x="386" y="562" type="curve"/>
      <point x="363" y="405"/>
      <point x="350" y="312"/>
      <point x="342" y="254" type="curve"/>
    </contour>
    <contour>
      <point x="466" y="660" type="move" name="top"/>
    </contour>
  </outline>
</glyph>
<glyph name="multiply" format="1">
  <advance width="572"/>
  <unicode hex="00D7"/>
  <outline>
    <contour>
      <point x="331" y="211" type="line"/>
      <point x="514" y="398" type="line"/>
      <point x="506" y="432"/>
      <point x="491" y="448"/>
      <point x="467" y="448" type="curve" smooth="yes"/>
      <point x="442" y="448"/>
      <point x="420" y="438"/>
      <point x="401" y="418" type="curve" smooth="yes"/>
      <point x="281" y="295" type="line"/>
    </contour>
    <contour>
      <point x="220" y="251" type="line"/>
      <point x="28" y="55" type="line"/>
      <point x="38" y="28"/>
      <point x="59" y="11"/>
      <point x="84" y="11" type="curve" smooth="yes"/>
      <point x="110" y="11"/>
      <point x="129" y="20"/>
      <point x="147" y="39" type="curve" smooth="yes"/>
      <point x="268" y="166" type="line"/>
    </contour>
    <contour>
      <point x="362" y="10" type="line"/>
      <point x="408" y="11"/>
      <point x="441" y="43"/>
      <point x="441" y="83" type="curve" smooth="yes"/>
      <point x="441" y="97"/>
      <point x="437" y="107"/>
      <point x="430" y="117" type="curve" smooth="yes"/>
      <point x="185" y="452" type="line"/>
      <point x="141" y="443"/>
      <point x="115" y="415"/>
      <point x="115" y="377" type="curve" smooth="yes"/>
      <point x="115" y="360"/>
      <point x="120" y="345"/>
      <point x="129" y="333" type="curve" smooth="yes"/>
    </contour>
  </outline>
</glyph>
<glyph name="Oslash" format="1">
  <advance width="690"/>
  <unicode hex="00D8"/>
  <outline>
    <contour>
      <point x="587" y="696"/>
      <point x="574" y="680"/>
      <point x="546" y="648" type="curve" smooth="yes"/>
      <point x="514" y="611" type="line"/>
      <point x="593" y="619" type="line"/>
      <point x="551" y="662"/>
      <point x="487" y="680"/>
      <point x="408" y="680" type="curve" smooth="yes"/>
      <point x="157" y="680"/>
      <point x="22" y="487"/>
      <point x="22" y="257" type="curve" smooth="yes"/>
      <point x="22" y="189"/>
      <point x="34" y="134"/>
      <point x="57" y="92" type="curve"/>
      <point x="33" y="65" type="line" smooth="yes"/>
      <point x="18" y="48"/>
      <point x="9" y="25"/>
      <point x="9" y="2" type="curve" smooth="yes"/>
      <point x="10" y="-34"/>
      <point x="33" y="-58"/>
      <point x="66" y="-58" type="curve"/>
      <point x="81" y="-31"/>
      <point x="109" y="7"/>
      <point x="140" y="36" type="curve" smooth="yes"/>
      <point x="172" y="65" type="line"/>
      <point x="81" y="54" type="line"/>
      <point x="125" y="5"/>
      <point x="192" y="-20"/>
      <point x="282" y="-20" type="curve" smooth="yes"/>
      <point x="533" y="-20"/>
      <point x="668" y="173"/>
      <point x="668" y="403" type="curve" smooth="yes"/>
      <point x="668" y="479"/>
      <point x="653" y="539"/>
      <point x="624" y="583" type="curve"/>
      <point x="634" y="594" type="line" smooth="yes"/>
      <point x="651" y="612"/>
      <point x="660" y="633"/>
      <point x="660" y="654" type="curve" smooth="yes"/>
      <point x="660" y="688"/>
      <point x="632" y="721"/>
      <point x="603" y="721" type="curve"/>
    </contour>
    <contour>
      <point x="429" y="303"/>
      <point x="409" y="51"/>
      <point x="294" y="51" type="curve" smooth="yes"/>
      <point x="248" y="51"/>
      <point x="240" y="89"/>
      <point x="240" y="137" type="curve" smooth="yes"/>
      <point x="240" y="190" type="line"/>
      <point x="192" y="96" type="line"/>
      <point x="438" y="374" type="line"/>
    </contour>
    <contour>
      <point x="437" y="610"/>
      <point x="448" y="579"/>
      <point x="450" y="538" type="curve"/>
      <point x="193" y="247" type="line"/>
      <point x="249" y="257" type="line"/>
      <point x="251" y="276"/>
      <point x="253" y="294"/>
      <point x="255" y="313" type="curve" smooth="yes"/>
      <point x="283" y="522"/>
      <point x="325" y="610"/>
      <point x="396" y="610" type="curve" smooth="yes"/>
    </contour>
    <contour>
      <point x="390" y="660" type="move" name="top"/>
    </contour>
  </outline>
</glyph>
<glyph name="Thorn" format="1">
  <advance width="590"/>
  <unicode hex="00DE"/>
  <outline>
    <contour>
      <point x="120" y="660" type="line"/>
      <point x="-7" y="0" type="line"/>
      <point x="211" y="0" type="line"/>
      <point x="302" y="469" type="line"/>
      <point x="312" y="471"/>
      <point x="328" y="472"/>
      <point x="340" y="472" type="curve" smooth="yes"/>
      <point x="405" y="472"/>
      <point x="437" y="444"/>
      <point x="437" y="371" type="curve" smooth="yes"/>
      <point x="437" y="277"/>
      <point x="383" y="214"/>
      <point x="298" y="203" type="curve" smooth="yes"/>
      <point x="290" y="202"/>
      <point x="281" y="201"/>
      <point x="273" y="201" type="curve"/>
      <point x="289" y="157"/>
      <point x="340" y="143"/>
      <point x="395" y="143" type="curve" smooth="yes"/>
      <point x="530" y="143"/>
      <point x="630" y="226"/>
      <point x="630" y="361" type="curve" smooth="yes"/>
      <point x="630" y="510"/>
      <point x="508" y="538"/>
      <point x="351" y="538" type="curve" smooth="yes"/>
      <point x="340" y="538"/>
      <point x="325" y="538"/>
      <point x="315" y="537" type="curve"/>
      <point x="339" y="660" type="line"/>
    </contour>
  </outline>
</glyph>
<glyph name="germandbls" format="1">
  <advance width="748"/>
  <unicode hex="00DF"/>
  <outline>
    <contour>
      <point x="12" y="29" type="line" smooth="yes"/>
      <point x="-8" y="-66"/>
      <point x="-61" y="-128"/>
      <point x="-118" y="-128" type="curve"/>
      <point x="-94" y="-171"/>
      <point x="-62" y="-188"/>
      <point x="-2" y="-188" type="curve" smooth="yes"/>
      <point x="113" y="-188"/>
      <point x="180" y="-126"/>
      <point x="210" y="28" type="curve" smooth="yes"/>
      <point x="304" y="515" type="line" smooth="yes"/>
      <point x="328" y="638"/>
      <point x="366" y="675"/>
      <point x="410" y="675" type="curve" smooth="yes"/>
      <point x="452" y="675"/>
      <point x="472" y="642"/>
      <point x="472" y="600" type="curve" smooth="yes"/>
      <point x="472" y="489"/>
      <point x="336" y="442"/>
      <point x="336" y="353" type="curve" smooth="yes"/>
      <point x="336" y="294"/>
      <point x="382" y="263"/>
      <point x="431" y="224" type="curve" smooth="yes"/>
      <point x="488" y="178"/>
      <point x="551" y="139"/>
      <point x="551" y="88" type="curve" smooth="yes"/>
      <point x="551" y="51"/>
      <point x="517" y="29"/>
      <point x="485" y="29" type="curve" smooth="yes"/>
      <point x="457" y="29"/>
      <point x="445" y="45"/>
      <point x="445" y="81" type="curve" smooth="yes"/>
      <point x="445" y="101"/>
      <point x="449" y="136"/>
      <point x="458" y="163" type="curve"/>
      <point x="440" y="174"/>
      <point x="416" y="179"/>
      <point x="393" y="179" type="curve" smooth="yes"/>
      <point x="331" y="179"/>
      <point x="291" y="141"/>
      <point x="291" y="90" type="curve" smooth="yes"/>
      <point x="291" y="12"/>
      <point x="385" y="-20"/>
      <point x="464" y="-20" type="curve" smooth="yes"/>
      <point x="590" y="-20"/>
      <point x="729" y="60"/>
      <point x="729" y="172" type="curve" smooth="yes"/>
      <point x="729" y="252"/>
      <point x="658" y="291"/>
      <point x="595" y="326" type="curve" smooth="yes"/>
      <point x="545" y="354"/>
      <point x="500" y="366"/>
      <point x="500" y="406" type="curve" smooth="yes"/>
      <point x="500" y="465"/>
      <point x="631" y="499"/>
      <point x="631" y="587" type="curve" smooth="yes"/>
      <point x="631" y="685"/>
      <point x="519" y="720"/>
      <point x="399" y="720" type="curve" smooth="yes"/>
      <point x="257" y="720"/>
      <point x="144" y="671"/>
      <point x="113" y="519" type="curve" smooth="yes"/>
    </contour>
  </outline>
</glyph>
<glyph name="ae" format="1">
  <advance width="806"/>
  <unicode hex="00E6"/>
  <outline>
    <contour>
      <point x="586" y="530"/>
      <point x="533" y="519"/>
      <point x="471" y="488" type="curve"/>
      <point x="426" y="517"/>
      <point x="371" y="530"/>
      <point x="315" y="530" type="curve" smooth="yes"/>
      <point x="121" y="530"/>
      <point x="13" y="374"/>
      <point x="13" y="175" type="curve" smooth="yes"/>
      <point x="13" y="50"/>
      <point x="56" y="-20"/>
      <point x="179" y="-20" type="curve" smooth="yes"/>
      <point x="249" y="-20"/>
      <point x="310" y="3"/>
      <point x="344" y="63" type="curve"/>
      <point x="392" y="-8"/>
      <point x="476" y="-20"/>
      <point x="535" y="-20" type="curve" smooth="yes"/>
      <point x="668" y="-20"/>
      <point x="764" y="40"/>
      <point x="764" y="121" type="curve" smooth="yes"/>
      <point x="764" y="143"/>
      <point x="757" y="158"/>
      <point x="739" y="169" type="curve"/>
      <point x="713" y="128"/>
      <point x="653" y="106"/>
      <point x="603" y="106" type="curve" smooth="yes"/>
      <point x="543" y="106"/>
      <point x="521" y="137"/>
      <point x="521" y="193" type="curve" smooth="yes"/>
      <point x="521" y="205"/>
      <point x="522" y="221"/>
      <point x="524" y="235" type="curve"/>
      <point x="548" y="235"/>
      <point x="571" y="236"/>
      <point x="593" y="238" type="curve" smooth="yes"/>
      <point x="749" y="252"/>
      <point x="832" y="305"/>
      <point x="832" y="408" type="curve" smooth="yes"/>
      <point x="832" y="507"/>
      <point x="754" y="530"/>
      <point x="655" y="530" type="curve" smooth="yes"/>
    </contour>
    <contour>
      <point x="670" y="479"/>
      <point x="678" y="457"/>
      <point x="678" y="425" type="curve" smooth="yes"/>
      <point x="678" y="341"/>
      <point x="624" y="278"/>
      <point x="531" y="278" type="curve"/>
      <point x="555" y="421"/>
      <point x="597" y="479"/>
      <point x="642" y="479" type="curve" smooth="yes"/>
    </contour>
    <contour>
      <point x="324" y="169" type="line" smooth="yes"/>
      <point x="315" y="116"/>
      <point x="291" y="44"/>
      <point x="238" y="44" type="curve" smooth="yes"/>
      <point x="205" y="44"/>
      <point x="201" y="73"/>
      <point x="201" y="107" type="curve" smooth="yes"/>
      <point x="201" y="145"/>
      <point x="206" y="193"/>
      <point x="213" y="241" type="curve" smooth="yes"/>
      <point x="239" y="417"/>
      <point x="269" y="470"/>
      <point x="321" y="470" type="curve" smooth="yes"/>
      <point x="337" y="470"/>
      <point x="359" y="465"/>
      <point x="374" y="452" type="curve"/>
    </contour>
    <contour>
      <point x="477" y="510" type="move" name="top"/>
    </contour>
  </outline>
</glyph>
<glyph name="eth" format="1">
  <advance width="585"/>
  <unicode hex="00F0"/>
  <outline>
    <contour>
      <point x="311" y="615" type="line" smooth="yes"/>
      <point x="288" y="607"/>
      <point x="278" y="592"/>
      <point x="278" y="574" type="curve" smooth="yes"/>
      <point x="278" y="559"/>
      <point x="285" y="548"/>
      <point x="293" y="540" type="curve"/>
      <point x="446" y="595" type="line"/>
      <point x="390" y="601" type="line"/>
      <point x="400" y="571"/>
      <point x="398" y="540"/>
      <point x="392" y="508" type="curve"/>
      <point x="377" y="515"/>
      <point x="345" y="519"/>
      <point x="315" y="519" type="curve" smooth="yes"/>
      <point x="138" y="519"/>
      <point x="14" y="375"/>
      <point x="14" y="189" type="curve" smooth="yes"/>
      <point x="14" y="48"/>
      <point x="86" y="-20"/>
      <point x="214" y="-20" type="curve" smooth="yes"/>
      <point x="485" y="-20"/>
      <point x="564" y="287"/>
      <point x="564" y="474" type="curve" smooth="yes"/>
      <point x="564" y="534"/>
      <point x="556" y="578"/>
      <point x="532" y="625" type="curve"/>
      <point x="561" y="635" type="line" smooth="yes"/>
      <point x="597" y="648"/>
      <point x="611" y="662"/>
      <point x="611" y="684" type="curve" smooth="yes"/>
      <point x="611" y="696"/>
      <point x="607" y="712"/>
      <point x="598" y="720" type="curve"/>
      <point x="490" y="680" type="line"/>
      <point x="457" y="709"/>
      <point x="422" y="720"/>
      <point x="382" y="720" type="curve" smooth="yes"/>
      <point x="323" y="720"/>
      <point x="282" y="697"/>
      <point x="282" y="660" type="curve" smooth="yes"/>
      <point x="282" y="652"/>
      <point x="284" y="645"/>
      <point x="286" y="642" type="curve"/>
      <point x="290" y="645"/>
      <point x="304" y="651"/>
      <point x="321" y="651" type="curve" smooth="yes"/>
      <point x="337" y="651"/>
      <point x="355" y="646"/>
      <point x="368" y="636" type="curve"/>
    </contour>
    <contour>
      <point x="212" y="39"/>
      <point x="202" y="65"/>
      <point x="202" y="122" type="curve" smooth="yes"/>
      <point x="202" y="158"/>
      <point x="206" y="219"/>
      <point x="223" y="305" type="curve" smooth="yes"/>
      <point x="245" y="417"/>
      <point x="267" y="460"/>
      <point x="318" y="460" type="curve" smooth="yes"/>
      <point x="339" y="460"/>
      <point x="366" y="453"/>
      <point x="380" y="441" type="curve"/>
      <point x="369" y="374"/>
      <point x="356" y="307"/>
      <point x="348" y="268" type="curve" smooth="yes"/>
      <point x="314" y="105"/>
      <point x="279" y="39"/>
      <point x="238" y="39" type="curve" smooth="yes"/>
    </contour>
  </outline>
</glyph>
<glyph name="divide" format="1">
  <advance width="572"/>
  <unicode hex="00F7"/>
  <outline>
    <contour>
      <point x="381" y="444"/>
      <point x="351" y="467"/>
      <point x="308" y="467" type="curve" smooth="yes"/>
      <point x="264" y="467"/>
      <point x="229" y="444"/>
      <point x="229" y="403" type="curve" smooth="yes"/>
      <point x="229" y="364"/>
      <point x="260" y="342"/>
      <point x="304" y="342" type="curve" smooth="yes"/>
      <point x="347" y="342"/>
      <point x="381" y="364"/>
      <point x="381" y="405" type="curve" smooth="yes"/>
    </contour>
    <contour>
      <point x="130" y="290" type="line" smooth="yes"/>
      <point x="88" y="290"/>
      <point x="56" y="263"/>
      <point x="56" y="223" type="curve" smooth="yes"/>
      <point x="56" y="215"/>
      <point x="57" y="201"/>
      <point x="60" y="191" type="curve"/>
      <point x="404" y="191" type="line" smooth="yes"/>
      <point x="459" y="191"/>
      <point x="486" y="215"/>
      <point x="486" y="250" type="curve" smooth="yes"/>
      <point x="486" y="259"/>
      <point x="484" y="279"/>
      <point x="481" y="290" type="curve"/>
    </contour>
    <contour>
      <point x="314" y="116"/>
      <point x="284" y="139"/>
      <point x="241" y="139" type="curve" smooth="yes"/>
      <point x="197" y="139"/>
      <point x="162" y="116"/>
      <point x="162" y="75" type="curve" smooth="yes"/>
      <point x="162" y="36"/>
      <point x="193" y="14"/>
      <point x="237" y="14" type="curve" smooth="yes"/>
      <point x="280" y="14"/>
      <point x="314" y="36"/>
      <point x="314" y="77" type="curve" smooth="yes"/>
    </contour>
  </outline>
</glyph>
